NotoSansEthiopic-Condensed.ufo
<glyph name="dieresiscomb" format="2">
  <unicode hex="0308"/>
  <anchor x="1" y="536" name="_top"/>
  <anchor x="1" y="718" name="top"/>
  <outline>
    <contour>
      <point x="-124" y="668" type="curve" smooth="yes"/>
      <point x="-124" y="633"/>
      <point x="-105" y="616"/>
      <point x="-81" y="616" type="curve" smooth="yes"/>
      <point x="-57" y="616"/>
      <point x="-39" y="633"/>
      <point x="-39" y="668" type="curve" smooth="yes"/>
      <point x="-39" y="701"/>
      <point x="-57" y="718"/>
      <point x="-81" y="718" type="curve" smooth="yes"/>
      <point x="-105" y="718"/>
      <point x="-124" y="702"/>
    </contour>
    <contour>
      <point x="39" y="668" type="curve" smooth="yes"/>
      <point x="39" y="633"/>
      <point x="57" y="616"/>
      <point x="82" y="616" type="curve" smooth="yes"/>
      <point x="106" y="616"/>
      <point x="125" y="633"/>
      <point x="125" y="668" type="curve" smooth="yes"/>
      <point x="125" y="701"/>
      <point x="106" y="718"/>
      <point x="82" y="718" type="curve" smooth="yes"/>
      <point x="58" y="718"/>
      <point x="39" y="702"/>
    </contour>
  </outline>
</glyph>
<glyph name="dblverticallineabovecomb" format="2">
  <unicode hex="030E"/>
  <anchor x="1" y="536" name="_top"/>
  <anchor x="1" y="765" name="top"/>
  <outline>
    <contour>
      <point x="-28" y="765" type="line"/>
      <point x="-86" y="765" type="line"/>
      <point x="-86" y="596" type="line"/>
      <point x="-28" y="596" type="line"/>
    </contour>
    <contour>
      <point x="87" y="765" type="line"/>
      <point x="29" y="765" type="line"/>
      <point x="29" y="596" type="line"/>
      <point x="87" y="596" type="line"/>
    </contour>
  </outline>
</glyph>
<glyph name="ha.eth" format="2">
  <advance width="520"/>
  <unicode hex="1200"/>
  <note>
uni1200
</note>
  <anchor x="260" y="714" name="top"/>
  <outline>
    <contour>
      <point x="257" y="-10" type="curve" smooth="yes"/>
      <point x="395" y="-10"/>
      <point x="442" y="86"/>
      <point x="442" y="241" type="curve" smooth="yes"/>
      <point x="442" y="714" type="line"/>
      <point x="358" y="714" type="line"/>
      <point x="358" y="249" type="line" smooth="yes"/>
      <point x="358" y="136"/>
      <point x="343" y="65"/>
      <point x="260" y="65" type="curve" smooth="yes"/>
      <point x="180" y="65"/>
      <point x="162" y="130"/>
      <point x="162" y="248" type="curve" smooth="yes"/>
      <point x="162" y="714" type="line"/>
      <point x="78" y="714" type="line"/>
      <point x="78" y="243" type="line" smooth="yes"/>
      <point x="78" y="81"/>
      <point x="123" y="-10"/>
    </contour>
  </outline>
</glyph>
<glyph name="hi.eth" format="2">
  <advance width="434"/>
  <unicode hex="1202"/>
  <note>
uni1202
</note>
  <anchor x="232" y="714" name="top"/>
  <outline>
    <contour>
      <point x="109" y="0" type="line"/>
      <point x="173" y="0" type="line"/>
      <point x="400" y="714" type="line"/>
      <point x="317" y="714" type="line"/>
      <point x="226" y="418" type="line"/>
      <point x="158" y="421"/>
      <point x="121" y="461"/>
      <point x="121" y="571" type="curve" smooth="yes"/>
      <point x="121" y="714" type="line"/>
      <point x="40" y="714" type="line"/>
      <point x="40" y="563" type="line" smooth="yes"/>
      <point x="40" y="419"/>
      <point x="100" y="359"/>
      <point x="200" y="349" type="curve"/>
      <point x="109" y="51" type="line"/>
    </contour>
    <contour>
      <point x="147" y="0" type="line"/>
      <point x="264" y="0" type="line"/>
      <point x="264" y="75" type="line"/>
      <point x="147" y="75" type="line"/>
    </contour>
    <component base="rightdoubleflag" xOffset="194"/>
  </outline>
</glyph>
<glyph name="haa.eth" format="2">
  <advance width="424"/>
  <unicode hex="1203"/>
  <note>
uni1203
</note>
  <anchor x="219" y="714" name="top"/>
  <outline>
    <contour>
      <point x="91" y="0" type="line"/>
      <point x="174" y="0" type="line"/>
      <point x="399" y="714" type="line"/>
      <point x="317" y="714" type="line"/>
      <point x="225" y="418" type="line"/>
      <point x="158" y="421"/>
      <point x="123" y="461"/>
      <point x="123" y="571" type="curve" smooth="yes"/>
      <point x="123" y="714" type="line"/>
      <point x="40" y="714" type="line"/>
      <point x="40" y="563" type="line" smooth="yes"/>
      <point x="40" y="419"/>
      <point x="100" y="359"/>
      <point x="199" y="349" type="curve"/>
    </contour>
  </outline>
</glyph>
<glyph name="hee.eth" format="2">
  <advance width="446"/>
  <unicode hex="1204"/>
  <note>
uni1204
</note>
  <anchor x="235" y="714" name="top"/>
  <outline>
    <contour>
      <point x="105" y="0" type="line"/>
      <point x="174" y="0" type="line"/>
      <point x="399" y="714" type="line"/>
      <point x="317" y="714" type="line"/>
      <point x="225" y="418" type="line"/>
      <point x="158" y="421"/>
      <point x="123" y="461"/>
      <point x="123" y="571" type="curve" smooth="yes"/>
      <point x="123" y="714" type="line"/>
      <point x="40" y="714" type="line"/>
      <point x="40" y="563" type="line" smooth="yes"/>
      <point x="40" y="419"/>
      <point x="100" y="359"/>
      <point x="199" y="349" type="curve"/>
      <point x="105" y="63" type="line"/>
    </contour>
    <contour>
      <point x="185" y="61" type="line"/>
      <point x="225" y="197" type="line"/>
      <point x="289" y="197" type="line" smooth="yes"/>
      <point x="333" y="197"/>
      <point x="351" y="174"/>
      <point x="351" y="135" type="curve" smooth="yes"/>
      <point x="351" y="92"/>
      <point x="331" y="61"/>
      <point x="269" y="61" type="curve" smooth="yes"/>
    </contour>
    <contour>
      <point x="136" y="0" type="line"/>
      <point x="267" y="0" type="line" smooth="yes"/>
      <point x="379" y="0"/>
      <point x="430" y="57"/>
      <point x="430" y="138" type="curve" smooth="yes"/>
      <point x="430" y="215"/>
      <point x="389" y="260"/>
      <point x="303" y="260" type="curve" smooth="yes"/>
      <point x="212" y="260" type="line"/>
    </contour>
  </outline>
</glyph>
<glyph name="he.eth" format="2">
  <advance width="593"/>
  <unicode hex="1205"/>
  <note>
uni1205
</note>
  <anchor x="277" y="714" name="top"/>
  <outline>
    <contour>
      <point x="330" y="-10" type="curve" smooth="yes"/>
      <point x="468" y="-10"/>
      <point x="515" y="86"/>
      <point x="515" y="241" type="curve" smooth="yes"/>
      <point x="515" y="714" type="line"/>
      <point x="431" y="714" type="line"/>
      <point x="431" y="249" type="line" smooth="yes"/>
      <point x="431" y="136"/>
      <point x="416" y="65"/>
      <point x="333" y="65" type="curve" smooth="yes"/>
      <point x="253" y="65"/>
      <point x="235" y="130"/>
      <point x="235" y="248" type="curve" smooth="yes"/>
      <point x="235" y="525" type="line"/>
      <point x="151" y="525" type="line"/>
      <point x="151" y="243" type="line" smooth="yes"/>
      <point x="151" y="81"/>
      <point x="196" y="-10"/>
    </contour>
    <contour>
      <point x="152" y="457" type="curve"/>
      <point x="235" y="525" type="line"/>
      <point x="183" y="525" type="line" smooth="yes"/>
      <point x="140" y="525"/>
      <point x="121" y="551"/>
      <point x="121" y="644" type="curve" smooth="yes"/>
      <point x="121" y="714" type="line"/>
      <point x="40" y="714" type="line"/>
      <point x="40" y="641" type="line" smooth="yes"/>
      <point x="40" y="503"/>
      <point x="85" y="457"/>
    </contour>
  </outline>
</glyph>
<glyph name="ho.eth" format="2">
  <advance width="655"/>
  <unicode hex="1206"/>
  <note>
uni1206
</note>
  <anchor x="358" y="724" name="top"/>
  <outline>
    <contour>
      <point x="257" y="-10" type="curve" smooth="yes"/>
      <point x="395" y="-10"/>
      <point x="442" y="86"/>
      <point x="442" y="241" type="curve" smooth="yes"/>
      <point x="442" y="688" type="line"/>
      <point x="358" y="688" type="line"/>
      <point x="358" y="249" type="line" smooth="yes"/>
      <point x="358" y="136"/>
      <point x="343" y="65"/>
      <point x="260" y="65" type="curve" smooth="yes"/>
      <point x="180" y="65"/>
      <point x="162" y="130"/>
      <point x="162" y="248" type="curve" smooth="yes"/>
      <point x="162" y="714" type="line"/>
      <point x="78" y="714" type="line"/>
      <point x="78" y="243" type="line" smooth="yes"/>
      <point x="78" y="81"/>
      <point x="123" y="-10"/>
    </contour>
    <contour>
      <point x="417" y="461" type="line"/>
      <point x="485" y="461" type="line" smooth="yes"/>
      <point x="592" y="461"/>
      <point x="639" y="516"/>
      <point x="639" y="598" type="curve" smooth="yes"/>
      <point x="639" y="680"/>
      <point x="598" y="724"/>
      <point x="508" y="724" type="curve" smooth="yes"/>
      <point x="451" y="724"/>
      <point x="396" y="707"/>
      <point x="358" y="688" type="curve"/>
    </contour>
    <contour>
      <point x="442" y="526" type="line"/>
      <point x="442" y="647" type="line"/>
      <point x="455" y="653"/>
      <point x="475" y="658"/>
      <point x="498" y="658" type="curve" smooth="yes"/>
      <point x="539" y="658"/>
      <point x="557" y="636"/>
      <point x="557" y="597" type="curve" smooth="yes"/>
      <point x="557" y="547"/>
      <point x="531" y="526"/>
      <point x="477" y="526" type="curve" smooth="yes"/>
    </contour>
  </outline>
</glyph>
<glyph name="la.eth" format="2">
  <advance width="484"/>
  <unicode hex="1208"/>
  <note>
uni1208
</note>
  <anchor x="244" y="714" name="top"/>
  <outline>
    <contour>
      <point x="30" y="0" type="curve"/>
      <point x="114" y="0" type="line"/>
      <point x="133" y="360"/>
      <point x="167" y="463"/>
      <point x="257" y="490" type="curve"/>
      <point x="374" y="0" type="line"/>
      <point x="459" y="0" type="line"/>
      <point x="284" y="714" type="line"/>
      <point x="198" y="714" type="line"/>
      <point x="236" y="562" type="line"/>
      <point x="97" y="521"/>
      <point x="52" y="381"/>
    </contour>
  </outline>
</glyph>
<glyph name="laa.eth" format="2">
  <advance width="469"/>
  <unicode hex="120B"/>
  <note>
uni120B
</note>
  <anchor x="237" y="714" name="top"/>
  <outline>
    <contour>
      <point x="359" y="0" type="line"/>
      <point x="444" y="0" type="line"/>
      <point x="269" y="714" type="line"/>
      <point x="184" y="714" type="line"/>
      <point x="222" y="559" type="line"/>
      <point x="110" y="519"/>
      <point x="55" y="435"/>
      <point x="30" y="179" type="curve"/>
      <point x="113" y="179" type="line"/>
      <point x="135" y="399"/>
      <point x="170" y="468"/>
      <point x="241" y="490" type="curve"/>
    </contour>
  </outline>
</glyph>
<glyph name="lee.eth" format="2">
  <advance width="646"/>
  <unicode hex="120C"/>
  <note>
uni120C
</note>
  <anchor x="330" y="714" name="top"/>
  <outline>
    <contour>
      <point x="30" y="0" type="curve"/>
      <point x="114" y="0" type="line"/>
      <point x="133" y="360"/>
      <point x="167" y="463"/>
      <point x="257" y="490" type="curve"/>
      <point x="374" y="0" type="line"/>
      <point x="459" y="0" type="line"/>
      <point x="450" y="36" type="line"/>
      <point x="284" y="714" type="line"/>
      <point x="198" y="714" type="line"/>
      <point x="236" y="562" type="line"/>
      <point x="101" y="514"/>
      <point x="52" y="381"/>
    </contour>
    <contour>
      <point x="436" y="61" type="line"/>
      <point x="403" y="197" type="line"/>
      <point x="489" y="197" type="line" smooth="yes"/>
      <point x="533" y="197"/>
      <point x="551" y="174"/>
      <point x="551" y="135" type="curve" smooth="yes"/>
      <point x="551" y="92"/>
      <point x="531" y="61"/>
      <point x="469" y="61" type="curve" smooth="yes"/>
    </contour>
    <contour>
      <point x="397" y="0" type="line"/>
      <point x="467" y="0" type="line" smooth="yes"/>
      <point x="579" y="0"/>
      <point x="630" y="57"/>
      <point x="630" y="138" type="curve" smooth="yes"/>
      <point x="630" y="215"/>
      <point x="589" y="260"/>
      <point x="503" y="260" type="curve" smooth="yes"/>
      <point x="331" y="260" type="line"/>
    </contour>
  </outline>
</glyph>
<glyph name="le.eth" format="2">
  <advance width="554"/>
  <unicode hex="120D"/>
  <note>
uni120D
</note>
  <anchor x="277" y="714" name="top"/>
  <outline>
    <contour>
      <point x="30" y="0" type="curve"/>
      <point x="164" y="0" type="line" smooth="yes"/>
      <point x="259" y="0"/>
      <point x="314" y="50"/>
      <point x="314" y="137" type="curve" smooth="yes"/>
      <point x="314" y="212"/>
      <point x="268" y="259"/>
      <point x="191" y="259" type="curve" smooth="yes"/>
      <point x="142" y="259" type="line"/>
      <point x="163" y="405"/>
      <point x="210" y="474"/>
      <point x="270" y="496" type="curve"/>
      <point x="440" y="0" type="line"/>
      <point x="525" y="0" type="line"/>
      <point x="275" y="714" type="line"/>
      <point x="190" y="714" type="line"/>
      <point x="242" y="563" type="line"/>
      <point x="118" y="514"/>
      <point x="58" y="377"/>
    </contour>
    <contour>
      <point x="116" y="62" type="line"/>
      <point x="119" y="109"/>
      <point x="123" y="151"/>
      <point x="131" y="197" type="curve"/>
      <point x="173" y="197" type="line" smooth="yes"/>
      <point x="214" y="197"/>
      <point x="234" y="175"/>
      <point x="234" y="134" type="curve" smooth="yes"/>
      <point x="234" y="86"/>
      <point x="208" y="62"/>
      <point x="155" y="62" type="curve" smooth="yes"/>
    </contour>
  </outline>
</glyph>
<glyph name="hha.eth" format="2">
  <advance width="613"/>
  <unicode hex="1210"/>
  <note>
uni1210
</note>
  <anchor x="306" y="714" name="top"/>
  <outline>
    <contour>
      <point x="50" y="0" type="line"/>
      <point x="134" y="0" type="line"/>
      <point x="134" y="171" type="line" smooth="yes"/>
      <point x="134" y="294"/>
      <point x="182" y="352"/>
      <point x="264" y="355" type="curve"/>
      <point x="264" y="0" type="line"/>
      <point x="348" y="0" type="line"/>
      <point x="348" y="355" type="line"/>
      <point x="432" y="352"/>
      <point x="479" y="294"/>
      <point x="479" y="171" type="curve" smooth="yes"/>
      <point x="479" y="0" type="line"/>
      <point x="563" y="0" type="line"/>
      <point x="563" y="181" type="line" smooth="yes"/>
      <point x="563" y="340"/>
      <point x="486" y="426"/>
      <point x="348" y="431" type="curve"/>
      <point x="348" y="714" type="line"/>
      <point x="264" y="714" type="line"/>
      <point x="264" y="431" type="line"/>
      <point x="129" y="426"/>
      <point x="50" y="340"/>
      <point x="50" y="181" type="curve" smooth="yes"/>
    </contour>
  </outline>
</glyph>
<glyph name="hhaa.eth" format="2">
  <advance width="613"/>
  <unicode hex="1213"/>
  <note>
uni1213
</note>
  <anchor x="306" y="714" name="top"/>
  <outline>
    <contour>
      <point x="479" y="0" type="line"/>
      <point x="563" y="0" type="line"/>
      <point x="563" y="192" type="line" smooth="yes"/>
      <point x="563" y="350"/>
      <point x="484" y="437"/>
      <point x="348" y="442" type="curve"/>
      <point x="348" y="714" type="line"/>
      <point x="264" y="714" type="line"/>
      <point x="264" y="442" type="line"/>
      <point x="130" y="437"/>
      <point x="50" y="351"/>
      <point x="50" y="192" type="curve" smooth="yes"/>
      <point x="50" y="156" type="line"/>
      <point x="134" y="156" type="line"/>
      <point x="134" y="182" type="line" smooth="yes"/>
      <point x="134" y="305"/>
      <point x="183" y="363"/>
      <point x="264" y="366" type="curve"/>
      <point x="264" y="156" type="line"/>
      <point x="348" y="156" type="line"/>
      <point x="348" y="366" type="line"/>
      <point x="430" y="363"/>
      <point x="479" y="305"/>
      <point x="479" y="181" type="curve" smooth="yes"/>
    </contour>
  </outline>
</glyph>
<glyph name="hhee.eth" format="2">
  <advance width="773"/>
  <unicode hex="1214"/>
  <note>
uni1214
</note>
  <anchor x="403" y="714" name="top"/>
  <outline>
    <contour>
      <point x="479" y="0" type="line"/>
      <point x="594" y="0" type="line" smooth="yes"/>
      <point x="706" y="0"/>
      <point x="757" y="57"/>
      <point x="757" y="138" type="curve" smooth="yes"/>
      <point x="757" y="215"/>
      <point x="716" y="260"/>
      <point x="630" y="260" type="curve" smooth="yes"/>
      <point x="479" y="260" type="line"/>
    </contour>
    <contour>
      <point x="563" y="61" type="line"/>
      <point x="552" y="197" type="line"/>
      <point x="616" y="197" type="line" smooth="yes"/>
      <point x="660" y="197"/>
      <point x="678" y="174"/>
      <point x="678" y="135" type="curve" smooth="yes"/>
      <point x="678" y="92"/>
      <point x="658" y="61"/>
      <point x="596" y="61" type="curve" smooth="yes"/>
    </contour>
    <component base="hha.eth"/>
  </outline>
</glyph>
<glyph name="mu.eth" format="2">
  <advance width="907"/>
  <unicode hex="1219"/>
  <note>
uni1219
</note>
  <anchor x="481" y="714" name="top"/>
  <outline>
    <contour>
      <point x="233" y="-10" type="curve" smooth="yes"/>
      <point x="314" y="-10"/>
      <point x="350" y="34"/>
      <point x="387" y="104" type="curve"/>
      <point x="387" y="649" type="line"/>
      <point x="476" y="649" type="line"/>
      <point x="476" y="73" type="line"/>
      <point x="595" y="73" type="line" smooth="yes"/>
      <point x="710" y="73"/>
      <point x="769" y="187"/>
      <point x="769" y="397" type="curve" smooth="yes"/>
      <point x="769" y="609"/>
      <point x="713" y="714"/>
      <point x="594" y="714" type="curve" smooth="yes"/>
      <point x="288" y="714" type="line" smooth="yes"/>
      <point x="147" y="714"/>
      <point x="66" y="559"/>
      <point x="66" y="309" type="curve" smooth="yes"/>
      <point x="66" y="99"/>
      <point x="115" y="-10"/>
    </contour>
    <contour>
      <point x="236" y="60" type="curve" smooth="yes"/>
      <point x="183" y="60"/>
      <point x="151" y="135"/>
      <point x="151" y="312" type="curve" smooth="yes"/>
      <point x="151" y="542"/>
      <point x="203" y="649"/>
      <point x="293" y="649" type="curve" smooth="yes"/>
      <point x="304" y="649" type="line"/>
      <point x="304" y="113" type="line"/>
      <point x="288" y="76"/>
      <point x="266" y="60"/>
    </contour>
    <contour>
      <point x="559" y="138" type="line"/>
      <point x="559" y="649" type="line"/>
      <point x="588" y="649" type="line" smooth="yes"/>
      <point x="663" y="649"/>
      <point x="685" y="547"/>
      <point x="685" y="398" type="curve" smooth="yes"/>
      <point x="685" y="237"/>
      <point x="663" y="138"/>
      <point x="583" y="138" type="curve" smooth="yes"/>
    </contour>
    <component base="rightdoubleflag" xOffset="667" yOffset="340"/>
  </outline>
</glyph>
<glyph name="mi.eth" format="2">
  <advance width="797"/>
  <unicode hex="121A"/>
  <note>
uni121A
</note>
  <anchor x="408" y="714" name="top"/>
  <outline>
    <contour>
      <point x="484" y="0" type="line"/>
      <point x="555" y="0" type="line"/>
      <point x="682" y="382" type="line" smooth="yes"/>
      <point x="704" y="449"/>
      <point x="730" y="522"/>
      <point x="730" y="579" type="curve" smooth="yes"/>
      <point x="730" y="667"/>
      <point x="678" y="714"/>
      <point x="584" y="714" type="curve" smooth="yes"/>
      <point x="236" y="714" type="line" smooth="yes"/>
      <point x="109" y="714"/>
      <point x="30" y="623"/>
      <point x="30" y="478" type="curve" smooth="yes"/>
      <point x="30" y="352"/>
      <point x="94" y="282"/>
      <point x="190" y="282" type="curve" smooth="yes"/>
      <point x="263" y="282"/>
      <point x="306" y="315"/>
      <point x="350" y="361" type="curve"/>
      <point x="350" y="649" type="line"/>
      <point x="437" y="649" type="line"/>
      <point x="429" y="613"/>
      <point x="420" y="560"/>
      <point x="420" y="521" type="curve" smooth="yes"/>
      <point x="420" y="414"/>
      <point x="455" y="361"/>
      <point x="551" y="361" type="curve" smooth="yes"/>
      <point x="591" y="361" type="line"/>
      <point x="484" y="63" type="line"/>
    </contour>
    <contour>
      <point x="513" y="0" type="line"/>
      <point x="616" y="0" type="line"/>
      <point x="616" y="75" type="line"/>
      <point x="513" y="75" type="line"/>
    </contour>
    <contour>
      <point x="195" y="348" type="curve" smooth="yes"/>
      <point x="145" y="348"/>
      <point x="114" y="391"/>
      <point x="114" y="478" type="curve" smooth="yes"/>
      <point x="114" y="586"/>
      <point x="162" y="649"/>
      <point x="241" y="649" type="curve" smooth="yes"/>
      <point x="266" y="649" type="line"/>
      <point x="266" y="383" type="line"/>
      <point x="247" y="362"/>
      <point x="224" y="348"/>
    </contour>
    <contour>
      <point x="589" y="426" type="line" smooth="yes"/>
      <point x="524" y="426"/>
      <point x="507" y="451"/>
      <point x="507" y="525" type="curve" smooth="yes"/>
      <point x="507" y="560"/>
      <point x="514" y="604"/>
      <point x="522" y="649" type="curve"/>
      <point x="572" y="649" type="line" smooth="yes"/>
      <point x="620" y="649"/>
      <point x="645" y="622"/>
      <point x="645" y="570" type="curve" smooth="yes"/>
      <point x="645" y="539"/>
      <point x="639" y="506"/>
      <point x="630" y="477" type="curve" smooth="yes"/>
      <point x="614" y="426" type="line"/>
    </contour>
    <component base="rightdoubleflag" xOffset="557"/>
  </outline>
</glyph>
<glyph name="maa.eth" format="2">
  <advance width="758"/>
  <unicode hex="121B"/>
  <note>
uni121B
</note>
  <anchor x="380" y="714" name="top"/>
  <outline>
    <contour>
      <point x="465" y="0" type="line"/>
      <point x="555" y="0" type="line"/>
      <point x="682" y="382" type="line" smooth="yes"/>
      <point x="704" y="449"/>
      <point x="730" y="522"/>
      <point x="730" y="579" type="curve" smooth="yes"/>
      <point x="730" y="667"/>
      <point x="678" y="714"/>
      <point x="584" y="714" type="curve" smooth="yes"/>
      <point x="236" y="714" type="line" smooth="yes"/>
      <point x="109" y="714"/>
      <point x="30" y="623"/>
      <point x="30" y="478" type="curve" smooth="yes"/>
      <point x="30" y="352"/>
      <point x="94" y="282"/>
      <point x="190" y="282" type="curve" smooth="yes"/>
      <point x="263" y="282"/>
      <point x="306" y="315"/>
      <point x="350" y="361" type="curve"/>
      <point x="350" y="649" type="line"/>
      <point x="437" y="649" type="line"/>
      <point x="429" y="613"/>
      <point x="420" y="560"/>
      <point x="420" y="521" type="curve" smooth="yes"/>
      <point x="420" y="414"/>
      <point x="455" y="361"/>
      <point x="551" y="361" type="curve" smooth="yes"/>
      <point x="591" y="361" type="line"/>
    </contour>
    <contour>
      <point x="195" y="348" type="curve" smooth="yes"/>
      <point x="145" y="348"/>
      <point x="114" y="391"/>
      <point x="114" y="478" type="curve" smooth="yes"/>
      <point x="114" y="586"/>
      <point x="162" y="649"/>
      <point x="241" y="649" type="curve" smooth="yes"/>
      <point x="266" y="649" type="line"/>
      <point x="266" y="383" type="line"/>
      <point x="247" y="362"/>
      <point x="224" y="348"/>
    </contour>
    <contour>
      <point x="589" y="432" type="line" smooth="yes"/>
      <point x="524" y="432"/>
      <point x="507" y="455"/>
      <point x="507" y="525" type="curve" smooth="yes"/>
      <point x="507" y="560"/>
      <point x="514" y="604"/>
      <point x="522" y="649" type="curve"/>
      <point x="572" y="649" type="line" smooth="yes"/>
      <point x="620" y="649"/>
      <point x="645" y="622"/>
      <point x="645" y="577" type="curve" smooth="yes"/>
      <point x="645" y="539"/>
      <point x="640" y="510"/>
      <point x="629" y="477" type="curve" smooth="yes"/>
      <point x="614" y="432" type="line"/>
    </contour>
  </outline>
</glyph>
<glyph name="me.eth" format="2">
  <advance width="748"/>
  <unicode hex="121D"/>
  <note>
uni121D
</note>
  <anchor x="375" y="714" name="top"/>
  <outline>
    <contour>
      <point x="194" y="283" type="curve" smooth="yes"/>
      <point x="262" y="283"/>
      <point x="307" y="314"/>
      <point x="350" y="362" type="curve"/>
      <point x="350" y="649" type="line"/>
      <point x="431" y="649" type="line"/>
      <point x="431" y="367" type="line"/>
      <point x="570" y="367" type="line" smooth="yes"/>
      <point x="675" y="367"/>
      <point x="720" y="445"/>
      <point x="720" y="549" type="curve" smooth="yes"/>
      <point x="720" y="648"/>
      <point x="669" y="714"/>
      <point x="562" y="714" type="curve" smooth="yes"/>
      <point x="238" y="714" type="line"/>
      <point x="107" y="714"/>
      <point x="30" y="624"/>
      <point x="30" y="477" type="curve" smooth="yes"/>
      <point x="30" y="352"/>
      <point x="93" y="283"/>
    </contour>
    <contour>
      <point x="147" y="0" type="line"/>
      <point x="230" y="0" type="line"/>
      <point x="350" y="362" type="line"/>
      <point x="265" y="364" type="line"/>
    </contour>
    <contour>
      <point x="193" y="351" type="curve" smooth="yes"/>
      <point x="144" y="351"/>
      <point x="114" y="395"/>
      <point x="114" y="477" type="curve" smooth="yes"/>
      <point x="114" y="587"/>
      <point x="163" y="649"/>
      <point x="244" y="649" type="curve" smooth="yes"/>
      <point x="266" y="649" type="line"/>
      <point x="266" y="378" type="line"/>
      <point x="248" y="360"/>
      <point x="226" y="351"/>
    </contour>
    <contour>
      <point x="515" y="431" type="line"/>
      <point x="515" y="649" type="line"/>
      <point x="559" y="649" type="line" smooth="yes"/>
      <point x="622" y="649"/>
      <point x="638" y="596"/>
      <point x="638" y="545" type="curve" smooth="yes"/>
      <point x="638" y="488"/>
      <point x="621" y="431"/>
      <point x="554" y="431" type="curve" smooth="yes"/>
    </contour>
  </outline>
</glyph>
<glyph name="mo.eth" format="2">
  <advance width="748"/>
  <unicode hex="121E"/>
  <note>
uni121E
</note>
  <anchor x="375" y="714" name="top"/>
  <outline>
    <contour>
      <point x="194" y="283" type="curve" smooth="yes"/>
      <point x="262" y="283"/>
      <point x="307" y="314"/>
      <point x="350" y="362" type="curve"/>
      <point x="350" y="649" type="line"/>
      <point x="431" y="649" type="line"/>
      <point x="431" y="367" type="line"/>
      <point x="570" y="367" type="line" smooth="yes"/>
      <point x="675" y="367"/>
      <point x="720" y="445"/>
      <point x="720" y="549" type="curve" smooth="yes"/>
      <point x="720" y="648"/>
      <point x="669" y="714"/>
      <point x="562" y="714" type="curve" smooth="yes"/>
      <point x="238" y="714" type="line"/>
      <point x="107" y="714"/>
      <point x="30" y="624"/>
      <point x="30" y="477" type="curve" smooth="yes"/>
      <point x="30" y="352"/>
      <point x="93" y="283"/>
    </contour>
    <contour>
      <point x="266" y="0" type="line"/>
      <point x="350" y="0" type="line"/>
      <point x="350" y="364" type="line"/>
      <point x="266" y="364" type="line"/>
    </contour>
    <contour>
      <point x="199" y="351" type="curve" smooth="yes"/>
      <point x="144" y="351"/>
      <point x="114" y="395"/>
      <point x="114" y="477" type="curve" smooth="yes"/>
      <point x="114" y="587"/>
      <point x="163" y="649"/>
      <point x="244" y="649" type="curve" smooth="yes"/>
      <point x="266" y="649" type="line"/>
      <point x="266" y="378" type="line"/>
      <point x="248" y="360"/>
      <point x="226" y="351"/>
    </contour>
    <contour>
      <point x="515" y="431" type="line"/>
      <point x="515" y="649" type="line"/>
      <point x="559" y="649" type="line" smooth="yes"/>
      <point x="622" y="649"/>
      <point x="638" y="596"/>
      <point x="638" y="545" type="curve" smooth="yes"/>
      <point x="638" y="488"/>
      <point x="621" y="431"/>
      <point x="554" y="431" type="curve" smooth="yes"/>
    </contour>
  </outline>
</glyph>
<glyph name="sza.eth" format="2">
  <advance width="710"/>
  <unicode hex="1220"/>
  <note>
uni1220
</note>
  <anchor x="355" y="714" name="top"/>
  <outline>
    <contour>
      <point x="225" y="-10" type="curve" smooth="yes"/>
      <point x="314" y="-10"/>
      <point x="354" y="46"/>
      <point x="373" y="138" type="curve"/>
      <point x="393" y="111"/>
      <point x="425" y="91"/>
      <point x="477" y="91" type="curve" smooth="yes"/>
      <point x="594" y="91"/>
      <point x="632" y="191"/>
      <point x="632" y="310" type="curve" smooth="yes"/>
      <point x="632" y="714" type="line"/>
      <point x="548" y="714" type="line"/>
      <point x="548" y="313" type="line" smooth="yes"/>
      <point x="548" y="227"/>
      <point x="540" y="164"/>
      <point x="473" y="164" type="curve" smooth="yes"/>
      <point x="405" y="164"/>
      <point x="397" y="222"/>
      <point x="397" y="310" type="curve" smooth="yes"/>
      <point x="397" y="714" type="line"/>
      <point x="313" y="714" type="line"/>
      <point x="313" y="216" type="line" smooth="yes"/>
      <point x="313" y="127"/>
      <point x="301" y="63"/>
      <point x="235" y="63" type="curve" smooth="yes"/>
      <point x="172" y="63"/>
      <point x="162" y="122"/>
      <point x="162" y="214" type="curve" smooth="yes"/>
      <point x="162" y="714" type="line"/>
      <point x="78" y="714" type="line"/>
      <point x="78" y="201" type="line" smooth="yes"/>
      <point x="78" y="74"/>
      <point x="115" y="-10"/>
    </contour>
  </outline>
</glyph>
<glyph name="szi.eth" format="2">
  <advance width="687"/>
  <unicode hex="1222"/>
  <note>
uni1222
</note>
  <anchor x="384" y="714" name="top"/>
  <outline>
    <contour>
      <point x="388" y="0" type="line"/>
      <point x="459" y="0" type="line"/>
      <point x="618" y="479" type="line"/>
      <point x="545" y="488" type="line"/>
      <point x="388" y="63" type="line"/>
    </contour>
    <contour>
      <point x="417" y="0" type="line"/>
      <point x="520" y="0" type="line"/>
      <point x="520" y="75" type="line"/>
      <point x="417" y="75" type="line"/>
    </contour>
    <component base="shorttoploops"/>
    <component base="rightdoubleflag" xOffset="461"/>
  </outline>
</glyph>
<glyph name="szaa.eth" format="2">
  <advance width="710"/>
  <unicode hex="1223"/>
  <note>
uni1223
</note>
  <anchor x="355" y="714" name="top"/>
  <outline>
    <contour>
      <point x="372" y="0" type="line"/>
      <point x="459" y="0" type="line"/>
      <point x="617" y="477" type="line"/>
      <point x="541" y="488" type="line"/>
    </contour>
    <component base="shorttoploops"/>
  </outline>
</glyph>
<glyph name="szee.eth" format="2">
  <advance width="738"/>
  <unicode hex="1224"/>
  <note>
uni1224
</note>
  <anchor x="400" y="714" name="top"/>
  <outline>
    <contour>
      <point x="397" y="0" type="line"/>
      <point x="466" y="0" type="line"/>
      <point x="619" y="483" type="line"/>
      <point x="520" y="434" type="line"/>
      <point x="397" y="63" type="line"/>
    </contour>
    <contour>
      <point x="477" y="61" type="line"/>
      <point x="517" y="197" type="line"/>
      <point x="581" y="197" type="line" smooth="yes"/>
      <point x="625" y="197"/>
      <point x="643" y="174"/>
      <point x="643" y="135" type="curve" smooth="yes"/>
      <point x="643" y="92"/>
      <point x="623" y="61"/>
      <point x="561" y="61" type="curve" smooth="yes"/>
    </contour>
    <contour>
      <point x="428" y="0" type="line"/>
      <point x="559" y="0" type="line" smooth="yes"/>
      <point x="671" y="0"/>
      <point x="722" y="57"/>
      <point x="722" y="138" type="curve" smooth="yes"/>
      <point x="722" y="215"/>
      <point x="681" y="260"/>
      <point x="595" y="260" type="curve" smooth="yes"/>
      <point x="504" y="260" type="line"/>
    </contour>
    <component base="shorttoploops"/>
  </outline>
</glyph>
<glyph name="sze.eth" format="2">
	<advance width="784"/>
	<unicode hex="1225"/>
	<anchor x="368" y="714" name="top"/>
	<note>
		uni1225
	</note>
	<outline>
		<contour>
			<point x="30" y="0" type="line"/>
			<point x="117" y="0" type="line"/>
			<point x="234" y="353" type="line"/>
			<point x="199" y="488" type="line"/>
		</contour>
		<component base="shorttoploops" xOffset="74"/>
	</outline>
</glyph>
<glyph name="szo.eth" format="2">
  <advance width="710"/>
  <unicode hex="1226"/>
  <note>
uni1226
</note>
  <anchor x="355" y="714" name="top"/>
  <outline>
    <contour>
      <point x="168" y="0" type="line"/>
      <point x="252" y="0" type="line"/>
      <point x="392" y="436" type="line"/>
      <point x="331" y="488" type="line"/>
    </contour>
    <component base="shorttoploops"/>
  </outline>
</glyph>
<glyph name="ru.eth" format="2">
  <advance width="511"/>
  <unicode hex="1229"/>
  <note>
uni1229
</note>
  <anchor x="270" y="714" name="top"/>
  <outline>
    <contour>
      <point x="243" y="0" type="line"/>
      <point x="327" y="0" type="line"/>
      <point x="327" y="179" type="line"/>
      <point x="396" y="179" type="line"/>
      <point x="362" y="254" type="line"/>
      <point x="207" y="254" type="line" smooth="yes"/>
      <point x="153" y="254"/>
      <point x="132" y="281"/>
      <point x="132" y="338" type="curve" smooth="yes"/>
      <point x="132" y="401"/>
      <point x="158" y="420"/>
      <point x="227" y="469" type="curve" smooth="yes"/>
      <point x="329" y="541"/>
      <point x="367" y="602"/>
      <point x="367" y="714" type="curve"/>
      <point x="282" y="714" type="line"/>
      <point x="282" y="616"/>
      <point x="247" y="586"/>
      <point x="166" y="529" type="curve" smooth="yes"/>
      <point x="88" y="474"/>
      <point x="39" y="436"/>
      <point x="39" y="337" type="curve" smooth="yes"/>
      <point x="39" y="242"/>
      <point x="80" y="179"/>
      <point x="197" y="179" type="curve" smooth="yes"/>
      <point x="243" y="179" type="line"/>
    </contour>
    <component base="rightsingleflag" xOffset="271" yOffset="-152"/>
  </outline>
</glyph>
<glyph name="ri.eth" format="2">
  <advance width="505"/>
  <unicode hex="122A"/>
  <note>
uni122A
</note>
  <anchor x="252" y="714" name="top"/>
  <outline>
    <contour>
      <point x="242" y="0" type="line"/>
      <point x="399" y="0"/>
      <point x="466" y="91"/>
      <point x="466" y="241" type="curve" smooth="yes"/>
      <point x="466" y="266" type="line"/>
      <point x="382" y="266" type="line"/>
      <point x="382" y="242" type="line" smooth="yes"/>
      <point x="382" y="133"/>
      <point x="341" y="75"/>
      <point x="242" y="75" type="curve"/>
    </contour>
    <component base="nose"/>
  </outline>
</glyph>
<glyph name="raa.eth" format="2">
  <advance width="565"/>
  <unicode hex="122B"/>
  <note>
uni122B
</note>
  <anchor x="297" y="714" name="top"/>
  <outline>
    <contour>
      <point x="241" y="0" type="line"/>
      <point x="340" y="0" type="line"/>
      <point x="346" y="167"/>
      <point x="373" y="236"/>
      <point x="455" y="236" type="curve"/>
      <point x="470" y="185"/>
      <point x="493" y="157"/>
      <point x="541" y="157" type="curve" smooth="yes"/>
      <point x="555" y="157" type="line"/>
      <point x="520" y="311" type="line"/>
      <point x="463" y="311" type="line" smooth="yes"/>
      <point x="335" y="311"/>
      <point x="275" y="230"/>
      <point x="262" y="75" type="curve"/>
      <point x="241" y="75" type="line"/>
    </contour>
    <component base="nose"/>
  </outline>
</glyph>
<glyph name="ree.eth" format="2">
	<advance width="537"/>
	<unicode hex="122C"/>
	<anchor x="279" y="714" name="top"/>
	<note>
		uni122C
	</note>
	<outline>
		<contour>
			<point x="240" y="0" type="line"/>
			<point x="396" y="0" type="line"/>
			<point x="396" y="40" type="line"/>
			<point x="304" y="75" type="line"/>
			<point x="240" y="75" type="line"/>
		</contour>
		<component base="nose"/>
		<component base="ballbig" xOffset="233" yOffset="-173"/>
	</outline>
</glyph>
<glyph name="re.eth" format="2">
  <advance width="444"/>
  <unicode hex="122D"/>
  <note>
uni122D
</note>
  <anchor x="250" y="714" name="top"/>
  <outline>
    <contour>
      <point x="415" y="-79" type="curve" smooth="yes"/>
      <point x="434" y="-79" type="line"/>
      <point x="407" y="40" type="line"/>
      <point x="434" y="154" type="line"/>
      <point x="415" y="154" type="line" smooth="yes"/>
      <point x="366" y="154"/>
      <point x="344" y="113"/>
      <point x="334" y="75" type="curve"/>
      <point x="275" y="75" type="line" smooth="yes"/>
      <point x="184" y="75"/>
      <point x="151" y="114"/>
      <point x="151" y="229" type="curve" smooth="yes"/>
      <point x="151" y="305" type="line" smooth="yes"/>
      <point x="151" y="569"/>
      <point x="203" y="639"/>
      <point x="311" y="639" type="curve" smooth="yes"/>
      <point x="333" y="639" type="line"/>
      <point x="347" y="590"/>
      <point x="370" y="560"/>
      <point x="416" y="560" type="curve" smooth="yes"/>
      <point x="433" y="560" type="line"/>
      <point x="398" y="714" type="line"/>
      <point x="333" y="714" type="line" smooth="yes"/>
      <point x="130" y="714"/>
      <point x="66" y="591"/>
      <point x="66" y="313" type="curve" smooth="yes"/>
      <point x="66" y="224" type="line" smooth="yes"/>
      <point x="66" y="70"/>
      <point x="122" y="0"/>
      <point x="273" y="0" type="curve" smooth="yes"/>
      <point x="334" y="0" type="line"/>
      <point x="344" y="-38"/>
      <point x="366" y="-79"/>
    </contour>
  </outline>
</glyph>
<glyph name="ro.eth" format="2">
  <advance width="528"/>
  <unicode hex="122E"/>
  <note>
uni122E
</note>
  <anchor x="288" y="714" name="top"/>
  <outline>
    <contour>
      <point x="415" y="-79" type="curve" smooth="yes"/>
      <point x="434" y="-79" type="line"/>
      <point x="407" y="40" type="line"/>
      <point x="434" y="154" type="line"/>
      <point x="415" y="154" type="line" smooth="yes"/>
      <point x="366" y="154"/>
      <point x="344" y="113"/>
      <point x="334" y="75" type="curve"/>
      <point x="275" y="75" type="line" smooth="yes"/>
      <point x="183" y="75"/>
      <point x="150" y="114"/>
      <point x="150" y="229" type="curve" smooth="yes"/>
      <point x="150" y="305" type="line" smooth="yes"/>
      <point x="150" y="569"/>
      <point x="202" y="639"/>
      <point x="311" y="639" type="curve"/>
      <point x="382" y="714" type="line"/>
      <point x="333" y="714" type="line" smooth="yes"/>
      <point x="130" y="714"/>
      <point x="66" y="591"/>
      <point x="66" y="313" type="curve" smooth="yes"/>
      <point x="66" y="224" type="line" smooth="yes"/>
      <point x="66" y="70"/>
      <point x="122" y="0"/>
      <point x="273" y="0" type="curve" smooth="yes"/>
      <point x="334" y="0" type="line"/>
      <point x="344" y="-38"/>
      <point x="366" y="-79"/>
    </contour>
    <component base="ballbig" xOffset="224" yOffset="279"/>
  </outline>
</glyph>
<glyph name="saa.eth" format="2">
  <advance width="520"/>
  <unicode hex="1233"/>
  <note>
uni1233
</note>
  <anchor x="260" y="760" name="top"/>
  <outline>
    <contour>
      <point x="216" y="598" type="line"/>
      <point x="300" y="598" type="line"/>
      <point x="300" y="760" type="line"/>
      <point x="216" y="760" type="line"/>
    </contour>
    <component base="baashort" xOffset="12"/>
  </outline>
</glyph>
<glyph name="se.eth" format="2">
  <advance width="520"/>
  <unicode hex="1235"/>
  <note>
uni1235
</note>
  <anchor x="260" y="760" name="top"/>
  <outline>
    <contour>
      <point x="224" y="598" type="line"/>
      <point x="308" y="598" type="line"/>
      <point x="240" y="760" type="line"/>
      <point x="156" y="760" type="line"/>
    </contour>
    <component base="shortnarch"/>
  </outline>
</glyph>
<glyph name="qe.eth" format="2">
  <advance width="534"/>
  <unicode hex="1245"/>
  <note>
uni1245
</note>
  <anchor x="267" y="852" name="top"/>
  <outline>
    <contour>
      <point x="225" y="685" type="line"/>
      <point x="309" y="685" type="line"/>
      <point x="309" y="773" type="line"/>
      <point x="225" y="773" type="line"/>
    </contour>
    <component base="qa.eth"/>
    <component base="leftsingleflag" yScale="-1" xOffset="44" yOffset="1104"/>
  </outline>
</glyph>
<glyph name="qwi.eth" format="2">
  <advance width="790"/>
  <unicode hex="124A"/>
  <note>
uni124A
</note>
  <anchor x="405" y="714" name="top"/>
  <outline>
    <contour>
      <point x="763" y="199" type="curve" smooth="yes"/>
      <point x="780" y="199" type="line"/>
      <point x="745" y="353" type="line"/>
      <point x="570" y="353" type="line"/>
      <point x="570" y="278" type="line"/>
      <point x="680" y="278" type="line"/>
      <point x="695" y="224"/>
      <point x="721" y="199"/>
    </contour>
    <contour>
      <point x="437" y="362" type="line"/>
      <point x="606" y="362" type="line"/>
      <point x="606" y="437" type="line"/>
      <point x="437" y="437" type="line"/>
    </contour>
    <contour>
      <point x="570" y="278" type="line"/>
      <point x="655" y="278" type="line"/>
      <point x="655" y="510" type="line"/>
      <point x="570" y="510" type="line"/>
    </contour>
    <component base="qa.eth"/>
  </outline>
</glyph>
<glyph name="qwaa.eth" format="2">
  <advance width="534"/>
  <unicode hex="124B"/>
  <note>
uni124B
</note>
  <anchor x="267" y="713" name="top"/>
  <outline>
    <contour>
      <point x="217" y="124" type="line"/>
      <point x="489" y="124" type="line"/>
      <point x="489" y="199" type="line"/>
      <point x="217" y="199" type="line"/>
    </contour>
    <contour>
      <point x="411" y="0" type="line"/>
      <point x="489" y="0" type="line"/>
      <point x="489" y="199" type="line"/>
      <point x="411" y="199" type="line"/>
    </contour>
    <component base="midring" yOffset="47"/>
    <component base="leftsingleflag" xOffset="36" yOffset="-207"/>
    <component base="stem1" yScale="0.785" xOffset="164" yOffset="153"/>
  </outline>
</glyph>
<glyph name="qwe.eth" format="2">
  <advance width="805"/>
  <unicode hex="124D"/>
  <note>
uni124D
</note>
  <anchor x="412" y="714" name="top"/>
  <outline>
    <contour>
      <point x="572" y="358" type="line"/>
      <point x="650" y="358" type="line"/>
      <point x="650" y="594" type="line"/>
      <point x="572" y="594" type="line"/>
    </contour>
    <contour>
      <point x="437" y="358" type="line"/>
      <point x="606" y="358" type="line"/>
      <point x="606" y="433" type="line"/>
      <point x="437" y="433" type="line"/>
    </contour>
    <component base="rightsingleflag" xOffset="565" yOffset="27"/>
    <component base="qa.eth"/>
  </outline>
</glyph>
<glyph name="qha.eth" format="2">
  <advance width="534"/>
  <unicode hex="1250"/>
  <note>
uni1250
</note>
  <anchor x="267" y="845" name="top"/>
  <outline>
    <contour>
      <point x="225" y="686" type="line"/>
      <point x="309" y="686" type="line"/>
      <point x="309" y="756" type="line"/>
      <point x="225" y="756" type="line"/>
    </contour>
    <component base="qa.eth"/>
    <component base="bonemiddle" xOffset="29" yOffset="-7"/>
  </outline>
</glyph>
<glyph name="qhu.eth" format="2">
  <advance width="534"/>
  <unicode hex="1251"/>
  <note>
uni1251
</note>
  <anchor x="267" y="845" name="top"/>
  <outline>
    <contour>
      <point x="225" y="696" type="line"/>
      <point x="309" y="696" type="line"/>
      <point x="309" y="766" type="line"/>
      <point x="225" y="766" type="line"/>
    </contour>
    <component base="qu.eth"/>
    <component base="bonemiddle" xOffset="23" yOffset="-7"/>
  </outline>
</glyph>
<glyph name="qhee.eth" format="2">
  <advance width="534"/>
  <unicode hex="1254"/>
  <note>
uni1254
</note>
  <anchor x="267" y="874" name="top"/>
  <outline>
    <contour>
      <point x="229" y="696" type="line"/>
      <point x="313" y="696" type="line"/>
      <point x="313" y="766" type="line"/>
      <point x="229" y="766" type="line"/>
    </contour>
    <component base="qee.eth"/>
    <component base="bonemiddle" xOffset="27" yOffset="22"/>
  </outline>
</glyph>
<glyph name="qhe.eth" format="2">
	<advance width="651"/>
	<unicode hex="1255"/>
	<anchor x="315" y="852" name="top"/>
	<note>
		uni1255
	</note>
	<outline>
		<contour>
			<point x="346" y="0" type="line"/>
			<point x="430" y="0" type="line"/>
			<point x="430" y="594" type="line"/>
			<point x="371" y="594" type="line" smooth="yes"/>
			<point x="302" y="594"/>
			<point x="269" y="616"/>
			<point x="269" y="703" type="curve" smooth="yes"/>
			<point x="269" y="721" type="line"/>
			<point x="184" y="721" type="line"/>
			<point x="184" y="695" type="line" smooth="yes"/>
			<point x="184" y="575"/>
			<point x="243" y="524"/>
			<point x="346" y="520" type="curve"/>
		</contour>
		<component base="midringshort" xOffset="117" yOffset="-90"/>
		<component base="bone"/>
	</outline>
</glyph>
<glyph name="qhwa.eth" format="2">
  <advance width="606"/>
  <unicode hex="1258"/>
  <note>
uni1258
</note>
  <anchor x="309" y="873" name="top"/>
  <outline>
    <contour>
      <point x="225" y="696" type="line"/>
      <point x="309" y="696" type="line"/>
      <point x="309" y="766" type="line"/>
      <point x="225" y="766" type="line"/>
    </contour>
    <component base="stem1" xOffset="163"/>
    <component base="rightbulbsmall" xOffset="297" yOffset="-190"/>
    <component base="midringshort" yOffset="59"/>
    <component base="bonemiddle" xOffset="23" yOffset="21"/>
  </outline>
</glyph>
<glyph name="qhwi.eth" format="2">
  <advance width="790"/>
  <unicode hex="125A"/>
  <note>
uni125A
</note>
  <anchor x="405" y="845" name="top"/>
  <outline>
    <contour>
      <point x="763" y="199" type="curve" smooth="yes"/>
      <point x="780" y="199" type="line"/>
      <point x="745" y="353" type="line"/>
      <point x="570" y="353" type="line"/>
      <point x="570" y="278" type="line"/>
      <point x="680" y="278" type="line"/>
      <point x="695" y="224"/>
      <point x="721" y="199"/>
    </contour>
    <contour>
      <point x="437" y="362" type="line"/>
      <point x="606" y="362" type="line"/>
      <point x="606" y="437" type="line"/>
      <point x="437" y="437" type="line"/>
    </contour>
    <contour>
      <point x="570" y="278" type="line"/>
      <point x="655" y="278" type="line"/>
      <point x="655" y="510" type="line"/>
      <point x="570" y="510" type="line"/>
    </contour>
    <component base="qha.eth"/>
  </outline>
</glyph>
<glyph name="qhwaa.eth" format="2">
  <advance width="534"/>
  <unicode hex="125B"/>
  <note>
uni125B
</note>
  <anchor x="267" y="852" name="top"/>
  <outline>
    <contour>
      <point x="218" y="124" type="line"/>
      <point x="470" y="124" type="line"/>
      <point x="470" y="199" type="line"/>
      <point x="218" y="199" type="line"/>
    </contour>
    <contour>
      <point x="392" y="0" type="line"/>
      <point x="470" y="0" type="line"/>
      <point x="470" y="199" type="line"/>
      <point x="392" y="199" type="line"/>
    </contour>
    <component base="midringshort" yOffset="49"/>
    <component base="bonemiddle" xOffset="25"/>
    <component base="stem1" yScale="0.882" xOffset="165" yOffset="132"/>
    <component base="leftsingleflag" xOffset="37" yOffset="-207"/>
  </outline>
</glyph>
<glyph name="qhwe.eth" format="2">
  <advance width="805"/>
  <unicode hex="125D"/>
  <note>
uni125D
</note>
  <anchor x="412" y="845" name="top"/>
  <outline>
    <contour>
      <point x="572" y="358" type="line"/>
      <point x="650" y="358" type="line"/>
      <point x="650" y="594" type="line"/>
      <point x="572" y="594" type="line"/>
    </contour>
    <contour>
      <point x="437" y="358" type="line"/>
      <point x="606" y="358" type="line"/>
      <point x="606" y="433" type="line"/>
      <point x="437" y="433" type="line"/>
    </contour>
    <component base="qha.eth"/>
    <component base="rightsingleflag" xOffset="565" yOffset="27"/>
  </outline>
</glyph>
<glyph name="baa.eth" format="2">
  <advance width="512"/>
  <unicode hex="1263"/>
  <note>
uni1263
</note>
  <anchor x="252" y="724" name="top"/>
  <outline>
    <contour>
      <point x="350" y="0" type="line"/>
      <point x="434" y="0" type="line"/>
      <point x="434" y="471" type="line" smooth="yes"/>
      <point x="434" y="635"/>
      <point x="384" y="724"/>
      <point x="254" y="724" type="curve" smooth="yes"/>
      <point x="121" y="724"/>
      <point x="70" y="626"/>
      <point x="70" y="473" type="curve" smooth="yes"/>
      <point x="70" y="240" type="line"/>
      <point x="154" y="240" type="line"/>
      <point x="154" y="465" type="line" smooth="yes"/>
      <point x="154" y="579"/>
      <point x="175" y="651"/>
      <point x="252" y="651" type="curve" smooth="yes"/>
      <point x="327" y="651"/>
      <point x="350" y="585"/>
      <point x="350" y="466" type="curve" smooth="yes"/>
    </contour>
  </outline>
</glyph>
<glyph name="te.eth" format="2">
  <advance width="508"/>
  <unicode hex="1275"/>
  <note>
uni1275
</note>
  <anchor x="254" y="805" name="top"/>
  <outline>
    <contour>
      <point x="218" y="0" type="line"/>
      <point x="302" y="0" type="line"/>
      <point x="302" y="630" type="line"/>
      <point x="257" y="630" type="line" smooth="yes"/>
      <point x="195" y="630"/>
      <point x="169" y="652"/>
      <point x="169" y="740" type="curve" smooth="yes"/>
      <point x="169" y="805" type="line"/>
      <point x="87" y="805" type="line"/>
      <point x="87" y="733" type="line" smooth="yes"/>
      <point x="87" y="612"/>
      <point x="132" y="561"/>
      <point x="218" y="557" type="curve"/>
    </contour>
    <component base="footmiddle" yOffset="390"/>
  </outline>
</glyph>
<glyph name="caa.eth" format="2">
  <advance width="518"/>
  <unicode hex="127B"/>
  <note>
uni127B
</note>
  <anchor x="259" y="852" name="top"/>
  <outline>
    <contour>
      <point x="222" y="648" type="line"/>
      <point x="306" y="648" type="line"/>
      <point x="306" y="768" type="line"/>
      <point x="222" y="768" type="line"/>
    </contour>
    <component base="jstem"/>
    <component base="footmiddle" xOffset="10" yOffset="462"/>
    <component base="bonemiddle" xOffset="26"/>
  </outline>
</glyph>
<glyph name="cee.eth" format="2">
  <advance width="508"/>
  <unicode hex="127C"/>
  <note>
uni127C
</note>
  <anchor x="254" y="852" name="top"/>
  <outline>
    <contour>
      <point x="212" y="652" type="line"/>
      <point x="296" y="652" type="line"/>
      <point x="296" y="746" type="line"/>
      <point x="212" y="746" type="line"/>
    </contour>
    <component base="stem1" xOffset="150"/>
    <component base="baselinebowl" xOffset="182"/>
    <component base="bonemiddle" xOffset="16"/>
    <component base="footmiddle" yOffset="455"/>
  </outline>
</glyph>
<glyph name="ce.eth" format="2">
  <advance width="616"/>
  <unicode hex="127D"/>
  <note>
uni127D
</note>
  <anchor x="308" y="852" name="top"/>
  <outline>
    <contour>
      <point x="323" y="0" type="line"/>
      <point x="407" y="0" type="line"/>
      <point x="407" y="568" type="line"/>
      <point x="362" y="568" type="line" smooth="yes"/>
      <point x="300" y="568"/>
      <point x="274" y="590"/>
      <point x="274" y="678" type="curve" smooth="yes"/>
      <point x="274" y="773" type="line"/>
      <point x="192" y="773" type="line"/>
      <point x="192" y="671" type="line" smooth="yes"/>
      <point x="192" y="550"/>
      <point x="237" y="499"/>
      <point x="323" y="495" type="curve"/>
    </contour>
    <contour>
      <point x="46" y="698" type="line"/>
      <point x="346" y="698" type="line"/>
      <point x="356" y="660"/>
      <point x="378" y="619"/>
      <point x="427" y="619" type="curve" smooth="yes"/>
      <point x="446" y="619" type="line"/>
      <point x="419" y="738" type="line"/>
      <point x="446" y="852" type="line"/>
      <point x="427" y="852" type="line" smooth="yes"/>
      <point x="378" y="852"/>
      <point x="356" y="811"/>
      <point x="346" y="773" type="curve"/>
      <point x="110" y="773" type="line"/>
      <point x="100" y="811"/>
      <point x="78" y="852"/>
      <point x="29" y="852" type="curve" smooth="yes"/>
      <point x="10" y="852" type="line"/>
    </contour>
    <component base="footmiddle" xOffset="108" yOffset="353"/>
  </outline>
</glyph>
<glyph name="co.eth" format="2">
  <advance width="534"/>
  <unicode hex="127E"/>
  <note>
uni127E
</note>
  <anchor x="267" y="863" name="top"/>
  <outline>
    <contour>
      <point x="201" y="713" type="line"/>
      <point x="330" y="713" type="line"/>
      <point x="330" y="784" type="line"/>
      <point x="201" y="784" type="line"/>
    </contour>
    <component base="to.eth" xOffset="8"/>
    <component base="leftdoubleflag" xOffset="11" yOffset="709"/>
    <component base="rightsingleflag" yScale="-1" xOffset="286" yOffset="1115"/>
  </outline>
</glyph>
<glyph name="xaa.eth" format="2">
  <advance width="444"/>
  <unicode hex="1283"/>
  <note>
uni1283
</note>
  <anchor x="192" y="713" name="top"/>
  <outline>
    <contour>
      <point x="18" y="-79" type="line"/>
      <point x="43" y="-79" type="line" smooth="yes"/>
      <point x="72" y="-79"/>
      <point x="106" y="-52"/>
      <point x="117" y="0" type="curve"/>
      <point x="185" y="0" type="line" smooth="yes"/>
      <point x="320" y="0"/>
      <point x="374" y="79"/>
      <point x="374" y="224" type="curve" smooth="yes"/>
      <point x="374" y="351" type="line"/>
      <point x="290" y="351" type="line"/>
      <point x="290" y="231" type="line" smooth="yes"/>
      <point x="290" y="107"/>
      <point x="264" y="75"/>
      <point x="172" y="75" type="curve" smooth="yes"/>
      <point x="53" y="75" type="line"/>
    </contour>
    <contour>
      <point x="290" y="290" type="line"/>
      <point x="374" y="290" type="line"/>
      <point x="374" y="536" type="line"/>
      <point x="339" y="536" type="line" smooth="yes"/>
      <point x="283" y="536"/>
      <point x="259" y="558"/>
      <point x="259" y="645" type="curve" smooth="yes"/>
      <point x="259" y="713" type="line"/>
      <point x="178" y="713" type="line"/>
      <point x="178" y="637" type="line" smooth="yes"/>
      <point x="178" y="524"/>
      <point x="218" y="476"/>
      <point x="290" y="472" type="curve"/>
    </contour>
    <component base="leftsingleflag" yOffset="229"/>
  </outline>
</glyph>
<glyph name="xe.eth" format="2">
  <advance width="444"/>
  <unicode hex="1285"/>
  <note>
uni1285
</note>
  <anchor x="199" y="714" name="top"/>
  <outline>
    <contour>
      <point x="25" y="381" type="curve"/>
      <point x="107" y="381" type="line"/>
      <point x="107" y="508"/>
      <point x="138" y="553"/>
      <point x="186" y="568" type="curve"/>
      <point x="179" y="646" type="line"/>
      <point x="84" y="624"/>
      <point x="25" y="550"/>
    </contour>
    <component base="na.eth" xOffset="119"/>
  </outline>
</glyph>
<glyph name="xwi.eth" format="2">
  <advance width="687"/>
  <unicode hex="128A"/>
  <note>
uni128A
</note>
  <anchor x="343" y="714" name="top"/>
  <outline>
    <contour>
      <point x="660" y="66" type="curve" smooth="yes"/>
      <point x="677" y="66" type="line"/>
      <point x="642" y="220" type="line"/>
      <point x="467" y="220" type="line"/>
      <point x="467" y="145" type="line"/>
      <point x="577" y="145" type="line"/>
      <point x="592" y="91"/>
      <point x="618" y="66"/>
    </contour>
    <contour>
      <point x="334" y="229" type="line"/>
      <point x="503" y="229" type="line"/>
      <point x="503" y="304" type="line"/>
      <point x="334" y="304" type="line"/>
    </contour>
    <contour>
      <point x="467" y="145" type="line"/>
      <point x="552" y="145" type="line"/>
      <point x="552" y="377" type="line"/>
      <point x="467" y="377" type="line"/>
    </contour>
    <component base="xa.eth"/>
  </outline>
</glyph>
<glyph name="xwaa.eth" format="2">
  <advance width="546"/>
  <unicode hex="128B"/>
  <note>
uni128B
</note>
  <anchor x="270" y="714" name="top"/>
  <outline>
    <contour>
      <point x="313" y="153" type="line"/>
      <point x="397" y="153" type="line"/>
      <point x="397" y="539" type="line"/>
      <point x="352" y="539" type="line" smooth="yes"/>
      <point x="290" y="539"/>
      <point x="264" y="561"/>
      <point x="264" y="649" type="curve" smooth="yes"/>
      <point x="264" y="714" type="line"/>
      <point x="182" y="714" type="line"/>
      <point x="182" y="642" type="line" smooth="yes"/>
      <point x="182" y="521"/>
      <point x="227" y="470"/>
      <point x="313" y="466" type="curve"/>
    </contour>
    <contour>
      <point x="236" y="125" type="line"/>
      <point x="530" y="125" type="line"/>
      <point x="530" y="199" type="line"/>
      <point x="236" y="199" type="line"/>
    </contour>
    <contour>
      <point x="446" y="0" type="line"/>
      <point x="530" y="0" type="line"/>
      <point x="530" y="199" type="line"/>
      <point x="446" y="199" type="line"/>
    </contour>
    <component base="leftsingleflag" xOffset="64" yOffset="-207"/>
    <component base="leftsingleflag" yOffset="229"/>
  </outline>
</glyph>
<glyph name="xwee.eth" format="2">
	<advance width="591"/>
	<unicode hex="128C"/>
	<anchor x="292" y="714" name="top"/>
	<note>
		uni128C
	</note>
	<outline>
		<contour>
			<point x="274" y="0" type="line"/>
			<point x="340" y="0" type="line"/>
			<point x="340" y="75" type="line"/>
			<point x="274" y="75" type="line"/>
		</contour>
		<component base="xee.eth"/>
		<component base="leftsingleflag" xOffset="76" yOffset="-331"/>
	</outline>
</glyph>
<glyph name="xwe.eth" format="2">
  <advance width="709"/>
  <unicode hex="128D"/>
  <note>
uni128D
</note>
  <anchor x="354" y="714" name="top"/>
  <outline>
    <contour>
      <point x="476" y="257" type="line"/>
      <point x="554" y="257" type="line"/>
      <point x="554" y="443" type="line"/>
      <point x="476" y="443" type="line"/>
    </contour>
    <contour>
      <point x="341" y="257" type="line"/>
      <point x="510" y="257" type="line"/>
      <point x="510" y="332" type="line"/>
      <point x="341" y="332" type="line"/>
    </contour>
    <component base="xa.eth"/>
    <component base="rightsingleflag" xOffset="469" yOffset="-74"/>
  </outline>
</glyph>
<glyph name="na.eth" format="2">
  <advance width="325"/>
  <unicode hex="1290"/>
  <note>
uni1290
</note>
  <anchor x="147" y="714" name="top"/>
  <outline>
    <contour>
      <point x="171" y="0" type="line"/>
      <point x="255" y="0" type="line"/>
      <point x="255" y="539" type="line"/>
      <point x="210" y="539" type="line" smooth="yes"/>
      <point x="148" y="539"/>
      <point x="122" y="561"/>
      <point x="122" y="649" type="curve" smooth="yes"/>
      <point x="122" y="714" type="line"/>
      <point x="40" y="714" type="line"/>
      <point x="40" y="642" type="line" smooth="yes"/>
      <point x="40" y="521"/>
      <point x="85" y="470"/>
      <point x="171" y="466" type="curve"/>
    </contour>
  </outline>
</glyph>
<glyph name="naa.eth" format="2">
  <advance width="439"/>
  <unicode hex="1293"/>
  <note>
uni1293
</note>
  <anchor x="247" y="714" name="top"/>
  <outline>
    <contour>
      <point x="66" y="273" type="line"/>
      <point x="150" y="294" type="line"/>
      <point x="150" y="305" type="line" smooth="yes"/>
      <point x="150" y="536"/>
      <point x="201" y="639"/>
      <point x="307" y="639" type="curve" smooth="yes"/>
      <point x="329" y="639" type="line"/>
      <point x="345" y="584"/>
      <point x="370" y="560"/>
      <point x="412" y="560" type="curve" smooth="yes"/>
      <point x="429" y="560" type="line"/>
      <point x="394" y="714" type="line"/>
      <point x="327" y="714" type="line" smooth="yes"/>
      <point x="150" y="714"/>
      <point x="66" y="609"/>
      <point x="66" y="313" type="curve" smooth="yes"/>
    </contour>
    <contour>
      <point x="211" y="0" type="line"/>
      <point x="295" y="0" type="line"/>
      <point x="295" y="344" type="line"/>
      <point x="103" y="344" type="line"/>
      <point x="66" y="273" type="line"/>
      <point x="211" y="273" type="line"/>
    </contour>
  </outline>
</glyph>
<glyph name="nee.eth" format="2">
  <advance width="391"/>
  <unicode hex="1294"/>
  <note>
uni1294
</note>
  <anchor x="212" y="713" name="top"/>
  <outline>
    <contour>
      <point x="61" y="0" type="line"/>
      <point x="125" y="0" type="line"/>
      <point x="302" y="534" type="line"/>
      <point x="221" y="534" type="line" smooth="yes"/>
      <point x="158" y="534"/>
      <point x="131" y="559"/>
      <point x="131" y="649" type="curve" smooth="yes"/>
      <point x="131" y="713" type="line"/>
      <point x="49" y="713" type="line"/>
      <point x="49" y="642" type="line" smooth="yes"/>
      <point x="49" y="522"/>
      <point x="95" y="465"/>
      <point x="194" y="462" type="curve"/>
      <point x="61" y="64" type="line"/>
    </contour>
    <contour>
      <point x="140" y="61" type="line"/>
      <point x="184" y="197" type="line"/>
      <point x="234" y="197" type="line" smooth="yes"/>
      <point x="278" y="197"/>
      <point x="296" y="174"/>
      <point x="296" y="135" type="curve" smooth="yes"/>
      <point x="296" y="92"/>
      <point x="276" y="61"/>
      <point x="214" y="61" type="curve" smooth="yes"/>
    </contour>
    <contour>
      <point x="86" y="0" type="line"/>
      <point x="212" y="0" type="line" smooth="yes"/>
      <point x="323" y="0"/>
      <point x="375" y="57"/>
      <point x="375" y="138" type="curve" smooth="yes"/>
      <point x="375" y="213"/>
      <point x="333" y="260"/>
      <point x="248" y="260" type="curve" smooth="yes"/>
      <point x="177" y="260" type="line"/>
    </contour>
  </outline>
</glyph>
<glyph name="ne.eth" format="2">
  <advance width="433"/>
  <unicode hex="1295"/>
  <note>
uni1295
</note>
  <anchor x="204" y="714" name="top"/>
  <outline>
    <contour>
      <point x="149" y="0" type="line"/>
      <point x="235" y="0" type="line"/>
      <point x="399" y="479" type="line"/>
      <point x="286" y="479" type="line"/>
      <point x="286" y="533" type="line" smooth="yes"/>
      <point x="286" y="654"/>
      <point x="239" y="714"/>
      <point x="120" y="714" type="curve" smooth="yes"/>
      <point x="45" y="714" type="line"/>
      <point x="10" y="560" type="line"/>
      <point x="27" y="560" type="line" smooth="yes"/>
      <point x="68" y="560"/>
      <point x="95" y="584"/>
      <point x="110" y="639" type="curve"/>
      <point x="118" y="639" type="line" smooth="yes"/>
      <point x="174" y="639"/>
      <point x="202" y="619"/>
      <point x="202" y="530" type="curve" smooth="yes"/>
      <point x="202" y="408" type="line"/>
      <point x="290" y="408" type="line"/>
    </contour>
  </outline>
</glyph>
<glyph name="no.eth" format="2">
  <advance width="517"/>
  <unicode hex="1296"/>
  <note>
uni1296
</note>
  <anchor x="283" y="714" name="top"/>
  <outline>
    <contour>
      <point x="231" y="0" type="line"/>
      <point x="315" y="0" type="line"/>
      <point x="315" y="344" type="line"/>
      <point x="150" y="344" type="line"/>
      <point x="153" y="512"/>
      <point x="183" y="597"/>
      <point x="243" y="631" type="curve"/>
      <point x="367" y="714" type="line"/>
      <point x="333" y="714" type="line" smooth="yes"/>
      <point x="149" y="714"/>
      <point x="66" y="592"/>
      <point x="66" y="314" type="curve" smooth="yes"/>
      <point x="66" y="274" type="line"/>
      <point x="231" y="274" type="line"/>
    </contour>
    <component base="ballbig" xOffset="213" yOffset="279"/>
  </outline>
</glyph>
<glyph name="nya.eth" format="2">
  <advance width="481"/>
  <unicode hex="1298"/>
  <note>
uni1298
</note>
  <anchor x="228" y="793" name="top"/>
  <outline>
    <contour>
      <point x="319" y="0" type="line"/>
      <point x="403" y="0" type="line"/>
      <point x="403" y="489" type="line"/>
      <point x="358" y="489" type="line" smooth="yes"/>
      <point x="296" y="489"/>
      <point x="270" y="511"/>
      <point x="270" y="599" type="curve" smooth="yes"/>
      <point x="270" y="664" type="line"/>
      <point x="188" y="664" type="line"/>
      <point x="188" y="592" type="line" smooth="yes"/>
      <point x="188" y="471"/>
      <point x="233" y="420"/>
      <point x="319" y="416" type="curve"/>
    </contour>
    <component base="bone" yOffset="-59"/>
  </outline>
</glyph>
<glyph name="nyaa.eth" format="2">
  <advance width="477"/>
  <unicode hex="129B"/>
  <note>
uni129B
</note>
  <anchor x="238" y="803" name="top"/>
  <outline>
    <contour>
      <point x="61" y="222" type="line"/>
      <point x="145" y="244" type="line"/>
      <point x="145" y="294" type="line" smooth="yes"/>
      <point x="145" y="433"/>
      <point x="198" y="495"/>
      <point x="285" y="495" type="curve" smooth="yes"/>
      <point x="295" y="495" type="line"/>
      <point x="306" y="447"/>
      <point x="333" y="411"/>
      <point x="377" y="411" type="curve" smooth="yes"/>
      <point x="394" y="411" type="line"/>
      <point x="359" y="565" type="line"/>
      <point x="290" y="565" type="line" smooth="yes"/>
      <point x="149" y="565"/>
      <point x="61" y="478"/>
      <point x="61" y="298" type="curve" smooth="yes"/>
    </contour>
    <contour>
      <point x="209" y="0" type="line"/>
      <point x="293" y="0" type="line"/>
      <point x="293" y="289" type="line"/>
      <point x="100" y="289" type="line"/>
      <point x="61" y="222" type="line"/>
      <point x="209" y="222" type="line"/>
    </contour>
    <contour>
      <point x="202" y="525" type="line"/>
      <point x="283" y="525" type="line"/>
      <point x="283" y="683" type="line"/>
      <point x="202" y="683" type="line"/>
    </contour>
    <component base="bonemiddle" yOffset="-49"/>
  </outline>
</glyph>
<glyph name="nyee.eth" format="2">
  <advance width="507"/>
  <unicode hex="129C"/>
  <note>
uni129C
</note>
  <anchor x="250" y="802" name="top"/>
  <outline>
    <contour>
      <point x="177" y="0" type="line"/>
      <point x="241" y="0" type="line"/>
      <point x="398" y="475" type="line"/>
      <point x="285" y="475" type="line"/>
      <point x="285" y="693" type="line"/>
      <point x="201" y="693" type="line"/>
      <point x="201" y="408" type="line"/>
      <point x="293" y="408" type="line"/>
      <point x="177" y="64" type="line"/>
    </contour>
    <contour>
      <point x="244" y="61" type="line"/>
      <point x="288" y="197" type="line"/>
      <point x="350" y="197" type="line" smooth="yes"/>
      <point x="394" y="197"/>
      <point x="412" y="174"/>
      <point x="412" y="135" type="curve" smooth="yes"/>
      <point x="412" y="92"/>
      <point x="392" y="61"/>
      <point x="330" y="61" type="curve" smooth="yes"/>
    </contour>
    <contour>
      <point x="198" y="0" type="line"/>
      <point x="328" y="0" type="line" smooth="yes"/>
      <point x="440" y="0"/>
      <point x="491" y="57"/>
      <point x="491" y="138" type="curve" smooth="yes"/>
      <point x="491" y="215"/>
      <point x="450" y="260"/>
      <point x="364" y="260" type="curve" smooth="yes"/>
      <point x="282" y="260" type="line"/>
    </contour>
    <component base="bonemiddle" yOffset="-50"/>
  </outline>
</glyph>
<glyph name="nye.eth" format="2">
  <advance width="467"/>
  <unicode hex="129D"/>
  <note>
uni129D
</note>
  <anchor x="224" y="793" name="top"/>
  <outline>
    <contour>
      <point x="209" y="0" type="line"/>
      <point x="299" y="0" type="line"/>
      <point x="437" y="403" type="line"/>
      <point x="322" y="403" type="line"/>
      <point x="322" y="410" type="line" smooth="yes"/>
      <point x="322" y="483"/>
      <point x="282" y="546"/>
      <point x="165" y="546" type="curve" smooth="yes"/>
      <point x="87" y="546" type="line"/>
      <point x="52" y="392" type="line"/>
      <point x="69" y="392" type="line" smooth="yes"/>
      <point x="110" y="392"/>
      <point x="137" y="418"/>
      <point x="152" y="472" type="curve"/>
      <point x="159" y="472" type="line" smooth="yes"/>
      <point x="208" y="472"/>
      <point x="234" y="450"/>
      <point x="234" y="381" type="curve" smooth="yes"/>
      <point x="234" y="340" type="line"/>
      <point x="319" y="340" type="line"/>
    </contour>
    <contour>
      <point x="181" y="509" type="line"/>
      <point x="265" y="509" type="line"/>
      <point x="265" y="669" type="line"/>
      <point x="181" y="669" type="line"/>
    </contour>
    <component base="footshort" xScale="-1" yScale="-1" xOffset="448" yOffset="714"/>
  </outline>
</glyph>
<glyph name="nyo.eth" format="2">
  <advance width="542"/>
  <unicode hex="129E"/>
  <note>
uni129E
</note>
  <anchor x="272" y="803" name="top"/>
  <outline>
    <contour>
      <point x="230" y="0" type="line"/>
      <point x="315" y="0" type="line"/>
      <point x="315" y="275" type="line"/>
      <point x="171" y="275" type="line"/>
      <point x="171" y="397"/>
      <point x="205" y="483"/>
      <point x="301" y="483" type="curve"/>
      <point x="399" y="549" type="line"/>
      <point x="287" y="549" type="line" smooth="yes"/>
      <point x="154" y="549"/>
      <point x="86" y="426"/>
      <point x="86" y="268" type="curve" smooth="yes"/>
      <point x="86" y="202" type="line"/>
      <point x="230" y="202" type="line"/>
    </contour>
    <contour>
      <point x="392" y="287" type="curve" smooth="yes"/>
      <point x="479" y="287"/>
      <point x="525" y="346"/>
      <point x="525" y="419" type="curve" smooth="yes"/>
      <point x="525" y="497"/>
      <point x="482" y="549"/>
      <point x="392" y="549" type="curve" smooth="yes"/>
      <point x="303" y="549"/>
      <point x="258" y="494"/>
      <point x="258" y="417" type="curve" smooth="yes"/>
      <point x="258" y="342"/>
      <point x="299" y="287"/>
    </contour>
    <contour>
      <point x="208" y="512" type="line"/>
      <point x="292" y="512" type="line"/>
      <point x="292" y="700" type="line"/>
      <point x="208" y="700" type="line"/>
    </contour>
    <contour>
      <point x="392" y="353" type="curve" smooth="yes"/>
      <point x="356" y="353"/>
      <point x="336" y="377"/>
      <point x="336" y="418" type="curve" smooth="yes"/>
      <point x="336" y="458"/>
      <point x="355" y="484"/>
      <point x="392" y="484" type="curve" smooth="yes"/>
      <point x="427" y="484"/>
      <point x="446" y="458"/>
      <point x="446" y="419" type="curve" smooth="yes"/>
      <point x="446" y="378"/>
      <point x="426" y="353"/>
    </contour>
    <component base="bonemiddle" xOffset="10" yOffset="-49"/>
  </outline>
</glyph>
<glyph name="aGlottal.eth" format="2">
  <advance width="459"/>
  <unicode hex="12A0"/>
  <note>
uni12A0
</note>
  <anchor x="238" y="713" name="top"/>
  <outline>
    <contour>
      <point x="42" y="0" type="line"/>
      <point x="128" y="0" type="line"/>
      <point x="303" y="534" type="line"/>
      <point x="221" y="534" type="line" smooth="yes"/>
      <point x="158" y="534"/>
      <point x="131" y="559"/>
      <point x="131" y="649" type="curve" smooth="yes"/>
      <point x="131" y="713" type="line"/>
      <point x="49" y="713" type="line"/>
      <point x="49" y="642" type="line" smooth="yes"/>
      <point x="49" y="522"/>
      <point x="96" y="465"/>
      <point x="196" y="462" type="curve"/>
    </contour>
    <contour>
      <point x="350" y="0" type="curve"/>
      <point x="434" y="0" type="line"/>
      <point x="423" y="246"/>
      <point x="352" y="348"/>
      <point x="244" y="388" type="curve"/>
      <point x="217" y="316" type="line"/>
      <point x="294" y="276"/>
      <point x="342" y="191"/>
    </contour>
  </outline>
</glyph>
<glyph name="aaGlottal.eth" format="2">
  <advance width="452"/>
  <unicode hex="12A3"/>
  <note>
uni12A3
</note>
  <anchor x="234" y="713" name="top"/>
  <outline>
    <contour>
      <point x="86" y="149" type="line"/>
      <point x="172" y="149" type="line"/>
      <point x="298" y="534" type="line"/>
      <point x="214" y="534" type="line" smooth="yes"/>
      <point x="150" y="534"/>
      <point x="124" y="559"/>
      <point x="124" y="649" type="curve" smooth="yes"/>
      <point x="124" y="713" type="line"/>
      <point x="42" y="713" type="line"/>
      <point x="42" y="642" type="line" smooth="yes"/>
      <point x="42" y="522"/>
      <point x="89" y="465"/>
      <point x="189" y="462" type="curve"/>
    </contour>
    <contour>
      <point x="343" y="0" type="curve"/>
      <point x="427" y="0" type="line"/>
      <point x="416" y="246"/>
      <point x="345" y="348"/>
      <point x="237" y="388" type="curve"/>
      <point x="210" y="316" type="line"/>
      <point x="287" y="276"/>
      <point x="335" y="191"/>
    </contour>
  </outline>
</glyph>
<glyph name="eeGlottal.eth" format="2">
  <advance width="645"/>
  <unicode hex="12A4"/>
  <note>
uni12A4
</note>
  <anchor x="335" y="713" name="top"/>
  <outline>
    <contour>
      <point x="371" y="0" type="line"/>
      <point x="466" y="0" type="line" smooth="yes"/>
      <point x="578" y="0"/>
      <point x="629" y="57"/>
      <point x="629" y="138" type="curve" smooth="yes"/>
      <point x="629" y="215"/>
      <point x="588" y="260"/>
      <point x="502" y="260" type="curve" smooth="yes"/>
      <point x="311" y="260" type="line"/>
    </contour>
    <contour>
      <point x="425" y="61" type="line"/>
      <point x="395" y="197" type="line"/>
      <point x="488" y="197" type="line" smooth="yes"/>
      <point x="532" y="197"/>
      <point x="550" y="174"/>
      <point x="550" y="135" type="curve" smooth="yes"/>
      <point x="550" y="92"/>
      <point x="530" y="61"/>
      <point x="468" y="61" type="curve" smooth="yes"/>
    </contour>
    <component base="aGlottal.eth"/>
  </outline>
</glyph>
<glyph name="eGlottal.eth" format="2">
  <advance width="466"/>
  <unicode hex="12A5"/>
  <note>
uni12A5
</note>
  <anchor x="241" y="714" name="top"/>
  <outline>
    <contour>
      <point x="56" y="0" type="line"/>
      <point x="144" y="0" type="line"/>
      <point x="242" y="309" type="line"/>
      <point x="307" y="267"/>
      <point x="350" y="184"/>
      <point x="356" y="0" type="curve"/>
      <point x="441" y="0" type="line"/>
      <point x="432" y="239"/>
      <point x="369" y="343"/>
      <point x="273" y="384" type="curve"/>
      <point x="311" y="499" type="line"/>
      <point x="228" y="499" type="line"/>
      <point x="259" y="596" type="line"/>
      <point x="224" y="596" type="line" smooth="yes"/>
      <point x="154" y="596"/>
      <point x="128" y="615"/>
      <point x="128" y="698" type="curve" smooth="yes"/>
      <point x="128" y="714" type="line"/>
      <point x="42" y="714" type="line"/>
      <point x="42" y="695" type="line" smooth="yes"/>
      <point x="42" y="590"/>
      <point x="84" y="547"/>
      <point x="150" y="533" type="curve"/>
      <point x="113" y="423" type="line"/>
      <point x="195" y="423" type="line"/>
    </contour>
  </outline>
</glyph>
<glyph name="oGlottal.eth" format="2">
  <advance width="439"/>
  <unicode hex="12A6"/>
  <note>
uni12A6
</note>
  <anchor x="228" y="713" name="top"/>
  <outline>
    <contour>
      <point x="42" y="0" type="line"/>
      <point x="128" y="0" type="line"/>
      <point x="301" y="534" type="line"/>
      <point x="221" y="534" type="line" smooth="yes"/>
      <point x="158" y="534"/>
      <point x="131" y="559"/>
      <point x="131" y="649" type="curve" smooth="yes"/>
      <point x="131" y="713" type="line"/>
      <point x="49" y="713" type="line"/>
      <point x="49" y="642" type="line" smooth="yes"/>
      <point x="49" y="522"/>
      <point x="95" y="465"/>
      <point x="194" y="462" type="curve"/>
    </contour>
    <contour>
      <point x="331" y="139" type="curve"/>
      <point x="414" y="139" type="line"/>
      <point x="387" y="287"/>
      <point x="326" y="357"/>
      <point x="244" y="388" type="curve"/>
      <point x="217" y="316" type="line"/>
      <point x="270" y="287"/>
      <point x="310" y="236"/>
    </contour>
  </outline>
</glyph>
<glyph name="waGlottal.eth" format="2">
  <advance width="541"/>
  <unicode hex="12A7"/>
  <note>
uni12A7
</note>
  <anchor x="263" y="793" name="top"/>
  <outline>
    <contour>
      <point x="131" y="0" type="line"/>
      <point x="218" y="0" type="line"/>
      <point x="314" y="310" type="line"/>
      <point x="381" y="265"/>
      <point x="424" y="186"/>
      <point x="431" y="0" type="curve"/>
      <point x="516" y="0" type="line"/>
      <point x="507" y="243"/>
      <point x="439" y="341"/>
      <point x="340" y="385" type="curve"/>
      <point x="382" y="529" type="line"/>
      <point x="274" y="529" type="line"/>
      <point x="274" y="689" type="line"/>
      <point x="190" y="689" type="line"/>
      <point x="190" y="454" type="line"/>
      <point x="275" y="454" type="line"/>
    </contour>
    <component base="bone" yOffset="-59"/>
  </outline>
</glyph>
<glyph name="ka.eth" format="2">
  <advance width="540"/>
  <unicode hex="12A8"/>
  <note>
uni12A8
</note>
  <anchor x="251" y="760" name="top"/>
  <outline>
    <contour>
      <point x="149" y="493" type="curve"/>
      <point x="192" y="560" type="line"/>
      <point x="155" y="572"/>
      <point x="131" y="607"/>
      <point x="131" y="662" type="curve" smooth="yes"/>
      <point x="131" y="760" type="line"/>
      <point x="40" y="760" type="line"/>
      <point x="40" y="659" type="line" smooth="yes"/>
      <point x="40" y="559"/>
      <point x="79" y="517"/>
    </contour>
    <component base="shortnarch" xOffset="20"/>
  </outline>
</glyph>
<glyph name="kaa.eth" format="2">
  <advance width="532"/>
  <unicode hex="12AB"/>
  <note>
uni12AB
</note>
  <anchor x="247" y="760" name="top"/>
  <outline>
    <contour>
      <point x="126" y="496" type="curve"/>
      <point x="167" y="557" type="line"/>
      <point x="139" y="570"/>
      <point x="122" y="605"/>
      <point x="122" y="664" type="curve" smooth="yes"/>
      <point x="122" y="760" type="line"/>
      <point x="40" y="760" type="line"/>
      <point x="40" y="661" type="line" smooth="yes"/>
      <point x="40" y="561"/>
      <point x="72" y="520"/>
    </contour>
    <component base="baashort" xOffset="24"/>
  </outline>
</glyph>
<glyph name="ke.eth" format="2">
  <advance width="531"/>
  <unicode hex="12AD"/>
  <note>
uni12AD
</note>
  <anchor x="246" y="760" name="top"/>
  <outline>
    <contour>
      <point x="369" y="0" type="line"/>
      <point x="453" y="0" type="line"/>
      <point x="453" y="359" type="line" smooth="yes"/>
      <point x="453" y="522"/>
      <point x="401" y="612"/>
      <point x="273" y="612" type="curve" smooth="yes"/>
      <point x="143" y="612"/>
      <point x="89" y="514"/>
      <point x="89" y="361" type="curve" smooth="yes"/>
      <point x="89" y="338" type="line"/>
      <point x="173" y="338" type="line"/>
      <point x="173" y="353" type="line" smooth="yes"/>
      <point x="173" y="466"/>
      <point x="195" y="536"/>
      <point x="271" y="536" type="curve" smooth="yes"/>
      <point x="345" y="536"/>
      <point x="369" y="471"/>
      <point x="369" y="354" type="curve" smooth="yes"/>
    </contour>
    <contour>
      <point x="89" y="0" type="line"/>
      <point x="173" y="0" type="line"/>
      <point x="173" y="181" type="line" smooth="yes"/>
      <point x="173" y="253"/>
      <point x="190" y="290"/>
      <point x="253" y="290" type="curve"/>
      <point x="253" y="363" type="line"/>
      <point x="136" y="363"/>
      <point x="89" y="297"/>
      <point x="89" y="187" type="curve" smooth="yes"/>
    </contour>
    <contour>
      <point x="125" y="496" type="curve"/>
      <point x="166" y="557" type="line"/>
      <point x="138" y="570"/>
      <point x="121" y="605"/>
      <point x="121" y="664" type="curve" smooth="yes"/>
      <point x="121" y="760" type="line"/>
      <point x="40" y="760" type="line"/>
      <point x="40" y="661" type="line" smooth="yes"/>
      <point x="40" y="561"/>
      <point x="72" y="520"/>
    </contour>
  </outline>
</glyph>
<glyph name="ko.eth" format="2">
  <advance width="518"/>
  <unicode hex="12AE"/>
  <note>
uni12AE
</note>
  <anchor x="246" y="760" name="top"/>
  <outline>
    <contour>
      <point x="125" y="496" type="curve"/>
      <point x="166" y="557" type="line"/>
      <point x="138" y="570"/>
      <point x="121" y="605"/>
      <point x="121" y="664" type="curve" smooth="yes"/>
      <point x="121" y="760" type="line"/>
      <point x="40" y="760" type="line"/>
      <point x="40" y="661" type="line" smooth="yes"/>
      <point x="40" y="561"/>
      <point x="72" y="520"/>
    </contour>
    <component base="baashort" xScale="-1" xOffset="519"/>
  </outline>
</glyph>
<glyph name="kwi.eth" format="2">
  <advance width="756"/>
  <unicode hex="12B2"/>
  <note>
uni12B2
</note>
  <anchor x="393" y="760" name="top"/>
  <outline>
    <contour>
      <point x="729" y="139" type="curve" smooth="yes"/>
      <point x="746" y="139" type="line"/>
      <point x="711" y="293" type="line"/>
      <point x="536" y="293" type="line"/>
      <point x="536" y="218" type="line"/>
      <point x="646" y="218" type="line"/>
      <point x="661" y="164"/>
      <point x="687" y="139"/>
    </contour>
    <contour>
      <point x="403" y="302" type="line"/>
      <point x="572" y="302" type="line"/>
      <point x="572" y="377" type="line"/>
      <point x="403" y="377" type="line"/>
    </contour>
    <contour>
      <point x="536" y="218" type="line"/>
      <point x="621" y="218" type="line"/>
      <point x="621" y="450" type="line"/>
      <point x="536" y="450" type="line"/>
    </contour>
    <component base="ka.eth"/>
  </outline>
</glyph>
<glyph name="kwaa.eth" format="2">
  <advance width="557"/>
  <unicode hex="12B3"/>
  <note>
uni12B3
</note>
  <anchor x="283" y="760" name="top"/>
  <outline>
    <contour>
      <point x="364" y="158" type="line"/>
      <point x="448" y="158" type="line"/>
      <point x="448" y="359" type="line" smooth="yes"/>
      <point x="448" y="522"/>
      <point x="396" y="612"/>
      <point x="268" y="612" type="curve" smooth="yes"/>
      <point x="138" y="612"/>
      <point x="84" y="514"/>
      <point x="84" y="361" type="curve" smooth="yes"/>
      <point x="84" y="300" type="line"/>
      <point x="168" y="300" type="line"/>
      <point x="168" y="353" type="line" smooth="yes"/>
      <point x="168" y="466"/>
      <point x="190" y="536"/>
      <point x="266" y="536" type="curve" smooth="yes"/>
      <point x="340" y="536"/>
      <point x="364" y="471"/>
      <point x="364" y="354" type="curve" smooth="yes"/>
    </contour>
    <contour>
      <point x="308" y="127" type="line"/>
      <point x="481" y="127" type="line"/>
      <point x="481" y="202" type="line"/>
      <point x="308" y="202" type="line"/>
    </contour>
    <contour>
      <point x="126" y="496" type="curve"/>
      <point x="167" y="557" type="line"/>
      <point x="139" y="570"/>
      <point x="122" y="605"/>
      <point x="122" y="664" type="curve" smooth="yes"/>
      <point x="122" y="760" type="line"/>
      <point x="40" y="760" type="line"/>
      <point x="40" y="661" type="line" smooth="yes"/>
      <point x="40" y="561"/>
      <point x="72" y="520"/>
    </contour>
    <contour>
      <point x="449" y="0" type="line"/>
      <point x="527" y="0" type="line"/>
      <point x="527" y="202" type="line"/>
      <point x="449" y="202" type="line"/>
    </contour>
    <component base="leftsingleflag" xOffset="97" yOffset="-204"/>
  </outline>
</glyph>
<glyph name="kwee.eth" format="2">
  <advance width="664"/>
  <unicode hex="12B4"/>
  <note>
uni12B4
</note>
  <anchor x="344" y="760" name="top"/>
  <outline>
    <contour>
      <point x="314" y="0" type="line"/>
      <point x="426" y="0" type="line"/>
      <point x="426" y="75" type="line"/>
      <point x="314" y="75" type="line"/>
    </contour>
    <component base="kaa.eth"/>
    <component base="baselinebowl" xOffset="340"/>
    <component base="leftsingleflag" xOffset="135" yOffset="-331"/>
  </outline>
</glyph>
<glyph name="kwe.eth" format="2">
  <advance width="745"/>
  <unicode hex="12B5"/>
  <note>
uni12B5
</note>
  <anchor x="387" y="760" name="top"/>
  <outline>
    <contour>
      <point x="522" y="358" type="line"/>
      <point x="600" y="358" type="line"/>
      <point x="600" y="594" type="line"/>
      <point x="522" y="594" type="line"/>
    </contour>
    <contour>
      <point x="387" y="358" type="line"/>
      <point x="556" y="358" type="line"/>
      <point x="556" y="433" type="line"/>
      <point x="387" y="433" type="line"/>
    </contour>
    <component base="ka.eth"/>
    <component base="rightsingleflag" xOffset="505" yOffset="27"/>
  </outline>
</glyph>
<glyph name="kxa.eth" format="2">
  <advance width="676"/>
  <unicode hex="12B8"/>
  <note>
uni12B8
</note>
  <anchor x="304" y="852" name="top"/>
  <outline>
    <contour>
      <point x="234" y="0" type="line"/>
      <point x="318" y="0" type="line"/>
      <point x="318" y="303" type="line" smooth="yes"/>
      <point x="318" y="416"/>
      <point x="337" y="486"/>
      <point x="416" y="486" type="curve" smooth="yes"/>
      <point x="491" y="486"/>
      <point x="514" y="421"/>
      <point x="514" y="304" type="curve" smooth="yes"/>
      <point x="514" y="0" type="line"/>
      <point x="598" y="0" type="line"/>
      <point x="598" y="309" type="line" smooth="yes"/>
      <point x="598" y="472"/>
      <point x="553" y="562"/>
      <point x="418" y="562" type="curve" smooth="yes"/>
      <point x="280" y="562"/>
      <point x="234" y="464"/>
      <point x="234" y="311" type="curve" smooth="yes"/>
    </contour>
    <contour>
      <point x="298" y="443" type="curve"/>
      <point x="341" y="510" type="line"/>
      <point x="300" y="522"/>
      <point x="273" y="557"/>
      <point x="273" y="612" type="curve" smooth="yes"/>
      <point x="273" y="710" type="line"/>
      <point x="189" y="710" type="line"/>
      <point x="189" y="609" type="line" smooth="yes"/>
      <point x="189" y="509"/>
      <point x="228" y="467"/>
    </contour>
    <component base="bone"/>
  </outline>
</glyph>
<glyph name="kxaa.eth" format="2">
  <advance width="673"/>
  <unicode hex="12BB"/>
  <note>
uni12BB
</note>
  <anchor x="302" y="852" name="top"/>
  <outline>
    <contour>
      <point x="511" y="0" type="line"/>
      <point x="595" y="0" type="line"/>
      <point x="595" y="309" type="line" smooth="yes"/>
      <point x="595" y="472"/>
      <point x="550" y="562"/>
      <point x="415" y="562" type="curve" smooth="yes"/>
      <point x="277" y="562"/>
      <point x="231" y="464"/>
      <point x="231" y="311" type="curve" smooth="yes"/>
      <point x="231" y="257" type="line"/>
      <point x="315" y="257" type="line"/>
      <point x="315" y="303" type="line" smooth="yes"/>
      <point x="315" y="416"/>
      <point x="334" y="486"/>
      <point x="413" y="486" type="curve" smooth="yes"/>
      <point x="488" y="486"/>
      <point x="511" y="421"/>
      <point x="511" y="304" type="curve" smooth="yes"/>
    </contour>
    <contour>
      <point x="295" y="443" type="curve"/>
      <point x="338" y="510" type="line"/>
      <point x="301" y="522"/>
      <point x="277" y="557"/>
      <point x="277" y="612" type="curve" smooth="yes"/>
      <point x="277" y="710" type="line"/>
      <point x="186" y="710" type="line"/>
      <point x="186" y="609" type="line" smooth="yes"/>
      <point x="186" y="509"/>
      <point x="225" y="467"/>
    </contour>
    <component base="bone"/>
  </outline>
</glyph>
<glyph name="kxe.eth" format="2">
  <advance width="682"/>
  <unicode hex="12BD"/>
  <note>
uni12BD
</note>
  <anchor x="307" y="852" name="top"/>
  <outline>
    <contour>
      <point x="520" y="0" type="line"/>
      <point x="604" y="0" type="line"/>
      <point x="604" y="309" type="line" smooth="yes"/>
      <point x="604" y="472"/>
      <point x="552" y="562"/>
      <point x="424" y="562" type="curve" smooth="yes"/>
      <point x="294" y="562"/>
      <point x="240" y="464"/>
      <point x="240" y="311" type="curve" smooth="yes"/>
      <point x="240" y="288" type="line"/>
      <point x="324" y="288" type="line"/>
      <point x="324" y="303" type="line" smooth="yes"/>
      <point x="324" y="416"/>
      <point x="346" y="486"/>
      <point x="422" y="486" type="curve" smooth="yes"/>
      <point x="496" y="486"/>
      <point x="520" y="421"/>
      <point x="520" y="304" type="curve" smooth="yes"/>
    </contour>
    <contour>
      <point x="240" y="0" type="line"/>
      <point x="324" y="0" type="line"/>
      <point x="324" y="131" type="line" smooth="yes"/>
      <point x="324" y="203"/>
      <point x="341" y="240"/>
      <point x="404" y="240" type="curve"/>
      <point x="404" y="313" type="line"/>
      <point x="287" y="313"/>
      <point x="240" y="247"/>
      <point x="240" y="137" type="curve" smooth="yes"/>
    </contour>
    <contour>
      <point x="276" y="446" type="curve"/>
      <point x="317" y="507" type="line"/>
      <point x="289" y="520"/>
      <point x="272" y="555"/>
      <point x="272" y="614" type="curve" smooth="yes"/>
      <point x="272" y="710" type="line"/>
      <point x="191" y="710" type="line"/>
      <point x="191" y="611" type="line" smooth="yes"/>
      <point x="191" y="511"/>
      <point x="223" y="470"/>
    </contour>
    <component base="bone"/>
  </outline>
</glyph>
<glyph name="kxo.eth" format="2">
  <advance width="673"/>
  <unicode hex="12BE"/>
  <note>
uni12BE
</note>
  <anchor x="308" y="852" name="top"/>
  <outline>
    <contour>
      <point x="243" y="0" type="line"/>
      <point x="327" y="0" type="line"/>
      <point x="327" y="284" type="line" smooth="yes"/>
      <point x="327" y="401"/>
      <point x="351" y="466"/>
      <point x="425" y="466" type="curve" smooth="yes"/>
      <point x="501" y="466"/>
      <point x="523" y="396"/>
      <point x="523" y="283" type="curve" smooth="yes"/>
      <point x="523" y="170" type="line"/>
      <point x="607" y="170" type="line"/>
      <point x="607" y="291" type="line" smooth="yes"/>
      <point x="607" y="444"/>
      <point x="553" y="542"/>
      <point x="423" y="542" type="curve" smooth="yes"/>
      <point x="295" y="542"/>
      <point x="243" y="452"/>
      <point x="243" y="289" type="curve" smooth="yes"/>
    </contour>
    <contour>
      <point x="273" y="426" type="curve"/>
      <point x="314" y="487" type="line"/>
      <point x="286" y="500"/>
      <point x="269" y="535"/>
      <point x="269" y="594" type="curve" smooth="yes"/>
      <point x="269" y="760" type="line"/>
      <point x="188" y="760" type="line"/>
      <point x="188" y="591" type="line" smooth="yes"/>
      <point x="188" y="491"/>
      <point x="220" y="450"/>
    </contour>
    <component base="bone"/>
  </outline>
</glyph>
<glyph name="kxwi.eth" format="2">
  <advance width="885"/>
  <unicode hex="12C2"/>
  <note>
uni12C2
</note>
  <anchor x="442" y="852" name="top"/>
  <outline>
    <contour>
      <point x="858" y="141" type="curve" smooth="yes"/>
      <point x="875" y="141" type="line"/>
      <point x="840" y="295" type="line"/>
      <point x="665" y="295" type="line"/>
      <point x="665" y="220" type="line"/>
      <point x="775" y="220" type="line"/>
      <point x="790" y="166"/>
      <point x="816" y="141"/>
    </contour>
    <contour>
      <point x="532" y="304" type="line"/>
      <point x="701" y="304" type="line"/>
      <point x="701" y="379" type="line"/>
      <point x="532" y="379" type="line"/>
    </contour>
    <contour>
      <point x="665" y="220" type="line"/>
      <point x="750" y="220" type="line"/>
      <point x="750" y="452" type="line"/>
      <point x="665" y="452" type="line"/>
    </contour>
    <component base="kxa.eth"/>
  </outline>
</glyph>
<glyph name="kxwaa.eth" format="2">
  <advance width="726"/>
  <unicode hex="12C3"/>
  <note>
uni12C3
</note>
  <anchor x="363" y="852" name="top"/>
  <outline>
    <contour>
      <point x="507" y="0" type="line"/>
      <point x="591" y="0" type="line"/>
      <point x="591" y="309" type="line" smooth="yes"/>
      <point x="591" y="472"/>
      <point x="546" y="562"/>
      <point x="411" y="562" type="curve" smooth="yes"/>
      <point x="273" y="562"/>
      <point x="227" y="464"/>
      <point x="227" y="311" type="curve" smooth="yes"/>
      <point x="227" y="257" type="line"/>
      <point x="311" y="257" type="line"/>
      <point x="311" y="303" type="line" smooth="yes"/>
      <point x="311" y="416"/>
      <point x="330" y="486"/>
      <point x="409" y="486" type="curve" smooth="yes"/>
      <point x="484" y="486"/>
      <point x="507" y="421"/>
      <point x="507" y="304" type="curve" smooth="yes"/>
    </contour>
    <contour>
      <point x="291" y="443" type="curve"/>
      <point x="334" y="510" type="line"/>
      <point x="297" y="522"/>
      <point x="273" y="557"/>
      <point x="273" y="612" type="curve" smooth="yes"/>
      <point x="273" y="710" type="line"/>
      <point x="182" y="710" type="line"/>
      <point x="182" y="609" type="line" smooth="yes"/>
      <point x="182" y="509"/>
      <point x="221" y="467"/>
    </contour>
    <component base="footright" xOffset="253"/>
    <component base="footshort" xScale="-1" yScale="-1" xOffset="448" yOffset="773"/>
  </outline>
</glyph>
<glyph name="kxwee.eth" format="2">
  <advance width="805"/>
  <unicode hex="12C4"/>
  <note>
uni12C4
</note>
  <anchor x="399" y="852" name="top"/>
  <outline>
    <contour>
      <point x="444" y="0" type="line"/>
      <point x="556" y="0" type="line"/>
      <point x="556" y="75" type="line"/>
      <point x="444" y="75" type="line"/>
    </contour>
    <component base="baselinebowl" xOffset="481"/>
    <component base="leftsingleflag" xOffset="241" yOffset="-331"/>
    <component base="kxaa.eth"/>
  </outline>
</glyph>
<glyph name="kxwe.eth" format="2">
  <advance width="894"/>
  <unicode hex="12C5"/>
  <note>
uni12C5
</note>
  <anchor x="447" y="852" name="top"/>
  <outline>
    <contour>
      <point x="661" y="333" type="line"/>
      <point x="739" y="333" type="line"/>
      <point x="739" y="559" type="line"/>
      <point x="661" y="559" type="line"/>
    </contour>
    <contour>
      <point x="536" y="333" type="line"/>
      <point x="695" y="333" type="line"/>
      <point x="695" y="408" type="line"/>
      <point x="536" y="408" type="line"/>
    </contour>
    <component base="kxa.eth"/>
    <component base="rightsingleflag" xOffset="654" yOffset="2"/>
  </outline>
</glyph>
<glyph name="wa.eth" format="2">
  <advance width="661"/>
  <unicode hex="12C8"/>
  <note>
uni12C8
</note>
  <anchor x="330" y="714" name="top"/>
  <outline>
    <contour>
      <point x="234" y="-10" type="curve" smooth="yes"/>
      <point x="294" y="-10"/>
      <point x="337" y="22"/>
      <point x="368" y="73" type="curve"/>
      <point x="424" y="73" type="line" smooth="yes"/>
      <point x="538" y="73"/>
      <point x="595" y="187"/>
      <point x="595" y="397" type="curve" smooth="yes"/>
      <point x="595" y="609"/>
      <point x="540" y="714"/>
      <point x="421" y="714" type="curve" smooth="yes"/>
      <point x="289" y="714" type="line" smooth="yes"/>
      <point x="147" y="714"/>
      <point x="66" y="559"/>
      <point x="66" y="309" type="curve" smooth="yes"/>
      <point x="66" y="99"/>
      <point x="111" y="-10"/>
    </contour>
    <contour>
      <point x="235" y="60" type="curve" smooth="yes"/>
      <point x="182" y="60"/>
      <point x="150" y="135"/>
      <point x="150" y="312" type="curve" smooth="yes"/>
      <point x="150" y="542"/>
      <point x="202" y="648"/>
      <point x="292" y="648" type="curve" smooth="yes"/>
      <point x="303" y="648" type="line"/>
      <point x="303" y="113" type="line"/>
      <point x="287" y="76"/>
      <point x="265" y="60"/>
    </contour>
    <contour>
      <point x="386" y="139" type="line"/>
      <point x="386" y="649" type="line"/>
      <point x="415" y="649" type="line" smooth="yes"/>
      <point x="488" y="649"/>
      <point x="512" y="548"/>
      <point x="512" y="398" type="curve" smooth="yes"/>
      <point x="512" y="237"/>
      <point x="488" y="139"/>
      <point x="411" y="139" type="curve" smooth="yes"/>
    </contour>
  </outline>
</glyph>
<glyph name="wu.eth" format="2">
  <advance width="721"/>
  <unicode hex="12C9"/>
  <note>
uni12C9
</note>
  <anchor x="388" y="714" name="top"/>
  <outline>
    <contour>
      <point x="352" y="73" type="line"/>
      <point x="580" y="73" type="line"/>
      <point x="580" y="139" type="line"/>
      <point x="352" y="139" type="line"/>
    </contour>
    <component base="wa.eth"/>
    <component base="rightdoubleflag" xOffset="481" yOffset="73"/>
  </outline>
</glyph>
<glyph name="waa.eth" format="2">
  <advance width="587"/>
  <unicode hex="12CB"/>
  <note>
uni12CB
</note>
  <anchor x="294" y="714" name="top"/>
  <outline>
    <contour>
      <point x="185" y="283" type="curve" smooth="yes"/>
      <point x="248" y="283"/>
      <point x="291" y="311"/>
      <point x="325" y="365" type="curve"/>
      <point x="403" y="365" type="line" smooth="yes"/>
      <point x="513" y="365"/>
      <point x="559" y="444"/>
      <point x="559" y="548" type="curve" smooth="yes"/>
      <point x="559" y="647"/>
      <point x="508" y="714"/>
      <point x="400" y="714" type="curve" smooth="yes"/>
      <point x="238" y="714" type="line" smooth="yes"/>
      <point x="107" y="714"/>
      <point x="30" y="624"/>
      <point x="30" y="477" type="curve" smooth="yes"/>
      <point x="30" y="351"/>
      <point x="92" y="283"/>
    </contour>
    <contour>
      <point x="267" y="0" type="line"/>
      <point x="351" y="0" type="line"/>
      <point x="351" y="375" type="line"/>
      <point x="267" y="375" type="line"/>
    </contour>
    <contour>
      <point x="194" y="351" type="curve" smooth="yes"/>
      <point x="147" y="351"/>
      <point x="114" y="394"/>
      <point x="114" y="477" type="curve" smooth="yes"/>
      <point x="114" y="588"/>
      <point x="163" y="650"/>
      <point x="244" y="650" type="curve" smooth="yes"/>
      <point x="267" y="650" type="line"/>
      <point x="267" y="386" type="line"/>
      <point x="249" y="366"/>
      <point x="228" y="351"/>
    </contour>
    <contour>
      <point x="351" y="429" type="line"/>
      <point x="351" y="650" type="line"/>
      <point x="396" y="650" type="line" smooth="yes"/>
      <point x="460" y="650"/>
      <point x="476" y="596"/>
      <point x="476" y="544" type="curve" smooth="yes"/>
      <point x="476" y="487"/>
      <point x="459" y="429"/>
      <point x="391" y="429" type="curve" smooth="yes"/>
    </contour>
  </outline>
</glyph>
<glyph name="wo.eth" format="2">
  <advance width="583"/>
  <unicode hex="12CE"/>
  <note>
uni12CB
</note>
  <anchor x="292" y="714" name="top"/>
  <outline>
    <contour>
      <point x="185" y="283" type="curve" smooth="yes"/>
      <point x="244" y="283"/>
      <point x="289" y="309"/>
      <point x="324" y="365" type="curve"/>
      <point x="399" y="365" type="line" smooth="yes"/>
      <point x="509" y="365"/>
      <point x="555" y="446"/>
      <point x="555" y="545" type="curve" smooth="yes"/>
      <point x="555" y="649"/>
      <point x="504" y="714"/>
      <point x="396" y="714" type="curve" smooth="yes"/>
      <point x="237" y="714" type="line" smooth="yes"/>
      <point x="107" y="714"/>
      <point x="30" y="623"/>
      <point x="30" y="479" type="curve" smooth="yes"/>
      <point x="30" y="350"/>
      <point x="91" y="283"/>
    </contour>
    <contour>
      <point x="121" y="0" type="line"/>
      <point x="204" y="0" type="line"/>
      <point x="351" y="375" type="line"/>
      <point x="271" y="375" type="line"/>
    </contour>
    <contour>
      <point x="196" y="351" type="curve" smooth="yes"/>
      <point x="144" y="351"/>
      <point x="113" y="394"/>
      <point x="113" y="480" type="curve" smooth="yes"/>
      <point x="113" y="587"/>
      <point x="162" y="650"/>
      <point x="243" y="650" type="curve" smooth="yes"/>
      <point x="266" y="650" type="line"/>
      <point x="266" y="383" type="line"/>
      <point x="252" y="369"/>
      <point x="229" y="351"/>
    </contour>
    <contour>
      <point x="347" y="429" type="line"/>
      <point x="347" y="650" type="line"/>
      <point x="392" y="650" type="line" smooth="yes"/>
      <point x="456" y="650"/>
      <point x="472" y="597"/>
      <point x="472" y="543" type="curve" smooth="yes"/>
      <point x="472" y="488"/>
      <point x="455" y="429"/>
      <point x="387" y="429" type="curve" smooth="yes"/>
    </contour>
  </outline>
</glyph>
<glyph name="aPhr.eth" format="2">
  <advance width="507"/>
  <unicode hex="12D0"/>
  <note>
uni12D0
</note>
  <anchor x="253" y="723" name="top"/>
  <outline>
    <contour>
      <point x="252" y="-10" type="curve" smooth="yes"/>
      <point x="393" y="-10"/>
      <point x="441" y="101"/>
      <point x="441" y="251" type="curve" smooth="yes"/>
      <point x="441" y="462" type="line" smooth="yes"/>
      <point x="441" y="612"/>
      <point x="390" y="723"/>
      <point x="252" y="723" type="curve" smooth="yes"/>
      <point x="120" y="723"/>
      <point x="66" y="620"/>
      <point x="66" y="460" type="curve" smooth="yes"/>
      <point x="66" y="253" type="line" smooth="yes"/>
      <point x="66" y="93"/>
      <point x="117" y="-10"/>
    </contour>
    <contour>
      <point x="254" y="65" type="curve" smooth="yes"/>
      <point x="175" y="65"/>
      <point x="150" y="133"/>
      <point x="150" y="249" type="curve" smooth="yes"/>
      <point x="150" y="464" type="line" smooth="yes"/>
      <point x="150" y="580"/>
      <point x="175" y="648"/>
      <point x="254" y="648" type="curve" smooth="yes"/>
      <point x="336" y="648"/>
      <point x="357" y="574"/>
      <point x="357" y="463" type="curve" smooth="yes"/>
      <point x="357" y="250" type="line" smooth="yes"/>
      <point x="357" y="139"/>
      <point x="336" y="65"/>
    </contour>
  </outline>
</glyph>
<glyph name="iPhr.eth" format="2">
  <advance width="595"/>
  <unicode hex="12D2"/>
  <note>
uni12D2
</note>
  <anchor x="307" y="724" name="top"/>
  <outline>
    <contour>
      <point x="254" y="0" type="line"/>
      <point x="317" y="0" type="line"/>
      <point x="437" y="361" type="line"/>
      <point x="334" y="361" type="line"/>
      <point x="342" y="380"/>
      <point x="347" y="410"/>
      <point x="347" y="446" type="curve" smooth="yes"/>
      <point x="347" y="560" type="line" smooth="yes"/>
      <point x="347" y="663"/>
      <point x="291" y="724"/>
      <point x="188" y="724" type="curve" smooth="yes"/>
      <point x="85" y="724"/>
      <point x="30" y="663"/>
      <point x="30" y="560" type="curve" smooth="yes"/>
      <point x="30" y="446" type="line" smooth="yes"/>
      <point x="30" y="339"/>
      <point x="87" y="278"/>
      <point x="191" y="278" type="curve" smooth="yes"/>
      <point x="229" y="278"/>
      <point x="260" y="286"/>
      <point x="284" y="300" type="curve"/>
      <point x="334" y="300" type="line"/>
      <point x="254" y="63" type="line"/>
    </contour>
    <contour>
      <point x="303" y="0" type="line"/>
      <point x="466" y="0" type="line"/>
      <point x="466" y="75" type="line"/>
      <point x="303" y="75" type="line"/>
    </contour>
    <contour>
      <point x="189" y="346" type="curve" smooth="yes"/>
      <point x="134" y="346"/>
      <point x="110" y="384"/>
      <point x="110" y="461" type="curve" smooth="yes"/>
      <point x="110" y="549" type="line" smooth="yes"/>
      <point x="110" y="621"/>
      <point x="135" y="656"/>
      <point x="188" y="656" type="curve" smooth="yes"/>
      <point x="244" y="656"/>
      <point x="267" y="621"/>
      <point x="267" y="549" type="curve" smooth="yes"/>
      <point x="267" y="461" type="line" smooth="yes"/>
      <point x="267" y="384"/>
      <point x="246" y="346"/>
    </contour>
    <component base="rightdoubleflag" xOffset="355"/>
  </outline>
</glyph>
<glyph name="aaPhr.eth" format="2">
  <advance width="457"/>
  <unicode hex="12D3"/>
  <note>
uni12D3
</note>
  <anchor x="233" y="724" name="top"/>
  <outline>
    <contour>
      <point x="233" y="0" type="line"/>
      <point x="317" y="0" type="line"/>
      <point x="437" y="361" type="line"/>
      <point x="334" y="361" type="line"/>
      <point x="342" y="380"/>
      <point x="347" y="410"/>
      <point x="347" y="446" type="curve" smooth="yes"/>
      <point x="347" y="560" type="line" smooth="yes"/>
      <point x="347" y="663"/>
      <point x="291" y="724"/>
      <point x="188" y="724" type="curve" smooth="yes"/>
      <point x="85" y="724"/>
      <point x="30" y="663"/>
      <point x="30" y="560" type="curve" smooth="yes"/>
      <point x="30" y="446" type="line" smooth="yes"/>
      <point x="30" y="339"/>
      <point x="87" y="278"/>
      <point x="191" y="278" type="curve" smooth="yes"/>
      <point x="229" y="278"/>
      <point x="260" y="286"/>
      <point x="284" y="300" type="curve"/>
      <point x="334" y="300" type="line"/>
    </contour>
    <contour>
      <point x="189" y="346" type="curve" smooth="yes"/>
      <point x="134" y="346"/>
      <point x="110" y="384"/>
      <point x="110" y="461" type="curve" smooth="yes"/>
      <point x="110" y="549" type="line" smooth="yes"/>
      <point x="110" y="621"/>
      <point x="135" y="656"/>
      <point x="188" y="656" type="curve" smooth="yes"/>
      <point x="244" y="656"/>
      <point x="267" y="621"/>
      <point x="267" y="549" type="curve" smooth="yes"/>
      <point x="267" y="461" type="line" smooth="yes"/>
      <point x="267" y="384"/>
      <point x="246" y="346"/>
    </contour>
  </outline>
</glyph>
<glyph name="eePhr.eth" format="2">
  <advance width="572"/>
  <unicode hex="12D4"/>
  <note>
uni12D4
</note>
  <anchor x="293" y="724" name="top"/>
  <outline>
    <contour>
      <point x="254" y="0" type="line"/>
      <point x="317" y="0" type="line"/>
      <point x="437" y="361" type="line"/>
      <point x="334" y="361" type="line"/>
      <point x="342" y="380"/>
      <point x="347" y="410"/>
      <point x="347" y="446" type="curve" smooth="yes"/>
      <point x="347" y="560" type="line" smooth="yes"/>
      <point x="347" y="663"/>
      <point x="291" y="724"/>
      <point x="188" y="724" type="curve" smooth="yes"/>
      <point x="85" y="724"/>
      <point x="30" y="663"/>
      <point x="30" y="560" type="curve" smooth="yes"/>
      <point x="30" y="446" type="line" smooth="yes"/>
      <point x="30" y="339"/>
      <point x="87" y="278"/>
      <point x="191" y="278" type="curve" smooth="yes"/>
      <point x="229" y="278"/>
      <point x="260" y="286"/>
      <point x="284" y="300" type="curve"/>
      <point x="334" y="300" type="line"/>
      <point x="254" y="63" type="line"/>
    </contour>
    <contour>
      <point x="323" y="61" type="line"/>
      <point x="368" y="197" type="line"/>
      <point x="415" y="197" type="line" smooth="yes"/>
      <point x="459" y="197"/>
      <point x="477" y="174"/>
      <point x="477" y="135" type="curve" smooth="yes"/>
      <point x="477" y="92"/>
      <point x="457" y="61"/>
      <point x="395" y="61" type="curve" smooth="yes"/>
    </contour>
    <contour>
      <point x="265" y="0" type="line"/>
      <point x="393" y="0" type="line" smooth="yes"/>
      <point x="505" y="0"/>
      <point x="556" y="57"/>
      <point x="556" y="138" type="curve" smooth="yes"/>
      <point x="556" y="215"/>
      <point x="515" y="260"/>
      <point x="429" y="260" type="curve" smooth="yes"/>
      <point x="352" y="260" type="line"/>
    </contour>
    <contour>
      <point x="189" y="346" type="curve" smooth="yes"/>
      <point x="134" y="346"/>
      <point x="110" y="384"/>
      <point x="110" y="461" type="curve" smooth="yes"/>
      <point x="110" y="549" type="line" smooth="yes"/>
      <point x="110" y="621"/>
      <point x="135" y="656"/>
      <point x="188" y="656" type="curve" smooth="yes"/>
      <point x="244" y="656"/>
      <point x="267" y="621"/>
      <point x="267" y="549" type="curve" smooth="yes"/>
      <point x="267" y="461" type="line" smooth="yes"/>
      <point x="267" y="384"/>
      <point x="246" y="346"/>
    </contour>
  </outline>
</glyph>
<glyph name="ePhr.eth" format="2">
  <advance width="507"/>
  <unicode hex="12D5"/>
  <note>
uni12D5
</note>
  <anchor x="253" y="760" name="top"/>
  <outline>
    <contour>
      <point x="252" y="-10" type="curve" smooth="yes"/>
      <point x="393" y="-10"/>
      <point x="441" y="101"/>
      <point x="441" y="251" type="curve" smooth="yes"/>
      <point x="441" y="358" type="line" smooth="yes"/>
      <point x="441" y="508"/>
      <point x="390" y="619"/>
      <point x="252" y="619" type="curve" smooth="yes"/>
      <point x="120" y="619"/>
      <point x="66" y="516"/>
      <point x="66" y="356" type="curve" smooth="yes"/>
      <point x="66" y="253" type="line" smooth="yes"/>
      <point x="66" y="93"/>
      <point x="117" y="-10"/>
    </contour>
    <contour>
      <point x="254" y="65" type="curve" smooth="yes"/>
      <point x="175" y="65"/>
      <point x="150" y="133"/>
      <point x="150" y="249" type="curve" smooth="yes"/>
      <point x="150" y="360" type="line" smooth="yes"/>
      <point x="150" y="476"/>
      <point x="175" y="544"/>
      <point x="254" y="544" type="curve" smooth="yes"/>
      <point x="336" y="544"/>
      <point x="357" y="470"/>
      <point x="357" y="359" type="curve" smooth="yes"/>
      <point x="357" y="250" type="line" smooth="yes"/>
      <point x="357" y="139"/>
      <point x="336" y="65"/>
    </contour>
    <contour>
      <point x="210" y="582" type="line"/>
      <point x="291" y="582" type="line"/>
      <point x="291" y="760" type="line"/>
      <point x="210" y="760" type="line"/>
    </contour>
  </outline>
</glyph>
<glyph name="oPhr.eth" format="2">
  <advance width="426"/>
  <unicode hex="12D6"/>
  <note>
uni12D6
</note>
  <anchor x="213" y="724" name="top"/>
  <outline>
    <contour>
      <point x="30" y="0" type="curve"/>
      <point x="114" y="0" type="line"/>
      <point x="121" y="191"/>
      <point x="150" y="233"/>
      <point x="264" y="322" type="curve" smooth="yes"/>
      <point x="338" y="380"/>
      <point x="396" y="431"/>
      <point x="396" y="550" type="curve" smooth="yes"/>
      <point x="396" y="655"/>
      <point x="351" y="724"/>
      <point x="245" y="724" type="curve" smooth="yes"/>
      <point x="148" y="724"/>
      <point x="88" y="661"/>
      <point x="88" y="547" type="curve" smooth="yes"/>
      <point x="88" y="451"/>
      <point x="131" y="389"/>
      <point x="190" y="364" type="curve"/>
      <point x="77" y="278"/>
      <point x="34" y="185"/>
    </contour>
    <contour>
      <point x="249" y="408" type="curve"/>
      <point x="204" y="421"/>
      <point x="171" y="468"/>
      <point x="171" y="547" type="curve" smooth="yes"/>
      <point x="171" y="616"/>
      <point x="196" y="656"/>
      <point x="244" y="656" type="curve" smooth="yes"/>
      <point x="288" y="656"/>
      <point x="313" y="623"/>
      <point x="313" y="550" type="curve" smooth="yes"/>
      <point x="313" y="488"/>
      <point x="295" y="440"/>
    </contour>
  </outline>
</glyph>
<glyph name="za.eth" format="2">
  <advance width="478"/>
  <unicode hex="12D8"/>
  <note>
uni12D8
</note>
  <anchor x="239" y="714" name="top"/>
  <outline>
    <contour>
      <point x="80" y="0" type="line"/>
      <point x="164" y="0" type="line"/>
      <point x="164" y="335" type="line"/>
      <point x="314" y="335" type="line"/>
      <point x="314" y="0" type="line"/>
      <point x="398" y="0" type="line"/>
      <point x="398" y="714" type="line"/>
      <point x="314" y="714" type="line"/>
      <point x="314" y="411" type="line"/>
      <point x="164" y="411" type="line"/>
      <point x="164" y="714" type="line"/>
      <point x="80" y="714" type="line"/>
    </contour>
  </outline>
</glyph>
<glyph name="zaa.eth" format="2">
  <advance width="478"/>
  <unicode hex="12DB"/>
  <note>
uni12DB
</note>
  <anchor x="239" y="714" name="top"/>
  <outline>
    <contour>
      <point x="313" y="0" type="line"/>
      <point x="398" y="0" type="line"/>
      <point x="398" y="714" type="line"/>
      <point x="313" y="714" type="line"/>
      <point x="313" y="411" type="line"/>
      <point x="164" y="411" type="line"/>
      <point x="164" y="714" type="line"/>
      <point x="80" y="714" type="line"/>
      <point x="80" y="179" type="line"/>
      <point x="164" y="179" type="line"/>
      <point x="164" y="335" type="line"/>
      <point x="313" y="335" type="line"/>
    </contour>
  </outline>
</glyph>
<glyph name="ze.eth" format="2">
  <advance width="576"/>
  <unicode hex="12DD"/>
  <note>
uni12DD
</note>
  <anchor x="253" y="714" name="top"/>
  <outline>
    <contour>
      <point x="179" y="0" type="line"/>
      <point x="263" y="0" type="line"/>
      <point x="263" y="335" type="line"/>
      <point x="412" y="335" type="line"/>
      <point x="412" y="0" type="line"/>
      <point x="496" y="0" type="line"/>
      <point x="496" y="714" type="line"/>
      <point x="412" y="714" type="line"/>
      <point x="412" y="411" type="line"/>
      <point x="263" y="411" type="line"/>
      <point x="263" y="531" type="line" smooth="yes"/>
      <point x="263" y="660"/>
      <point x="220" y="714"/>
      <point x="119" y="714" type="curve" smooth="yes"/>
      <point x="45" y="714" type="line"/>
      <point x="10" y="560" type="line"/>
      <point x="25" y="560" type="line" smooth="yes"/>
      <point x="71" y="560"/>
      <point x="96" y="587"/>
      <point x="110" y="639" type="curve"/>
      <point x="116" y="639" type="line" smooth="yes"/>
      <point x="154" y="639"/>
      <point x="179" y="615"/>
      <point x="179" y="521" type="curve" smooth="yes"/>
    </contour>
  </outline>
</glyph>
<glyph name="zha.eth" format="2">
  <advance width="675"/>
  <unicode hex="12E0"/>
  <note>
uni12E0
</note>
  <anchor x="337" y="714" name="top"/>
  <outline>
    <contour>
      <point x="179" y="0" type="line"/>
      <point x="263" y="0" type="line"/>
      <point x="263" y="335" type="line"/>
      <point x="412" y="335" type="line"/>
      <point x="412" y="0" type="line"/>
      <point x="496" y="0" type="line"/>
      <point x="496" y="521" type="line" smooth="yes"/>
      <point x="496" y="615"/>
      <point x="521" y="639"/>
      <point x="559" y="639" type="curve" smooth="yes"/>
      <point x="565" y="639" type="line"/>
      <point x="579" y="587"/>
      <point x="604" y="560"/>
      <point x="650" y="560" type="curve" smooth="yes"/>
      <point x="665" y="560" type="line"/>
      <point x="630" y="714" type="line"/>
      <point x="556" y="714" type="line" smooth="yes"/>
      <point x="455" y="714"/>
      <point x="412" y="660"/>
      <point x="412" y="531" type="curve" smooth="yes"/>
      <point x="412" y="411" type="line"/>
      <point x="263" y="411" type="line"/>
      <point x="263" y="531" type="line" smooth="yes"/>
      <point x="263" y="660"/>
      <point x="220" y="714"/>
      <point x="119" y="714" type="curve" smooth="yes"/>
      <point x="45" y="714" type="line"/>
      <point x="10" y="560" type="line"/>
      <point x="25" y="560" type="line" smooth="yes"/>
      <point x="71" y="560"/>
      <point x="96" y="587"/>
      <point x="110" y="639" type="curve"/>
      <point x="116" y="639" type="line" smooth="yes"/>
      <point x="154" y="639"/>
      <point x="179" y="615"/>
      <point x="179" y="521" type="curve" smooth="yes"/>
    </contour>
  </outline>
</glyph>
<glyph name="zhe.eth" format="2">
  <advance width="717"/>
  <unicode hex="12E5"/>
  <note>
uni12E5
</note>
  <anchor x="358" y="852" name="top"/>
  <outline>
    <contour>
      <point x="221" y="0" type="line"/>
      <point x="305" y="0" type="line"/>
      <point x="305" y="227" type="line"/>
      <point x="454" y="227" type="line"/>
      <point x="454" y="0" type="line"/>
      <point x="538" y="0" type="line"/>
      <point x="538" y="353" type="line" smooth="yes"/>
      <point x="538" y="447"/>
      <point x="563" y="471"/>
      <point x="601" y="471" type="curve" smooth="yes"/>
      <point x="607" y="471" type="line"/>
      <point x="621" y="419"/>
      <point x="646" y="392"/>
      <point x="692" y="392" type="curve" smooth="yes"/>
      <point x="707" y="392" type="line"/>
      <point x="672" y="546" type="line"/>
      <point x="598" y="546" type="line" smooth="yes"/>
      <point x="497" y="546"/>
      <point x="454" y="492"/>
      <point x="454" y="363" type="curve" smooth="yes"/>
      <point x="454" y="303" type="line"/>
      <point x="305" y="303" type="line"/>
      <point x="305" y="363" type="line" smooth="yes"/>
      <point x="305" y="492"/>
      <point x="262" y="546"/>
      <point x="161" y="546" type="curve" smooth="yes"/>
      <point x="87" y="546" type="line"/>
      <point x="52" y="392" type="line"/>
      <point x="67" y="392" type="line" smooth="yes"/>
      <point x="113" y="392"/>
      <point x="138" y="419"/>
      <point x="152" y="471" type="curve"/>
      <point x="158" y="471" type="line" smooth="yes"/>
      <point x="196" y="471"/>
      <point x="221" y="447"/>
      <point x="221" y="353" type="curve" smooth="yes"/>
    </contour>
    <contour>
      <point x="271" y="437" type="line"/>
      <point x="271" y="726" type="line"/>
      <point x="187" y="726" type="line"/>
      <point x="187" y="499" type="line"/>
    </contour>
    <component base="footshort" xScale="-1" yScale="-1" xOffset="448" yOffset="773"/>
  </outline>
</glyph>
<glyph name="ya.eth" format="2">
  <advance width="386"/>
  <unicode hex="12E8"/>
  <note>
uni12E8
</note>
  <anchor x="200" y="724" name="top"/>
  <outline>
    <contour>
      <point x="155" y="0" type="line"/>
      <point x="239" y="0" type="line"/>
      <point x="239" y="107" type="line" smooth="yes"/>
      <point x="239" y="208"/>
      <point x="229" y="258"/>
      <point x="199" y="337" type="curve"/>
      <point x="289" y="367"/>
      <point x="361" y="438"/>
      <point x="361" y="555" type="curve" smooth="yes"/>
      <point x="361" y="656"/>
      <point x="307" y="724"/>
      <point x="203" y="724" type="curve" smooth="yes"/>
      <point x="104" y="724"/>
      <point x="40" y="663"/>
      <point x="40" y="549" type="curve" smooth="yes"/>
      <point x="40" y="469"/>
      <point x="72" y="413"/>
      <point x="104" y="348" type="curve" smooth="yes"/>
      <point x="142" y="271"/>
      <point x="155" y="196"/>
      <point x="155" y="93" type="curve" smooth="yes"/>
    </contour>
    <contour>
      <point x="170" y="406" type="curve"/>
      <point x="145" y="451"/>
      <point x="123" y="498"/>
      <point x="123" y="554" type="curve" smooth="yes"/>
      <point x="123" y="619"/>
      <point x="155" y="657"/>
      <point x="201" y="657" type="curve" smooth="yes"/>
      <point x="251" y="657"/>
      <point x="277" y="619"/>
      <point x="277" y="555" type="curve" smooth="yes"/>
      <point x="277" y="473"/>
      <point x="235" y="426"/>
    </contour>
  </outline>
</glyph>
<glyph name="yi.eth" format="2">
  <advance width="541"/>
  <unicode hex="12EA"/>
  <note>
uni12EA
</note>
  <anchor x="285" y="724" name="top"/>
  <outline>
    <contour>
      <point x="514" y="2" type="curve" smooth="yes"/>
      <point x="531" y="2" type="line"/>
      <point x="496" y="156" type="line"/>
      <point x="321" y="156" type="line"/>
      <point x="321" y="81" type="line"/>
      <point x="431" y="81" type="line"/>
      <point x="446" y="27"/>
      <point x="472" y="2"/>
    </contour>
    <contour>
      <point x="188" y="165" type="line"/>
      <point x="357" y="165" type="line"/>
      <point x="357" y="240" type="line"/>
      <point x="188" y="240" type="line"/>
    </contour>
    <contour>
      <point x="321" y="81" type="line"/>
      <point x="406" y="81" type="line"/>
      <point x="406" y="313" type="line"/>
      <point x="321" y="313" type="line"/>
    </contour>
    <component base="ya.eth"/>
  </outline>
</glyph>
<glyph name="ye.eth" format="2">
  <advance width="553"/>
  <unicode hex="12ED"/>
  <note>
uni12ED
</note>
  <anchor x="276" y="725" name="top"/>
  <outline>
    <contour>
      <point x="360" y="0" type="curve" smooth="yes"/>
      <point x="471" y="0"/>
      <point x="533" y="83"/>
      <point x="533" y="237" type="curve" smooth="yes"/>
      <point x="533" y="264" type="line"/>
      <point x="449" y="264" type="line"/>
      <point x="449" y="228" type="line" smooth="yes"/>
      <point x="449" y="136"/>
      <point x="423" y="75"/>
      <point x="359" y="75" type="curve" smooth="yes"/>
      <point x="266" y="75"/>
      <point x="203" y="207"/>
      <point x="192" y="398" type="curve"/>
      <point x="358" y="398"/>
      <point x="427" y="477"/>
      <point x="427" y="577" type="curve" smooth="yes"/>
      <point x="427" y="660"/>
      <point x="379" y="725"/>
      <point x="280" y="725" type="curve" smooth="yes"/>
      <point x="172" y="725"/>
      <point x="102" y="647"/>
      <point x="102" y="434" type="curve" smooth="yes"/>
      <point x="102" y="194"/>
      <point x="191" y="0"/>
    </contour>
    <contour>
      <point x="168" y="0" type="line"/>
      <point x="358" y="0" type="line"/>
      <point x="283" y="75" type="line"/>
      <point x="168" y="75" type="line"/>
    </contour>
    <contour>
      <point x="186" y="462" type="curve"/>
      <point x="185" y="471"/>
      <point x="185" y="475"/>
      <point x="185" y="480" type="curve" smooth="yes"/>
      <point x="185" y="589"/>
      <point x="211" y="661"/>
      <point x="278" y="661" type="curve" smooth="yes"/>
      <point x="320" y="661"/>
      <point x="344" y="632"/>
      <point x="344" y="579" type="curve" smooth="yes"/>
      <point x="344" y="495"/>
      <point x="285" y="463"/>
    </contour>
    <component base="leftsingleflag" xOffset="10" yOffset="-331"/>
  </outline>
</glyph>
<glyph name="da.eth" format="2">
  <advance width="508"/>
  <unicode hex="12F0"/>
  <note>
uni12F0
</note>
  <anchor x="254" y="725" name="top"/>
  <outline>
    <contour>
      <point x="217" y="149" type="curve"/>
      <point x="315" y="149" type="line"/>
      <point x="270" y="201"/>
      <point x="231" y="285"/>
      <point x="222" y="396" type="curve"/>
      <point x="385" y="396"/>
      <point x="451" y="475"/>
      <point x="451" y="577" type="curve" smooth="yes"/>
      <point x="451" y="659"/>
      <point x="409" y="725"/>
      <point x="313" y="725" type="curve" smooth="yes"/>
      <point x="202" y="725"/>
      <point x="132" y="638"/>
      <point x="132" y="454" type="curve" smooth="yes"/>
      <point x="132" y="326"/>
      <point x="166" y="220"/>
    </contour>
    <contour>
      <point x="216" y="462" type="curve"/>
      <point x="215" y="466"/>
      <point x="215" y="472"/>
      <point x="215" y="476" type="curve" smooth="yes"/>
      <point x="215" y="590"/>
      <point x="247" y="659"/>
      <point x="308" y="659" type="curve" smooth="yes"/>
      <point x="346" y="659"/>
      <point x="372" y="632"/>
      <point x="372" y="577" type="curve" smooth="yes"/>
      <point x="372" y="495"/>
      <point x="315" y="463"/>
    </contour>
    <component base="footmiddle" yOffset="79"/>
  </outline>
</glyph>
<glyph name="daa.eth" format="2">
  <advance width="588"/>
  <unicode hex="12F3"/>
  <note>
uni12F3
</note>
  <anchor x="268" y="725" name="top"/>
  <outline>
    <contour>
      <point x="312" y="245" type="curve"/>
      <point x="429" y="285" type="line"/>
      <point x="301" y="293"/>
      <point x="238" y="389"/>
      <point x="238" y="526" type="curve" smooth="yes"/>
      <point x="238" y="611"/>
      <point x="262" y="659"/>
      <point x="310" y="659" type="curve" smooth="yes"/>
      <point x="347" y="659"/>
      <point x="369" y="630"/>
      <point x="369" y="579" type="curve" smooth="yes"/>
      <point x="369" y="505"/>
      <point x="322" y="470"/>
      <point x="227" y="470" type="curve"/>
      <point x="255" y="404" type="line"/>
      <point x="392" y="405"/>
      <point x="455" y="488"/>
      <point x="455" y="579" type="curve" smooth="yes"/>
      <point x="455" y="649"/>
      <point x="417" y="725"/>
      <point x="313" y="725" type="curve" smooth="yes"/>
      <point x="208" y="725"/>
      <point x="149" y="648"/>
      <point x="149" y="517" type="curve" smooth="yes"/>
      <point x="149" y="373"/>
      <point x="221" y="264"/>
    </contour>
    <contour>
      <point x="442" y="0" type="line"/>
      <point x="526" y="0" type="line"/>
      <point x="526" y="285" type="line"/>
      <point x="153" y="285" type="line"/>
      <point x="153" y="210" type="line"/>
      <point x="442" y="210" type="line"/>
    </contour>
    <component base="leftsingleflag" yOffset="-121"/>
  </outline>
</glyph>
<glyph name="dee.eth" format="2">
  <advance width="603"/>
  <unicode hex="12F4"/>
  <note>
uni12F4
</note>
  <anchor x="298" y="725" name="top"/>
  <outline>
    <contour>
      <point x="137" y="137" type="line"/>
      <point x="398" y="137" type="line"/>
      <point x="466" y="212" type="line"/>
      <point x="323" y="212" type="line"/>
      <point x="282" y="248"/>
      <point x="236" y="326"/>
      <point x="221" y="403" type="curve"/>
      <point x="377" y="403"/>
      <point x="445" y="479"/>
      <point x="445" y="581" type="curve" smooth="yes"/>
      <point x="445" y="656"/>
      <point x="401" y="725"/>
      <point x="301" y="725" type="curve" smooth="yes"/>
      <point x="190" y="725"/>
      <point x="120" y="647"/>
      <point x="120" y="482" type="curve" smooth="yes"/>
      <point x="120" y="364"/>
      <point x="165" y="267"/>
      <point x="210" y="212" type="curve"/>
      <point x="137" y="212" type="line"/>
    </contour>
    <contour>
      <point x="211" y="470" type="curve"/>
      <point x="209" y="480"/>
      <point x="209" y="488"/>
      <point x="209" y="494" type="curve" smooth="yes"/>
      <point x="209" y="603"/>
      <point x="238" y="661"/>
      <point x="296" y="661" type="curve" smooth="yes"/>
      <point x="334" y="661"/>
      <point x="359" y="632"/>
      <point x="359" y="583" type="curve" smooth="yes"/>
      <point x="359" y="502"/>
      <point x="306" y="471"/>
    </contour>
    <component base="ballsmall" xOffset="332" yOffset="-212"/>
    <component base="leftsingleflag" yOffset="-194"/>
  </outline>
</glyph>
<glyph name="do.eth" format="2">
  <advance width="479"/>
  <unicode hex="12F6"/>
  <note>
uni12F6
</note>
  <anchor x="239" y="725" name="top"/>
  <outline>
    <contour>
      <point x="234" y="245" type="curve"/>
      <point x="351" y="285" type="line"/>
      <point x="223" y="293"/>
      <point x="160" y="389"/>
      <point x="160" y="526" type="curve" smooth="yes"/>
      <point x="160" y="611"/>
      <point x="184" y="659"/>
      <point x="232" y="659" type="curve" smooth="yes"/>
      <point x="269" y="659"/>
      <point x="291" y="630"/>
      <point x="291" y="579" type="curve" smooth="yes"/>
      <point x="291" y="505"/>
      <point x="244" y="470"/>
      <point x="149" y="470" type="curve"/>
      <point x="177" y="404" type="line"/>
      <point x="314" y="405"/>
      <point x="377" y="488"/>
      <point x="377" y="579" type="curve" smooth="yes"/>
      <point x="377" y="649"/>
      <point x="339" y="725"/>
      <point x="235" y="725" type="curve" smooth="yes"/>
      <point x="130" y="725"/>
      <point x="71" y="648"/>
      <point x="71" y="517" type="curve" smooth="yes"/>
      <point x="71" y="373"/>
      <point x="143" y="264"/>
    </contour>
    <contour>
      <point x="10" y="0" type="line"/>
      <point x="91" y="0" type="line"/>
      <point x="91" y="108" type="line" smooth="yes"/>
      <point x="91" y="188"/>
      <point x="107" y="210"/>
      <point x="168" y="210" type="curve" smooth="yes"/>
      <point x="331" y="210" type="line"/>
      <point x="331" y="285" type="line"/>
      <point x="156" y="285" type="line" smooth="yes"/>
      <point x="53" y="285"/>
      <point x="10" y="226"/>
      <point x="10" y="112" type="curve" smooth="yes"/>
    </contour>
    <component base="rightsingleflag" xOffset="239" yOffset="-121"/>
  </outline>
</glyph>
<glyph name="dwa.eth" format="2">
  <advance width="644"/>
  <unicode hex="12F7"/>
  <note>
uni12F7
</note>
  <anchor x="322" y="725" name="top"/>
  <outline>
    <contour>
      <point x="294" y="245" type="curve"/>
      <point x="411" y="285" type="line"/>
      <point x="283" y="293"/>
      <point x="220" y="389"/>
      <point x="220" y="526" type="curve" smooth="yes"/>
      <point x="220" y="611"/>
      <point x="244" y="659"/>
      <point x="292" y="659" type="curve" smooth="yes"/>
      <point x="329" y="659"/>
      <point x="351" y="630"/>
      <point x="351" y="579" type="curve" smooth="yes"/>
      <point x="351" y="505"/>
      <point x="304" y="470"/>
      <point x="209" y="470" type="curve"/>
      <point x="237" y="404" type="line"/>
      <point x="374" y="405"/>
      <point x="437" y="488"/>
      <point x="437" y="579" type="curve" smooth="yes"/>
      <point x="437" y="649"/>
      <point x="399" y="725"/>
      <point x="295" y="725" type="curve" smooth="yes"/>
      <point x="190" y="725"/>
      <point x="131" y="648"/>
      <point x="131" y="517" type="curve" smooth="yes"/>
      <point x="131" y="373"/>
      <point x="203" y="264"/>
    </contour>
    <contour>
      <point x="399" y="0" type="line"/>
      <point x="483" y="0" type="line"/>
      <point x="483" y="285" type="line"/>
      <point x="161" y="285" type="line"/>
      <point x="161" y="210" type="line"/>
      <point x="399" y="210" type="line"/>
    </contour>
    <component base="leftsingleflag" yOffset="-121"/>
    <component base="footright" xOffset="171"/>
  </outline>
</glyph>
<glyph name="dda.eth" format="2">
  <advance width="508"/>
  <unicode hex="12F8"/>
  <note>
uni12F8
</note>
  <anchor x="254" y="760" name="top"/>
  <outline>
    <contour>
      <point x="203" y="149" type="curve"/>
      <point x="300" y="149" type="line"/>
      <point x="265" y="189"/>
      <point x="232" y="249"/>
      <point x="219" y="315" type="curve"/>
      <point x="376" y="315"/>
      <point x="432" y="388"/>
      <point x="432" y="484" type="curve" smooth="yes"/>
      <point x="432" y="561"/>
      <point x="382" y="628"/>
      <point x="287" y="628" type="curve" smooth="yes"/>
      <point x="181" y="628"/>
      <point x="117" y="550"/>
      <point x="117" y="389" type="curve" smooth="yes"/>
      <point x="117" y="293"/>
      <point x="159" y="201"/>
    </contour>
    <contour>
      <point x="204" y="382" type="curve"/>
      <point x="203" y="387"/>
      <point x="202" y="393"/>
      <point x="202" y="397" type="curve" smooth="yes"/>
      <point x="202" y="502"/>
      <point x="230" y="563"/>
      <point x="285" y="563" type="curve" smooth="yes"/>
      <point x="322" y="563"/>
      <point x="347" y="537"/>
      <point x="347" y="485" type="curve" smooth="yes"/>
      <point x="347" y="411"/>
      <point x="302" y="383"/>
    </contour>
    <contour>
      <point x="240" y="602" type="line"/>
      <point x="324" y="602" type="line"/>
      <point x="324" y="760" type="line"/>
      <point x="240" y="760" type="line"/>
    </contour>
    <component base="footmiddle" yOffset="79"/>
  </outline>
</glyph>
<glyph name="ddaa.eth" format="2">
  <advance width="597"/>
  <unicode hex="12FB"/>
  <note>
uni12FB
</note>
  <anchor x="273" y="760" name="top"/>
  <outline>
    <contour>
      <point x="319" y="220" type="curve"/>
      <point x="437" y="256" type="line"/>
      <point x="309" y="263"/>
      <point x="238" y="332"/>
      <point x="238" y="455" type="curve" smooth="yes"/>
      <point x="238" y="530"/>
      <point x="265" y="576"/>
      <point x="314" y="576" type="curve" smooth="yes"/>
      <point x="353" y="576"/>
      <point x="374" y="548"/>
      <point x="374" y="505" type="curve" smooth="yes"/>
      <point x="374" y="437"/>
      <point x="328" y="403"/>
      <point x="229" y="403" type="curve"/>
      <point x="258" y="338" type="line"/>
      <point x="393" y="338"/>
      <point x="461" y="415"/>
      <point x="461" y="505" type="curve" smooth="yes"/>
      <point x="461" y="568"/>
      <point x="421" y="643"/>
      <point x="317" y="643" type="curve" smooth="yes"/>
      <point x="208" y="643"/>
      <point x="149" y="563"/>
      <point x="149" y="454" type="curve" smooth="yes"/>
      <point x="149" y="313"/>
      <point x="227" y="240"/>
    </contour>
    <contour>
      <point x="453" y="0" type="line"/>
      <point x="537" y="0" type="line"/>
      <point x="537" y="259" type="line"/>
      <point x="147" y="259" type="line"/>
      <point x="147" y="184" type="line"/>
      <point x="453" y="184" type="line"/>
    </contour>
    <contour>
      <point x="274" y="605" type="line"/>
      <point x="358" y="605" type="line"/>
      <point x="358" y="760" type="line"/>
      <point x="274" y="760" type="line"/>
    </contour>
    <component base="leftsingleflag" yOffset="-147"/>
  </outline>
</glyph>
<glyph name="ddee.eth" format="2">
  <advance width="585"/>
  <unicode hex="12FC"/>
  <note>
uni12FC
</note>
  <anchor x="289" y="760" name="top"/>
  <outline>
    <contour>
      <point x="210" y="210" type="curve"/>
      <point x="331" y="210" type="line"/>
      <point x="297" y="238"/>
      <point x="265" y="293"/>
      <point x="253" y="343" type="curve"/>
      <point x="386" y="343"/>
      <point x="455" y="406"/>
      <point x="455" y="507" type="curve" smooth="yes"/>
      <point x="455" y="573"/>
      <point x="410" y="642"/>
      <point x="310" y="642" type="curve" smooth="yes"/>
      <point x="203" y="642"/>
      <point x="141" y="563"/>
      <point x="141" y="426" type="curve" smooth="yes"/>
      <point x="141" y="322"/>
      <point x="177" y="250"/>
    </contour>
    <contour>
      <point x="214" y="137" type="line"/>
      <point x="400" y="137" type="line"/>
      <point x="453" y="212" type="line"/>
      <point x="214" y="212" type="line"/>
    </contour>
    <contour>
      <point x="233" y="406" type="curve"/>
      <point x="231" y="413"/>
      <point x="229" y="421"/>
      <point x="229" y="431" type="curve" smooth="yes"/>
      <point x="229" y="517"/>
      <point x="255" y="578"/>
      <point x="307" y="578" type="curve" smooth="yes"/>
      <point x="345" y="578"/>
      <point x="369" y="549"/>
      <point x="369" y="505" type="curve" smooth="yes"/>
      <point x="369" y="436"/>
      <point x="321" y="407"/>
    </contour>
    <contour>
      <point x="260" y="619" type="line"/>
      <point x="344" y="619" type="line"/>
      <point x="344" y="760" type="line"/>
      <point x="260" y="760" type="line"/>
    </contour>
    <component base="ballsmall" xOffset="314" yOffset="-212"/>
    <component base="leftsingleflag" yOffset="-194"/>
  </outline>
</glyph>
<glyph name="ddo.eth" format="2">
  <advance width="482"/>
  <unicode hex="12FE"/>
  <note>
uni12FE
</note>
  <anchor x="241" y="760" name="top"/>
  <outline>
    <contour>
      <point x="234" y="148" type="curve"/>
      <point x="351" y="188" type="line"/>
      <point x="223" y="196"/>
      <point x="160" y="292"/>
      <point x="160" y="429" type="curve" smooth="yes"/>
      <point x="160" y="510"/>
      <point x="184" y="556"/>
      <point x="232" y="556" type="curve" smooth="yes"/>
      <point x="269" y="556"/>
      <point x="291" y="529"/>
      <point x="291" y="482" type="curve" smooth="yes"/>
      <point x="291" y="408"/>
      <point x="244" y="373"/>
      <point x="149" y="373" type="curve"/>
      <point x="177" y="307" type="line"/>
      <point x="314" y="308"/>
      <point x="377" y="391"/>
      <point x="377" y="482" type="curve" smooth="yes"/>
      <point x="377" y="552"/>
      <point x="339" y="628"/>
      <point x="235" y="628" type="curve" smooth="yes"/>
      <point x="130" y="628"/>
      <point x="71" y="551"/>
      <point x="71" y="420" type="curve" smooth="yes"/>
      <point x="71" y="276"/>
      <point x="143" y="167"/>
    </contour>
    <contour>
      <point x="10" y="0" type="line"/>
      <point x="91" y="0" type="line"/>
      <point x="91" y="11" type="line" smooth="yes"/>
      <point x="91" y="91"/>
      <point x="107" y="113"/>
      <point x="168" y="113" type="curve" smooth="yes"/>
      <point x="331" y="113" type="line"/>
      <point x="331" y="188" type="line"/>
      <point x="156" y="188" type="line" smooth="yes"/>
      <point x="53" y="188"/>
      <point x="10" y="129"/>
      <point x="10" y="15" type="curve" smooth="yes"/>
    </contour>
    <contour>
      <point x="187" y="602" type="line"/>
      <point x="271" y="602" type="line"/>
      <point x="271" y="760" type="line"/>
      <point x="187" y="760" type="line"/>
    </contour>
    <component base="rightsingleflag" xOffset="242" yOffset="-218"/>
  </outline>
</glyph>
<glyph name="ddwa.eth" format="2">
  <advance width="638"/>
  <unicode hex="12FF"/>
  <note>
uni12FF
</note>
  <anchor x="319" y="760" name="top"/>
  <outline>
    <contour>
      <point x="296" y="220" type="curve"/>
      <point x="414" y="256" type="line"/>
      <point x="286" y="263"/>
      <point x="215" y="332"/>
      <point x="215" y="455" type="curve" smooth="yes"/>
      <point x="215" y="530"/>
      <point x="242" y="576"/>
      <point x="291" y="576" type="curve" smooth="yes"/>
      <point x="330" y="576"/>
      <point x="351" y="548"/>
      <point x="351" y="505" type="curve" smooth="yes"/>
      <point x="351" y="437"/>
      <point x="305" y="403"/>
      <point x="206" y="403" type="curve"/>
      <point x="235" y="338" type="line"/>
      <point x="370" y="338"/>
      <point x="438" y="415"/>
      <point x="438" y="505" type="curve" smooth="yes"/>
      <point x="438" y="568"/>
      <point x="398" y="643"/>
      <point x="294" y="643" type="curve" smooth="yes"/>
      <point x="185" y="643"/>
      <point x="126" y="563"/>
      <point x="126" y="454" type="curve" smooth="yes"/>
      <point x="126" y="313"/>
      <point x="204" y="240"/>
    </contour>
    <contour>
      <point x="400" y="0" type="line"/>
      <point x="484" y="0" type="line"/>
      <point x="484" y="259" type="line"/>
      <point x="124" y="259" type="line"/>
      <point x="124" y="184" type="line"/>
      <point x="400" y="184" type="line"/>
    </contour>
    <contour>
      <point x="251" y="605" type="line"/>
      <point x="335" y="605" type="line"/>
      <point x="335" y="760" type="line"/>
      <point x="251" y="760" type="line"/>
    </contour>
    <component base="footright" xOffset="165"/>
    <component base="leftsingleflag" yOffset="-147"/>
  </outline>
</glyph>
<glyph name="ja.eth" format="2">
  <advance width="508"/>
  <unicode hex="1300"/>
  <note>
uni1300
</note>
  <anchor x="254" y="805" name="top"/>
  <outline>
    <contour>
      <point x="177" y="151" type="curve"/>
      <point x="276" y="151" type="line"/>
      <point x="242" y="190"/>
      <point x="213" y="233"/>
      <point x="197" y="286" type="curve"/>
      <point x="354" y="286"/>
      <point x="404" y="358"/>
      <point x="404" y="454" type="curve" smooth="yes"/>
      <point x="404" y="530"/>
      <point x="356" y="597"/>
      <point x="259" y="597" type="curve" smooth="yes"/>
      <point x="151" y="597"/>
      <point x="89" y="519"/>
      <point x="89" y="379" type="curve" smooth="yes"/>
      <point x="89" y="276"/>
      <point x="136" y="195"/>
    </contour>
    <contour>
      <point x="177" y="353" type="curve"/>
      <point x="175" y="360"/>
      <point x="174" y="371"/>
      <point x="174" y="377" type="curve" smooth="yes"/>
      <point x="174" y="477"/>
      <point x="202" y="529"/>
      <point x="257" y="529" type="curve" smooth="yes"/>
      <point x="294" y="529"/>
      <point x="319" y="504"/>
      <point x="319" y="455" type="curve" smooth="yes"/>
      <point x="319" y="381"/>
      <point x="274" y="354"/>
    </contour>
    <contour>
      <point x="206" y="571" type="line"/>
      <point x="290" y="571" type="line"/>
      <point x="290" y="692" type="line"/>
      <point x="206" y="692" type="line"/>
    </contour>
    <component base="footmiddle" yOffset="78"/>
    <component base="bonemiddle" xOffset="9" yOffset="-47"/>
  </outline>
</glyph>
<glyph name="jaa.eth" format="2">
  <advance width="583"/>
  <unicode hex="1303"/>
  <note>
uni1303
</note>
  <anchor x="281" y="807" name="top"/>
  <outline>
    <contour>
      <point x="319" y="187" type="curve"/>
      <point x="437" y="224" type="line"/>
      <point x="309" y="231"/>
      <point x="238" y="301"/>
      <point x="238" y="423" type="curve" smooth="yes"/>
      <point x="238" y="498"/>
      <point x="265" y="544"/>
      <point x="314" y="544" type="curve" smooth="yes"/>
      <point x="354" y="544"/>
      <point x="374" y="516"/>
      <point x="374" y="473" type="curve" smooth="yes"/>
      <point x="374" y="405"/>
      <point x="333" y="371"/>
      <point x="229" y="371" type="curve"/>
      <point x="258" y="306" type="line"/>
      <point x="393" y="306"/>
      <point x="461" y="383"/>
      <point x="461" y="473" type="curve" smooth="yes"/>
      <point x="461" y="536"/>
      <point x="421" y="610"/>
      <point x="317" y="610" type="curve" smooth="yes"/>
      <point x="208" y="610"/>
      <point x="149" y="531"/>
      <point x="149" y="422" type="curve" smooth="yes"/>
      <point x="149" y="291"/>
      <point x="227" y="207"/>
    </contour>
    <contour>
      <point x="449" y="0" type="line"/>
      <point x="533" y="0" type="line"/>
      <point x="533" y="226" type="line"/>
      <point x="147" y="226" type="line"/>
      <point x="147" y="151" type="line"/>
      <point x="449" y="151" type="line"/>
    </contour>
    <contour>
      <point x="271" y="573" type="line"/>
      <point x="355" y="573" type="line"/>
      <point x="355" y="690" type="line"/>
      <point x="271" y="690" type="line"/>
    </contour>
    <component base="leftsingleflag" yOffset="-180"/>
    <component base="bonelong" xOffset="37" yOffset="-45"/>
  </outline>
</glyph>
<glyph name="jee.eth" format="2">
  <advance width="626"/>
  <unicode hex="1304"/>
  <note>
uni1304
</note>
  <anchor x="309" y="806" name="top"/>
  <outline>
    <contour>
      <point x="319" y="186" type="curve"/>
      <point x="437" y="223" type="line"/>
      <point x="309" y="230"/>
      <point x="238" y="300"/>
      <point x="238" y="422" type="curve" smooth="yes"/>
      <point x="238" y="497"/>
      <point x="265" y="543"/>
      <point x="314" y="543" type="curve" smooth="yes"/>
      <point x="354" y="543"/>
      <point x="374" y="515"/>
      <point x="374" y="472" type="curve" smooth="yes"/>
      <point x="374" y="404"/>
      <point x="333" y="370"/>
      <point x="229" y="370" type="curve"/>
      <point x="258" y="305" type="line"/>
      <point x="393" y="305"/>
      <point x="461" y="382"/>
      <point x="461" y="472" type="curve" smooth="yes"/>
      <point x="461" y="535"/>
      <point x="421" y="609"/>
      <point x="317" y="609" type="curve" smooth="yes"/>
      <point x="208" y="609"/>
      <point x="149" y="530"/>
      <point x="149" y="421" type="curve" smooth="yes"/>
      <point x="149" y="290"/>
      <point x="227" y="206"/>
    </contour>
    <contour>
      <point x="147" y="150" type="line"/>
      <point x="421" y="150" type="line"/>
      <point x="485" y="225" type="line"/>
      <point x="147" y="225" type="line"/>
    </contour>
    <contour>
      <point x="271" y="572" type="line"/>
      <point x="355" y="572" type="line"/>
      <point x="355" y="689" type="line"/>
      <point x="271" y="689" type="line"/>
    </contour>
    <component base="ballsmall" xOffset="355" yOffset="-199"/>
    <component base="leftsingleflag" yOffset="-181"/>
    <component base="bonelong" xOffset="44" yOffset="-46"/>
  </outline>
</glyph>
<glyph name="jo.eth" format="2">
  <advance width="526"/>
  <unicode hex="1306"/>
  <note>
uni1306
</note>
  <anchor x="263" y="807" name="top"/>
  <outline>
    <contour>
      <point x="274" y="187" type="curve"/>
      <point x="392" y="224" type="line"/>
      <point x="264" y="231"/>
      <point x="193" y="301"/>
      <point x="193" y="423" type="curve" smooth="yes"/>
      <point x="193" y="498"/>
      <point x="220" y="544"/>
      <point x="269" y="544" type="curve" smooth="yes"/>
      <point x="309" y="544"/>
      <point x="329" y="516"/>
      <point x="329" y="473" type="curve" smooth="yes"/>
      <point x="329" y="405"/>
      <point x="288" y="371"/>
      <point x="184" y="371" type="curve"/>
      <point x="213" y="306" type="line"/>
      <point x="348" y="306"/>
      <point x="416" y="383"/>
      <point x="416" y="473" type="curve" smooth="yes"/>
      <point x="416" y="536"/>
      <point x="376" y="610"/>
      <point x="272" y="610" type="curve" smooth="yes"/>
      <point x="163" y="610"/>
      <point x="104" y="531"/>
      <point x="104" y="422" type="curve" smooth="yes"/>
      <point x="104" y="291"/>
      <point x="182" y="207"/>
    </contour>
    <contour>
      <point x="15" y="0" type="line"/>
      <point x="96" y="0" type="line"/>
      <point x="96" y="51" type="line" smooth="yes"/>
      <point x="96" y="112"/>
      <point x="112" y="149"/>
      <point x="173" y="149" type="curve" smooth="yes"/>
      <point x="336" y="149" type="line"/>
      <point x="336" y="224" type="line"/>
      <point x="161" y="224" type="line" smooth="yes"/>
      <point x="58" y="224"/>
      <point x="15" y="165"/>
      <point x="15" y="51" type="curve" smooth="yes"/>
    </contour>
    <contour>
      <point x="226" y="573" type="line"/>
      <point x="310" y="573" type="line"/>
      <point x="310" y="690" type="line"/>
      <point x="226" y="690" type="line"/>
    </contour>
    <component base="bonelong" yOffset="-45"/>
    <component base="rightsingleflag" xOffset="279" yOffset="-182"/>
  </outline>
</glyph>
<glyph name="jwa.eth" format="2">
  <advance width="705"/>
  <unicode hex="1307"/>
  <note>
uni1307
</note>
  <anchor x="352" y="807" name="top"/>
  <outline>
    <contour>
      <point x="319" y="187" type="curve"/>
      <point x="437" y="224" type="line"/>
      <point x="309" y="231"/>
      <point x="238" y="301"/>
      <point x="238" y="423" type="curve" smooth="yes"/>
      <point x="238" y="498"/>
      <point x="265" y="544"/>
      <point x="314" y="544" type="curve" smooth="yes"/>
      <point x="354" y="544"/>
      <point x="374" y="516"/>
      <point x="374" y="473" type="curve" smooth="yes"/>
      <point x="374" y="405"/>
      <point x="333" y="371"/>
      <point x="229" y="371" type="curve"/>
      <point x="258" y="306" type="line"/>
      <point x="393" y="306"/>
      <point x="461" y="383"/>
      <point x="461" y="473" type="curve" smooth="yes"/>
      <point x="461" y="536"/>
      <point x="421" y="610"/>
      <point x="317" y="610" type="curve" smooth="yes"/>
      <point x="208" y="610"/>
      <point x="149" y="531"/>
      <point x="149" y="422" type="curve" smooth="yes"/>
      <point x="149" y="291"/>
      <point x="227" y="207"/>
    </contour>
    <contour>
      <point x="439" y="0" type="line"/>
      <point x="523" y="0" type="line"/>
      <point x="523" y="226" type="line"/>
      <point x="147" y="226" type="line"/>
      <point x="147" y="151" type="line"/>
      <point x="439" y="151" type="line"/>
    </contour>
    <contour>
      <point x="271" y="573" type="line"/>
      <point x="355" y="573" type="line"/>
      <point x="355" y="690" type="line"/>
      <point x="271" y="690" type="line"/>
    </contour>
    <component base="footright" xOffset="232"/>
    <component base="leftsingleflag" yOffset="-180"/>
    <component base="bonelong" xOffset="48" yOffset="-45"/>
  </outline>
</glyph>
<glyph name="ga.eth" format="2">
  <advance width="484"/>
  <unicode hex="1308"/>
  <note>
uni1308
</note>
  <anchor x="208" y="714" name="top"/>
  <outline>
    <contour>
      <point x="322" y="0" type="line"/>
      <point x="406" y="0" type="line"/>
      <point x="406" y="404" type="line" smooth="yes"/>
      <point x="406" y="657"/>
      <point x="315" y="714"/>
      <point x="124" y="714" type="curve" smooth="yes"/>
      <point x="45" y="714" type="line"/>
      <point x="10" y="560" type="line"/>
      <point x="26" y="560" type="line" smooth="yes"/>
      <point x="70" y="560"/>
      <point x="95" y="586"/>
      <point x="110" y="639" type="curve"/>
      <point x="123" y="639" type="line" smooth="yes"/>
      <point x="274" y="639"/>
      <point x="322" y="583"/>
      <point x="322" y="380" type="curve" smooth="yes"/>
    </contour>
  </outline>
</glyph>
<glyph name="gaa.eth" format="2">
  <advance width="488"/>
  <unicode hex="130B"/>
  <note>
uni130B
</note>
  <anchor x="210" y="714" name="top"/>
  <outline>
    <contour>
      <point x="10" y="-79" type="line"/>
      <point x="25" y="-79" type="line" smooth="yes"/>
      <point x="70" y="-79"/>
      <point x="96" y="-51"/>
      <point x="110" y="0" type="curve"/>
      <point x="206" y="0" type="line" smooth="yes"/>
      <point x="346" y="0"/>
      <point x="410" y="78"/>
      <point x="410" y="223" type="curve" smooth="yes"/>
      <point x="410" y="404" type="line" smooth="yes"/>
      <point x="410" y="657"/>
      <point x="320" y="714"/>
      <point x="127" y="714" type="curve" smooth="yes"/>
      <point x="48" y="714" type="line"/>
      <point x="13" y="560" type="line"/>
      <point x="29" y="560" type="line" smooth="yes"/>
      <point x="73" y="560"/>
      <point x="100" y="589"/>
      <point x="113" y="639" type="curve"/>
      <point x="124" y="639" type="line" smooth="yes"/>
      <point x="276" y="639"/>
      <point x="326" y="583"/>
      <point x="326" y="380" type="curve" smooth="yes"/>
      <point x="326" y="230" type="line" smooth="yes"/>
      <point x="326" y="106"/>
      <point x="300" y="75"/>
      <point x="197" y="75" type="curve" smooth="yes"/>
      <point x="45" y="75" type="line"/>
    </contour>
  </outline>
</glyph>
<glyph name="ge.eth" format="2">
  <advance width="615"/>
  <unicode hex="130D"/>
  <note>
uni130D
</note>
  <anchor x="278" y="714" name="top"/>
  <outline>
    <contour>
      <point x="453" y="0" type="line"/>
      <point x="537" y="0" type="line"/>
      <point x="537" y="404" type="line" smooth="yes"/>
      <point x="537" y="657"/>
      <point x="456" y="714"/>
      <point x="263" y="714" type="curve" smooth="yes"/>
      <point x="155" y="714" type="line"/>
      <point x="239" y="650" type="line"/>
      <point x="267" y="650" type="line" smooth="yes"/>
      <point x="409" y="650"/>
      <point x="453" y="592"/>
      <point x="453" y="380" type="curve" smooth="yes"/>
    </contour>
    <component base="ballbig" yOffset="279"/>
  </outline>
</glyph>
<glyph name="go.eth" format="2">
  <advance width="484"/>
  <unicode hex="130E"/>
  <note>
uni130E
</note>
  <anchor x="208" y="760" name="top"/>
  <outline>
    <contour>
      <point x="322" y="0" type="line"/>
      <point x="406" y="0" type="line"/>
      <point x="406" y="304" type="line" smooth="yes"/>
      <point x="406" y="556"/>
      <point x="315" y="613"/>
      <point x="124" y="613" type="curve" smooth="yes"/>
      <point x="45" y="613" type="line"/>
      <point x="10" y="459" type="line"/>
      <point x="26" y="459" type="line" smooth="yes"/>
      <point x="67" y="459"/>
      <point x="96" y="484"/>
      <point x="110" y="538" type="curve"/>
      <point x="123" y="538" type="line" smooth="yes"/>
      <point x="272" y="538"/>
      <point x="322" y="491"/>
      <point x="322" y="279" type="curve" smooth="yes"/>
    </contour>
    <contour>
      <point x="164" y="583" type="line"/>
      <point x="246" y="583" type="line"/>
      <point x="246" y="760" type="line"/>
      <point x="164" y="760" type="line"/>
    </contour>
  </outline>
</glyph>
<glyph name="goa.eth" format="2">
	<advance width="507"/>
	<unicode hex="130F"/>
	<anchor x="231" y="760" name="top"/>
	<note>
		uni130F
	</note>
	<outline>
		<contour>
			<point x="208" y="0" type="line"/>
			<point x="409" y="0" type="line"/>
			<point x="409" y="75" type="line"/>
			<point x="208" y="75" type="line"/>
		</contour>
		<component base="go.eth" xOffset="23"/>
		<component base="leftdoubleflag" xOffset="31"/>
	</outline>
</glyph>
<glyph name="gwi.eth" format="2">
  <advance width="728"/>
  <unicode hex="1312"/>
  <note>
uni1312
</note>
  <anchor x="364" y="714" name="top"/>
  <outline>
    <contour>
      <point x="701" y="231" type="curve" smooth="yes"/>
      <point x="718" y="231" type="line"/>
      <point x="683" y="385" type="line"/>
      <point x="508" y="385" type="line"/>
      <point x="508" y="310" type="line"/>
      <point x="618" y="310" type="line"/>
      <point x="633" y="256"/>
      <point x="659" y="231"/>
    </contour>
    <contour>
      <point x="375" y="394" type="line"/>
      <point x="544" y="394" type="line"/>
      <point x="544" y="469" type="line"/>
      <point x="375" y="469" type="line"/>
    </contour>
    <contour>
      <point x="508" y="310" type="line"/>
      <point x="593" y="310" type="line"/>
      <point x="593" y="542" type="line"/>
      <point x="508" y="542" type="line"/>
    </contour>
    <component base="ga.eth"/>
  </outline>
</glyph>
<glyph name="gwaa.eth" format="2">
  <advance width="463"/>
  <unicode hex="1313"/>
  <note>
uni1313
</note>
  <anchor x="197" y="682" name="top"/>
  <outline>
    <contour>
      <point x="304" y="0" type="line"/>
      <point x="385" y="0" type="line"/>
      <point x="385" y="183" type="line" smooth="yes"/>
      <point x="385" y="435"/>
      <point x="298" y="480"/>
      <point x="124" y="480" type="curve" smooth="yes"/>
      <point x="45" y="480" type="line"/>
      <point x="10" y="326" type="line"/>
      <point x="26" y="326" type="line" smooth="yes"/>
      <point x="72" y="326"/>
      <point x="97" y="355"/>
      <point x="110" y="405" type="curve"/>
      <point x="123" y="405" type="line" smooth="yes"/>
      <point x="258" y="405"/>
      <point x="304" y="353"/>
      <point x="304" y="159" type="curve" smooth="yes"/>
    </contour>
    <contour>
      <point x="236" y="407" type="line"/>
      <point x="318" y="407" type="line"/>
      <point x="318" y="434" type="line" smooth="yes"/>
      <point x="318" y="657"/>
      <point x="228" y="682"/>
      <point x="115" y="682" type="curve" smooth="yes"/>
      <point x="45" y="682" type="line"/>
      <point x="10" y="528" type="line"/>
      <point x="28" y="528" type="line" smooth="yes"/>
      <point x="72" y="528"/>
      <point x="97" y="558"/>
      <point x="110" y="607" type="curve"/>
      <point x="117" y="607" type="line" smooth="yes"/>
      <point x="200" y="607"/>
      <point x="236" y="574"/>
      <point x="236" y="431" type="curve" smooth="yes"/>
    </contour>
  </outline>
</glyph>
<glyph name="gwee.eth" format="2">
  <advance width="616"/>
  <unicode hex="1314"/>
  <note>
uni1314
</note>
  <anchor x="305" y="714" name="top"/>
  <outline>
    <contour>
      <point x="191" y="0" type="line"/>
      <point x="362" y="0" type="line"/>
      <point x="362" y="75" type="line"/>
      <point x="191" y="75" type="line"/>
    </contour>
    <component base="ga.eth"/>
    <component base="leftsingleflag" yOffset="-331"/>
    <component base="baselinebowl" xOffset="292"/>
  </outline>
</glyph>
<glyph name="gwe.eth" format="2">
  <advance width="755"/>
  <unicode hex="1315"/>
  <note>
uni1315
</note>
  <anchor x="377" y="714" name="top"/>
  <outline>
    <contour>
      <point x="522" y="358" type="line"/>
      <point x="600" y="358" type="line"/>
      <point x="600" y="594" type="line"/>
      <point x="522" y="594" type="line"/>
    </contour>
    <contour>
      <point x="387" y="358" type="line"/>
      <point x="556" y="358" type="line"/>
      <point x="556" y="433" type="line"/>
      <point x="387" y="433" type="line"/>
    </contour>
    <component base="ga.eth"/>
    <component base="rightsingleflag" xOffset="515" yOffset="27"/>
  </outline>
</glyph>
<glyph name="gga.eth" format="2">
  <advance width="524"/>
  <unicode hex="1318"/>
  <note>
uni1318
</note>
  <anchor x="228" y="793" name="top"/>
  <outline>
    <contour>
      <point x="352" y="0" type="line"/>
      <point x="436" y="0" type="line"/>
      <point x="436" y="201" type="line" smooth="yes"/>
      <point x="436" y="454"/>
      <point x="345" y="511"/>
      <point x="154" y="511" type="curve" smooth="yes"/>
      <point x="75" y="511" type="line"/>
      <point x="40" y="357" type="line"/>
      <point x="56" y="357" type="line" smooth="yes"/>
      <point x="100" y="357"/>
      <point x="125" y="383"/>
      <point x="140" y="436" type="curve"/>
      <point x="153" y="436" type="line" smooth="yes"/>
      <point x="304" y="436"/>
      <point x="352" y="380"/>
      <point x="352" y="177" type="curve" smooth="yes"/>
    </contour>
    <contour>
      <point x="192" y="474" type="line"/>
      <point x="273" y="474" type="line"/>
      <point x="273" y="663" type="line"/>
      <point x="192" y="663" type="line"/>
    </contour>
    <component base="bone" yOffset="-59"/>
  </outline>
</glyph>
<glyph name="ggaa.eth" format="2">
  <advance width="524"/>
  <unicode hex="131B"/>
  <note>
uni131B
</note>
  <anchor x="228" y="793" name="top"/>
  <outline>
    <contour>
      <point x="36" y="-79" type="line"/>
      <point x="51" y="-79" type="line" smooth="yes"/>
      <point x="96" y="-79"/>
      <point x="124" y="-51"/>
      <point x="135" y="0" type="curve"/>
      <point x="232" y="0" type="line" smooth="yes"/>
      <point x="372" y="0"/>
      <point x="436" y="78"/>
      <point x="436" y="223" type="curve" smooth="yes"/>
      <point x="436" y="271" type="line" smooth="yes"/>
      <point x="436" y="487"/>
      <point x="346" y="536"/>
      <point x="153" y="536" type="curve" smooth="yes"/>
      <point x="74" y="536" type="line"/>
      <point x="55" y="384" type="line"/>
      <point x="71" y="384" type="line" smooth="yes"/>
      <point x="110" y="384"/>
      <point x="133" y="422"/>
      <point x="142" y="472" type="curve"/>
      <point x="153" y="472" type="line" smooth="yes"/>
      <point x="303" y="472"/>
      <point x="352" y="424"/>
      <point x="352" y="247" type="curve" smooth="yes"/>
      <point x="352" y="230" type="line" smooth="yes"/>
      <point x="352" y="106"/>
      <point x="326" y="75"/>
      <point x="223" y="75" type="curve" smooth="yes"/>
      <point x="71" y="75" type="line"/>
    </contour>
    <contour>
      <point x="187" y="495" type="line"/>
      <point x="271" y="495" type="line"/>
      <point x="271" y="663" type="line"/>
      <point x="187" y="663" type="line"/>
    </contour>
    <component base="bone" yOffset="-59"/>
  </outline>
</glyph>
<glyph name="gge.eth" format="2">
  <advance width="622"/>
  <unicode hex="131D"/>
  <note>
uni131D
</note>
  <anchor x="277" y="793" name="top"/>
  <outline>
    <contour>
      <point x="460" y="0" type="line"/>
      <point x="544" y="0" type="line"/>
      <point x="544" y="212" type="line" smooth="yes"/>
      <point x="544" y="465"/>
      <point x="463" y="522"/>
      <point x="270" y="522" type="curve" smooth="yes"/>
      <point x="162" y="522" type="line"/>
      <point x="246" y="458" type="line"/>
      <point x="274" y="458" type="line" smooth="yes"/>
      <point x="416" y="458"/>
      <point x="460" y="400"/>
      <point x="460" y="188" type="curve" smooth="yes"/>
    </contour>
    <contour>
      <point x="199" y="489" type="line"/>
      <point x="283" y="489" type="line"/>
      <point x="283" y="663" type="line"/>
      <point x="199" y="663" type="line"/>
    </contour>
    <component base="bonemiddle" yOffset="-59"/>
    <component base="ballbig" xOffset="14" yOffset="87"/>
  </outline>
</glyph>
<glyph name="ggo.eth" format="2">
  <advance width="526"/>
  <unicode hex="131E"/>
  <note>
uni131E
</note>
  <anchor x="263" y="857" name="top"/>
  <outline>
    <contour>
      <point x="360" y="0" type="line"/>
      <point x="444" y="0" type="line"/>
      <point x="444" y="119" type="line" smooth="yes"/>
      <point x="444" y="371"/>
      <point x="353" y="428"/>
      <point x="162" y="428" type="curve" smooth="yes"/>
      <point x="83" y="428" type="line"/>
      <point x="48" y="274" type="line"/>
      <point x="64" y="274" type="line" smooth="yes"/>
      <point x="105" y="274"/>
      <point x="134" y="299"/>
      <point x="148" y="353" type="curve"/>
      <point x="161" y="353" type="line" smooth="yes"/>
      <point x="310" y="353"/>
      <point x="360" y="306"/>
      <point x="360" y="94" type="curve" smooth="yes"/>
    </contour>
    <contour>
      <point x="223" y="362" type="line"/>
      <point x="307" y="362" type="line"/>
      <point x="307" y="453" type="line" smooth="yes"/>
      <point x="307" y="475"/>
      <point x="312" y="493"/>
      <point x="326" y="508" type="curve" smooth="yes"/>
      <point x="357" y="542"/>
      <point x="390" y="576"/>
      <point x="390" y="648" type="curve" smooth="yes"/>
      <point x="390" y="719"/>
      <point x="347" y="766"/>
      <point x="265" y="766" type="curve" smooth="yes"/>
      <point x="189" y="766"/>
      <point x="139" y="716"/>
      <point x="139" y="637" type="curve" smooth="yes"/>
      <point x="139" y="561"/>
      <point x="188" y="520"/>
      <point x="235" y="511" type="curve"/>
      <point x="226" y="494"/>
      <point x="223" y="474"/>
      <point x="223" y="452" type="curve" smooth="yes"/>
    </contour>
    <contour>
      <point x="274" y="563" type="curve"/>
      <point x="235" y="577"/>
      <point x="217" y="604"/>
      <point x="217" y="642" type="curve" smooth="yes"/>
      <point x="217" y="678"/>
      <point x="233" y="703"/>
      <point x="264" y="703" type="curve" smooth="yes"/>
      <point x="296" y="703"/>
      <point x="311" y="681"/>
      <point x="311" y="645" type="curve" smooth="yes"/>
      <point x="311" y="615"/>
      <point x="301" y="589"/>
    </contour>
    <component base="bonelong" yOffset="5"/>
  </outline>
</glyph>
<glyph name="tha.eth" format="2">
  <advance width="820"/>
  <unicode hex="1320"/>
  <note>
uni1320
</note>
  <anchor x="404" y="714" name="top"/>
  <outline>
    <contour>
      <point x="66" y="0" type="line"/>
      <point x="149" y="0" type="line"/>
      <point x="149" y="376" type="line" smooth="yes"/>
      <point x="149" y="544"/>
      <point x="200" y="638"/>
      <point x="341" y="638" type="curve" smooth="yes"/>
      <point x="349" y="638"/>
      <point x="354" y="638"/>
      <point x="361" y="638" type="curve"/>
      <point x="361" y="0" type="line"/>
      <point x="445" y="0" type="line"/>
      <point x="445" y="594" type="line"/>
      <point x="465" y="617"/>
      <point x="501" y="638"/>
      <point x="546" y="638" type="curve" smooth="yes"/>
      <point x="639" y="638"/>
      <point x="658" y="574"/>
      <point x="658" y="439" type="curve" smooth="yes"/>
      <point x="658" y="0" type="line"/>
      <point x="742" y="0" type="line"/>
      <point x="742" y="465" type="line" smooth="yes"/>
      <point x="742" y="624"/>
      <point x="682" y="714"/>
      <point x="564" y="714" type="curve" smooth="yes"/>
      <point x="502" y="714"/>
      <point x="468" y="689"/>
      <point x="445" y="665" type="curve"/>
      <point x="445" y="714" type="line"/>
      <point x="340" y="714" type="line" smooth="yes"/>
      <point x="160" y="714"/>
      <point x="66" y="593"/>
      <point x="66" y="385" type="curve" smooth="yes"/>
    </contour>
  </outline>
</glyph>
<glyph name="the.eth" format="2">
  <advance width="838"/>
  <unicode hex="1325"/>
  <note>
uni1325
</note>
  <anchor x="413" y="714" name="top"/>
  <outline>
    <contour>
      <point x="412" y="0" type="line"/>
      <point x="496" y="0" type="line"/>
      <point x="496" y="440" type="line"/>
      <point x="422" y="440" type="line"/>
      <point x="422" y="583" type="line"/>
      <point x="442" y="606"/>
      <point x="484" y="641"/>
      <point x="549" y="641" type="curve" smooth="yes"/>
      <point x="641" y="641"/>
      <point x="676" y="565"/>
      <point x="676" y="437" type="curve" smooth="yes"/>
      <point x="676" y="237" type="line"/>
      <point x="760" y="237" type="line"/>
      <point x="760" y="463" type="line" smooth="yes"/>
      <point x="760" y="622"/>
      <point x="694" y="714"/>
      <point x="573" y="714" type="curve" smooth="yes"/>
      <point x="489" y="714"/>
      <point x="445" y="676"/>
      <point x="422" y="651" type="curve"/>
      <point x="422" y="714" type="line"/>
      <point x="321" y="714" type="line" smooth="yes"/>
      <point x="154" y="714"/>
      <point x="66" y="608"/>
      <point x="66" y="400" type="curve" smooth="yes"/>
      <point x="66" y="237" type="line"/>
      <point x="150" y="237" type="line"/>
      <point x="150" y="391" type="line" smooth="yes"/>
      <point x="150" y="560"/>
      <point x="196" y="641"/>
      <point x="318" y="641" type="curve" smooth="yes"/>
      <point x="325" y="641"/>
      <point x="331" y="641"/>
      <point x="338" y="641" type="curve"/>
      <point x="338" y="373" type="line"/>
      <point x="412" y="373" type="line"/>
    </contour>
  </outline>
</glyph>
<glyph name="tho.eth" format="2">
  <advance width="809"/>
  <unicode hex="1326"/>
  <note>
uni1326
</note>
  <anchor x="398" y="714" name="top"/>
  <outline>
    <contour>
      <point x="66" y="0" type="line"/>
      <point x="150" y="0" type="line"/>
      <point x="150" y="376" type="line" smooth="yes"/>
      <point x="150" y="544"/>
      <point x="201" y="638"/>
      <point x="337" y="638" type="curve" smooth="yes"/>
      <point x="344" y="638"/>
      <point x="350" y="638"/>
      <point x="357" y="638" type="curve"/>
      <point x="357" y="239" type="line"/>
      <point x="441" y="239" type="line"/>
      <point x="441" y="594" type="line"/>
      <point x="460" y="617"/>
      <point x="497" y="638"/>
      <point x="536" y="638" type="curve" smooth="yes"/>
      <point x="620" y="638"/>
      <point x="647" y="565"/>
      <point x="647" y="439" type="curve" smooth="yes"/>
      <point x="647" y="239" type="line"/>
      <point x="731" y="239" type="line"/>
      <point x="731" y="465" type="line" smooth="yes"/>
      <point x="731" y="624"/>
      <point x="677" y="714"/>
      <point x="561" y="714" type="curve" smooth="yes"/>
      <point x="502" y="714"/>
      <point x="463" y="689"/>
      <point x="441" y="665" type="curve"/>
      <point x="441" y="714" type="line"/>
      <point x="336" y="714" type="line" smooth="yes"/>
      <point x="160" y="714"/>
      <point x="66" y="593"/>
      <point x="66" y="385" type="curve" smooth="yes"/>
    </contour>
  </outline>
</glyph>
<glyph name="chaa.eth" format="2">
  <advance width="920"/>
  <unicode hex="132B"/>
  <note>
uni132B
</note>
  <anchor x="485" y="714" name="top"/>
  <outline>
    <contour>
      <point x="658" y="0" type="line"/>
      <point x="742" y="0" type="line"/>
      <point x="742" y="465" type="line" smooth="yes"/>
      <point x="742" y="624"/>
      <point x="682" y="714"/>
      <point x="564" y="714" type="curve" smooth="yes"/>
      <point x="502" y="714"/>
      <point x="468" y="689"/>
      <point x="445" y="665" type="curve"/>
      <point x="445" y="714" type="line"/>
      <point x="340" y="714" type="line" smooth="yes"/>
      <point x="160" y="714"/>
      <point x="66" y="593"/>
      <point x="66" y="385" type="curve" smooth="yes"/>
      <point x="66" y="194" type="line"/>
      <point x="149" y="194" type="line"/>
      <point x="149" y="376" type="line" smooth="yes"/>
      <point x="149" y="544"/>
      <point x="200" y="638"/>
      <point x="341" y="638" type="curve" smooth="yes"/>
      <point x="349" y="638"/>
      <point x="354" y="638"/>
      <point x="361" y="638" type="curve"/>
      <point x="361" y="194" type="line"/>
      <point x="445" y="194" type="line"/>
      <point x="445" y="594" type="line"/>
      <point x="465" y="617"/>
      <point x="501" y="638"/>
      <point x="546" y="638" type="curve" smooth="yes"/>
      <point x="639" y="638"/>
      <point x="658" y="574"/>
      <point x="658" y="439" type="curve" smooth="yes"/>
    </contour>
    <contour>
      <point x="71" y="194" type="line"/>
      <point x="157" y="194" type="line" smooth="yes"/>
      <point x="264" y="194"/>
      <point x="311" y="251"/>
      <point x="311" y="332" type="curve" smooth="yes"/>
      <point x="311" y="409"/>
      <point x="268" y="454"/>
      <point x="185" y="454" type="curve" smooth="yes"/>
      <point x="71" y="454" type="line"/>
    </contour>
    <contour>
      <point x="149" y="255" type="line"/>
      <point x="149" y="391" type="line"/>
      <point x="175" y="391" type="line" smooth="yes"/>
      <point x="217" y="391"/>
      <point x="231" y="368"/>
      <point x="231" y="329" type="curve" smooth="yes"/>
      <point x="231" y="286"/>
      <point x="211" y="255"/>
      <point x="160" y="255" type="curve" smooth="yes"/>
    </contour>
    <component base="bbowlnarrow" xOffset="337" yOffset="194"/>
    <component base="bbowlnarrow" xOffset="634"/>
  </outline>
</glyph>
<glyph name="che.eth" format="2">
  <advance width="960"/>
  <unicode hex="132D"/>
  <note>
uni132D
</note>
  <anchor x="505" y="714" name="top"/>
  <outline>
    <contour>
      <point x="66" y="222" type="line"/>
      <point x="149" y="222" type="line"/>
      <point x="149" y="376" type="line" smooth="yes"/>
      <point x="149" y="544"/>
      <point x="200" y="638"/>
      <point x="341" y="638" type="curve" smooth="yes"/>
      <point x="349" y="638"/>
      <point x="354" y="638"/>
      <point x="361" y="638" type="curve"/>
      <point x="361" y="360" type="line"/>
      <point x="445" y="360" type="line"/>
      <point x="445" y="594" type="line"/>
      <point x="469" y="617"/>
      <point x="512" y="638"/>
      <point x="566" y="638" type="curve" smooth="yes"/>
      <point x="657" y="638"/>
      <point x="698" y="574"/>
      <point x="698" y="439" type="curve" smooth="yes"/>
      <point x="698" y="223" type="line"/>
      <point x="782" y="223" type="line"/>
      <point x="782" y="465" type="line" smooth="yes"/>
      <point x="782" y="625"/>
      <point x="698" y="714"/>
      <point x="584" y="714" type="curve" smooth="yes"/>
      <point x="512" y="714"/>
      <point x="472" y="689"/>
      <point x="445" y="665" type="curve"/>
      <point x="445" y="714" type="line"/>
      <point x="340" y="714" type="line" smooth="yes"/>
      <point x="160" y="714"/>
      <point x="66" y="593"/>
      <point x="66" y="385" type="curve" smooth="yes"/>
    </contour>
    <contour>
      <point x="71" y="223" type="line"/>
      <point x="157" y="223" type="line" smooth="yes"/>
      <point x="264" y="223"/>
      <point x="311" y="280"/>
      <point x="311" y="361" type="curve" smooth="yes"/>
      <point x="311" y="438"/>
      <point x="268" y="483"/>
      <point x="185" y="483" type="curve" smooth="yes"/>
      <point x="92" y="483" type="line"/>
    </contour>
    <contour>
      <point x="149" y="284" type="line"/>
      <point x="149" y="420" type="line"/>
      <point x="175" y="420" type="line" smooth="yes"/>
      <point x="217" y="420"/>
      <point x="231" y="397"/>
      <point x="231" y="358" type="curve" smooth="yes"/>
      <point x="231" y="315"/>
      <point x="211" y="284"/>
      <point x="160" y="284" type="curve" smooth="yes"/>
    </contour>
    <contour>
      <point x="441" y="0" type="line"/>
      <point x="525" y="0" type="line"/>
      <point x="525" y="394" type="line"/>
      <point x="441" y="394" type="line"/>
    </contour>
    <contour>
      <point x="361" y="353" type="line"/>
      <point x="525" y="353" type="line"/>
      <point x="525" y="420" type="line"/>
      <point x="361" y="420" type="line"/>
    </contour>
    <component base="bbowlnarrow" xOffset="417"/>
    <component base="bbowlnarrow" xOffset="674" yOffset="223"/>
  </outline>
</glyph>
<glyph name="cho.eth" format="2">
  <advance width="920"/>
  <unicode hex="132E"/>
  <note>
uni132E
</note>
  <anchor x="485" y="714" name="top"/>
  <outline>
    <contour>
      <point x="66" y="0" type="line"/>
      <point x="149" y="0" type="line"/>
      <point x="149" y="376" type="line" smooth="yes"/>
      <point x="149" y="544"/>
      <point x="200" y="638"/>
      <point x="341" y="638" type="curve" smooth="yes"/>
      <point x="349" y="638"/>
      <point x="354" y="638"/>
      <point x="361" y="638" type="curve"/>
      <point x="361" y="190" type="line"/>
      <point x="445" y="190" type="line"/>
      <point x="445" y="594" type="line"/>
      <point x="465" y="617"/>
      <point x="501" y="638"/>
      <point x="546" y="638" type="curve" smooth="yes"/>
      <point x="639" y="638"/>
      <point x="658" y="574"/>
      <point x="658" y="439" type="curve" smooth="yes"/>
      <point x="658" y="190" type="line"/>
      <point x="742" y="190" type="line"/>
      <point x="742" y="465" type="line" smooth="yes"/>
      <point x="742" y="624"/>
      <point x="682" y="714"/>
      <point x="564" y="714" type="curve" smooth="yes"/>
      <point x="502" y="714"/>
      <point x="468" y="689"/>
      <point x="445" y="665" type="curve"/>
      <point x="445" y="714" type="line"/>
      <point x="340" y="714" type="line" smooth="yes"/>
      <point x="160" y="714"/>
      <point x="66" y="593"/>
      <point x="66" y="385" type="curve" smooth="yes"/>
    </contour>
    <component base="bbowlnarrow" xOffset="337" yOffset="190"/>
    <component base="bbowlnarrow" xOffset="634" yOffset="190"/>
    <component base="bbowlnarrow" xOffset="41"/>
  </outline>
</glyph>
<glyph name="pha.eth" format="2">
  <advance width="479"/>
  <unicode hex="1330"/>
  <note>
uni1330
</note>
  <anchor x="239" y="760" name="top"/>
  <outline>
    <contour>
      <point x="35" y="0" type="curve"/>
      <point x="119" y="0" type="line"/>
      <point x="123" y="160"/>
      <point x="153" y="209"/>
      <point x="267" y="306" type="curve" smooth="yes"/>
      <point x="344" y="371"/>
      <point x="390" y="414"/>
      <point x="390" y="505" type="curve" smooth="yes"/>
      <point x="390" y="595"/>
      <point x="343" y="663"/>
      <point x="241" y="663" type="curve" smooth="yes"/>
      <point x="141" y="663"/>
      <point x="86" y="597"/>
      <point x="86" y="497" type="curve" smooth="yes"/>
      <point x="86" y="402"/>
      <point x="136" y="347"/>
      <point x="211" y="320" type="curve"/>
      <point x="266" y="365" type="line"/>
      <point x="205" y="388"/>
      <point x="167" y="428"/>
      <point x="167" y="497" type="curve" smooth="yes"/>
      <point x="167" y="557"/>
      <point x="196" y="594"/>
      <point x="240" y="594" type="curve" smooth="yes"/>
      <point x="284" y="594"/>
      <point x="308" y="556"/>
      <point x="308" y="504" type="curve" smooth="yes"/>
      <point x="308" y="438"/>
      <point x="271" y="402"/>
      <point x="217" y="355" type="curve" smooth="yes"/>
      <point x="87" y="240"/>
      <point x="40" y="183"/>
    </contour>
    <contour>
      <point x="360" y="0" type="line"/>
      <point x="444" y="0" type="line"/>
      <point x="444" y="28" type="line" smooth="yes"/>
      <point x="444" y="209"/>
      <point x="379" y="279"/>
      <point x="253" y="319" type="curve"/>
      <point x="202" y="266" type="line"/>
      <point x="305" y="234"/>
      <point x="360" y="172"/>
      <point x="360" y="13" type="curve" smooth="yes"/>
    </contour>
    <contour>
      <point x="200" y="641" type="line"/>
      <point x="281" y="641" type="line"/>
      <point x="281" y="760" type="line"/>
      <point x="200" y="760" type="line"/>
    </contour>
  </outline>
</glyph>
<glyph name="phu.eth" format="2">
  <advance width="618"/>
  <unicode hex="1331"/>
  <note>
uni1331
</note>
  <anchor x="321" y="760" name="top"/>
  <outline>
    <contour>
      <point x="366" y="152" type="line"/>
      <point x="498" y="152" type="line"/>
      <point x="498" y="227" type="line"/>
      <point x="366" y="227" type="line"/>
    </contour>
    <component base="pha.eth"/>
    <component base="rightsingleflag" xOffset="378" yOffset="-179"/>
  </outline>
</glyph>
<glyph name="phaa.eth" format="2">
  <advance width="468"/>
  <unicode hex="1333"/>
  <note>
uni1333
</note>
  <anchor x="234" y="760" name="top"/>
  <outline>
    <contour>
      <point x="35" y="111" type="curve"/>
      <point x="119" y="111" type="line"/>
      <point x="135" y="191"/>
      <point x="174" y="236"/>
      <point x="256" y="306" type="curve" smooth="yes"/>
      <point x="333" y="371"/>
      <point x="379" y="414"/>
      <point x="379" y="505" type="curve" smooth="yes"/>
      <point x="379" y="595"/>
      <point x="332" y="663"/>
      <point x="230" y="663" type="curve" smooth="yes"/>
      <point x="130" y="663"/>
      <point x="75" y="597"/>
      <point x="75" y="497" type="curve" smooth="yes"/>
      <point x="75" y="402"/>
      <point x="125" y="347"/>
      <point x="200" y="320" type="curve"/>
      <point x="255" y="365" type="line"/>
      <point x="194" y="388"/>
      <point x="156" y="428"/>
      <point x="156" y="497" type="curve" smooth="yes"/>
      <point x="156" y="557"/>
      <point x="185" y="594"/>
      <point x="229" y="594" type="curve" smooth="yes"/>
      <point x="273" y="594"/>
      <point x="297" y="556"/>
      <point x="297" y="504" type="curve" smooth="yes"/>
      <point x="297" y="438"/>
      <point x="260" y="402"/>
      <point x="206" y="355" type="curve" smooth="yes"/>
      <point x="106" y="267"/>
      <point x="56" y="213"/>
    </contour>
    <contour>
      <point x="349" y="0" type="line"/>
      <point x="433" y="0" type="line"/>
      <point x="433" y="28" type="line" smooth="yes"/>
      <point x="433" y="209"/>
      <point x="368" y="279"/>
      <point x="242" y="319" type="curve"/>
      <point x="191" y="266" type="line"/>
      <point x="294" y="234"/>
      <point x="349" y="172"/>
      <point x="349" y="13" type="curve" smooth="yes"/>
    </contour>
    <contour>
      <point x="185" y="641" type="line"/>
      <point x="266" y="641" type="line"/>
      <point x="266" y="760" type="line"/>
      <point x="185" y="760" type="line"/>
    </contour>
  </outline>
</glyph>
<glyph name="phee.eth" format="2">
  <advance width="625"/>
  <unicode hex="1334"/>
  <note>
uni1334
</note>
  <anchor x="321" y="760" name="top"/>
  <outline>
    <contour>
      <point x="35" y="0" type="curve"/>
      <point x="119" y="0" type="line"/>
      <point x="123" y="167"/>
      <point x="157" y="211"/>
      <point x="267" y="306" type="curve" smooth="yes"/>
      <point x="346" y="374"/>
      <point x="390" y="414"/>
      <point x="390" y="503" type="curve" smooth="yes"/>
      <point x="390" y="595"/>
      <point x="343" y="663"/>
      <point x="241" y="663" type="curve" smooth="yes"/>
      <point x="141" y="663"/>
      <point x="86" y="597"/>
      <point x="86" y="497" type="curve" smooth="yes"/>
      <point x="86" y="402"/>
      <point x="136" y="347"/>
      <point x="211" y="320" type="curve"/>
      <point x="266" y="365" type="line"/>
      <point x="205" y="388"/>
      <point x="167" y="428"/>
      <point x="167" y="497" type="curve" smooth="yes"/>
      <point x="167" y="557"/>
      <point x="196" y="594"/>
      <point x="240" y="594" type="curve" smooth="yes"/>
      <point x="284" y="594"/>
      <point x="308" y="557"/>
      <point x="308" y="503" type="curve" smooth="yes"/>
      <point x="308" y="437"/>
      <point x="271" y="403"/>
      <point x="217" y="355" type="curve" smooth="yes"/>
      <point x="87" y="239"/>
      <point x="40" y="185"/>
    </contour>
    <contour>
      <point x="484" y="-18" type="curve" smooth="yes"/>
      <point x="570" y="-18"/>
      <point x="608" y="49"/>
      <point x="608" y="112" type="curve" smooth="yes"/>
      <point x="608" y="182"/>
      <point x="562" y="237"/>
      <point x="490" y="237" type="curve" smooth="yes"/>
      <point x="444" y="237"/>
      <point x="416" y="214"/>
      <point x="398" y="183" type="curve"/>
      <point x="372" y="245"/>
      <point x="321" y="294"/>
      <point x="270" y="318" type="curve"/>
      <point x="216" y="266" type="line"/>
      <point x="292" y="236"/>
      <point x="313" y="193"/>
      <point x="341" y="124" type="curve" smooth="yes"/>
      <point x="373" y="44"/>
      <point x="400" y="-18"/>
    </contour>
    <contour>
      <point x="486" y="47" type="curve" smooth="yes"/>
      <point x="449" y="47"/>
      <point x="435" y="79"/>
      <point x="435" y="111" type="curve" smooth="yes"/>
      <point x="435" y="140"/>
      <point x="447" y="172"/>
      <point x="486" y="172" type="curve" smooth="yes"/>
      <point x="521" y="172"/>
      <point x="535" y="146"/>
      <point x="535" y="110" type="curve" smooth="yes"/>
      <point x="535" y="73"/>
      <point x="520" y="47"/>
    </contour>
    <contour>
      <point x="198" y="641" type="line"/>
      <point x="279" y="641" type="line"/>
      <point x="279" y="760" type="line"/>
      <point x="198" y="760" type="line"/>
    </contour>
  </outline>
</glyph>
<glyph name="tsa.eth" format="2">
  <advance width="479"/>
  <unicode hex="1338"/>
  <note>
uni1338
</note>
  <anchor x="239" y="724" name="top"/>
  <outline>
    <contour>
      <point x="35" y="0" type="curve"/>
      <point x="119" y="0" type="line"/>
      <point x="121" y="211"/>
      <point x="155" y="273"/>
      <point x="267" y="368" type="curve" smooth="yes"/>
      <point x="342" y="431"/>
      <point x="389" y="476"/>
      <point x="389" y="565" type="curve" smooth="yes"/>
      <point x="389" y="656"/>
      <point x="336" y="724"/>
      <point x="241" y="724" type="curve" smooth="yes"/>
      <point x="149" y="724"/>
      <point x="87" y="660"/>
      <point x="87" y="557" type="curve" smooth="yes"/>
      <point x="87" y="464"/>
      <point x="137" y="409"/>
      <point x="211" y="381" type="curve"/>
      <point x="266" y="427" type="line"/>
      <point x="205" y="449"/>
      <point x="167" y="489"/>
      <point x="167" y="560" type="curve" smooth="yes"/>
      <point x="167" y="620"/>
      <point x="194" y="657"/>
      <point x="238" y="657" type="curve" smooth="yes"/>
      <point x="282" y="657"/>
      <point x="308" y="619"/>
      <point x="308" y="562" type="curve" smooth="yes"/>
      <point x="308" y="495"/>
      <point x="272" y="461"/>
      <point x="220" y="416" type="curve" smooth="yes"/>
      <point x="90" y="302"/>
      <point x="39" y="231"/>
    </contour>
    <contour>
      <point x="360" y="0" type="line"/>
      <point x="444" y="0" type="line"/>
      <point x="444" y="46" type="line" smooth="yes"/>
      <point x="444" y="243"/>
      <point x="377" y="340"/>
      <point x="253" y="380" type="curve"/>
      <point x="202" y="328" type="line"/>
      <point x="305" y="296"/>
      <point x="360" y="223"/>
      <point x="360" y="31" type="curve" smooth="yes"/>
    </contour>
  </outline>
</glyph>
<glyph name="tsaa.eth" format="2">
  <advance width="469"/>
  <unicode hex="133B"/>
  <note>
uni133B
</note>
  <anchor x="234" y="724" name="top"/>
  <outline>
    <contour>
      <point x="35" y="130" type="curve"/>
      <point x="118" y="130" type="line"/>
      <point x="133" y="242"/>
      <point x="172" y="296"/>
      <point x="257" y="368" type="curve" smooth="yes"/>
      <point x="332" y="431"/>
      <point x="379" y="476"/>
      <point x="379" y="565" type="curve" smooth="yes"/>
      <point x="379" y="656"/>
      <point x="326" y="724"/>
      <point x="231" y="724" type="curve" smooth="yes"/>
      <point x="139" y="724"/>
      <point x="77" y="660"/>
      <point x="77" y="557" type="curve" smooth="yes"/>
      <point x="77" y="464"/>
      <point x="127" y="409"/>
      <point x="201" y="381" type="curve"/>
      <point x="256" y="427" type="line"/>
      <point x="195" y="449"/>
      <point x="157" y="489"/>
      <point x="157" y="560" type="curve" smooth="yes"/>
      <point x="157" y="620"/>
      <point x="184" y="657"/>
      <point x="228" y="657" type="curve" smooth="yes"/>
      <point x="272" y="657"/>
      <point x="298" y="619"/>
      <point x="298" y="562" type="curve" smooth="yes"/>
      <point x="298" y="495"/>
      <point x="262" y="461"/>
      <point x="210" y="416" type="curve" smooth="yes"/>
      <point x="108" y="327"/>
      <point x="55" y="263"/>
    </contour>
    <contour>
      <point x="350" y="0" type="line"/>
      <point x="434" y="0" type="line"/>
      <point x="434" y="46" type="line" smooth="yes"/>
      <point x="434" y="243"/>
      <point x="367" y="340"/>
      <point x="243" y="380" type="curve"/>
      <point x="192" y="328" type="line"/>
      <point x="295" y="296"/>
      <point x="350" y="223"/>
      <point x="350" y="31" type="curve" smooth="yes"/>
    </contour>
  </outline>
</glyph>
<glyph name="tsee.eth" format="2">
  <advance width="623"/>
  <unicode hex="133C"/>
  <note>
uni133C
</note>
  <anchor x="320" y="724" name="top"/>
  <outline>
    <contour>
      <point x="35" y="0" type="curve"/>
      <point x="122" y="0" type="line"/>
      <point x="122" y="193"/>
      <point x="154" y="275"/>
      <point x="267" y="368" type="curve" smooth="yes"/>
      <point x="348" y="435"/>
      <point x="391" y="487"/>
      <point x="391" y="569" type="curve" smooth="yes"/>
      <point x="391" y="656"/>
      <point x="338" y="724"/>
      <point x="242" y="724" type="curve" smooth="yes"/>
      <point x="150" y="724"/>
      <point x="87" y="658"/>
      <point x="87" y="559" type="curve" smooth="yes"/>
      <point x="87" y="463"/>
      <point x="134" y="408"/>
      <point x="208" y="381" type="curve"/>
      <point x="267" y="427" type="line"/>
      <point x="208" y="450"/>
      <point x="172" y="489"/>
      <point x="172" y="560" type="curve" smooth="yes"/>
      <point x="172" y="616"/>
      <point x="197" y="654"/>
      <point x="238" y="654" type="curve" smooth="yes"/>
      <point x="281" y="654"/>
      <point x="306" y="616"/>
      <point x="306" y="565" type="curve" smooth="yes"/>
      <point x="306" y="505"/>
      <point x="281" y="467"/>
      <point x="219" y="417" type="curve" smooth="yes"/>
      <point x="82" y="307"/>
      <point x="37" y="206"/>
    </contour>
    <contour>
      <point x="485" y="-18" type="curve" smooth="yes"/>
      <point x="569" y="-18"/>
      <point x="606" y="48"/>
      <point x="606" y="114" type="curve" smooth="yes"/>
      <point x="606" y="180"/>
      <point x="564" y="237"/>
      <point x="485" y="237" type="curve" smooth="yes"/>
      <point x="447" y="237"/>
      <point x="416" y="219"/>
      <point x="399" y="194" type="curve"/>
      <point x="376" y="287"/>
      <point x="327" y="355"/>
      <point x="259" y="379" type="curve"/>
      <point x="198" y="331" type="line"/>
      <point x="278" y="301"/>
      <point x="318" y="257"/>
      <point x="348" y="125" type="curve" smooth="yes"/>
      <point x="368" y="39"/>
      <point x="401" y="-18"/>
    </contour>
    <contour>
      <point x="484" y="47" type="curve" smooth="yes"/>
      <point x="448" y="47"/>
      <point x="434" y="79"/>
      <point x="434" y="112" type="curve" smooth="yes"/>
      <point x="434" y="140"/>
      <point x="447" y="172"/>
      <point x="484" y="172" type="curve" smooth="yes"/>
      <point x="520" y="172"/>
      <point x="534" y="140"/>
      <point x="534" y="112" type="curve" smooth="yes"/>
      <point x="534" y="80"/>
      <point x="520" y="47"/>
    </contour>
  </outline>
</glyph>
<glyph name="tso.eth" format="2">
  <advance width="474"/>
  <unicode hex="133E"/>
  <note>
uni133E
</note>
  <anchor x="237" y="724" name="top"/>
  <outline>
    <contour>
      <point x="35" y="0" type="curve"/>
      <point x="119" y="0" type="line"/>
      <point x="121" y="211"/>
      <point x="152" y="273"/>
      <point x="264" y="368" type="curve" smooth="yes"/>
      <point x="339" y="431"/>
      <point x="389" y="476"/>
      <point x="389" y="565" type="curve" smooth="yes"/>
      <point x="389" y="656"/>
      <point x="336" y="724"/>
      <point x="241" y="724" type="curve" smooth="yes"/>
      <point x="149" y="724"/>
      <point x="87" y="660"/>
      <point x="87" y="557" type="curve" smooth="yes"/>
      <point x="87" y="464"/>
      <point x="137" y="409"/>
      <point x="211" y="381" type="curve"/>
      <point x="266" y="427" type="line"/>
      <point x="205" y="449"/>
      <point x="167" y="489"/>
      <point x="167" y="560" type="curve" smooth="yes"/>
      <point x="167" y="620"/>
      <point x="194" y="657"/>
      <point x="238" y="657" type="curve" smooth="yes"/>
      <point x="282" y="657"/>
      <point x="308" y="619"/>
      <point x="308" y="562" type="curve" smooth="yes"/>
      <point x="308" y="495"/>
      <point x="272" y="461"/>
      <point x="220" y="416" type="curve" smooth="yes"/>
      <point x="90" y="302"/>
      <point x="39" y="231"/>
    </contour>
    <contour>
      <point x="354" y="133" type="curve"/>
      <point x="439" y="133" type="line"/>
      <point x="421" y="273"/>
      <point x="357" y="346"/>
      <point x="253" y="380" type="curve"/>
      <point x="202" y="328" type="line"/>
      <point x="285" y="302"/>
      <point x="336" y="251"/>
    </contour>
  </outline>
</glyph>
<glyph name="tza.eth" format="2">
  <advance width="507"/>
  <unicode hex="1340"/>
  <note>
uni1340
</note>
  <anchor x="253" y="723" name="top"/>
  <outline>
    <contour>
      <point x="96" y="322" type="line"/>
      <point x="411" y="322" type="line"/>
      <point x="411" y="397" type="line"/>
      <point x="96" y="397" type="line"/>
    </contour>
    <component base="aPhr.eth"/>
  </outline>
</glyph>
<glyph name="tzi.eth" format="2">
  <advance width="469"/>
  <unicode hex="1342"/>
  <note>
uni1342
</note>
  <anchor x="242" y="724" name="top"/>
  <outline>
    <contour>
      <point x="206" y="0" type="line"/>
      <point x="320" y="0" type="line"/>
      <point x="320" y="75" type="line"/>
      <point x="206" y="75" type="line"/>
    </contour>
    <component base="tzaa.eth"/>
    <component base="rightdoubleflag" xOffset="229"/>
  </outline>
</glyph>
<glyph name="tzaa.eth" format="2">
  <advance width="397"/>
  <unicode hex="1343"/>
  <note>
uni1343
</note>
  <anchor x="191" y="724" name="top"/>
  <outline>
    <contour>
      <point x="129" y="0" type="line"/>
      <point x="213" y="0" type="line"/>
      <point x="230" y="116" type="line" smooth="yes"/>
      <point x="242" y="195"/>
      <point x="261" y="255"/>
      <point x="292" y="312" type="curve" smooth="yes"/>
      <point x="317" y="358"/>
      <point x="357" y="423"/>
      <point x="357" y="529" type="curve" smooth="yes"/>
      <point x="357" y="645"/>
      <point x="304" y="724"/>
      <point x="194" y="724" type="curve" smooth="yes"/>
      <point x="86" y="724"/>
      <point x="25" y="649"/>
      <point x="25" y="512" type="curve" smooth="yes"/>
      <point x="25" y="378"/>
      <point x="84" y="294"/>
      <point x="188" y="282" type="curve"/>
      <point x="171" y="237"/>
      <point x="156" y="191"/>
      <point x="146" y="120" type="curve" smooth="yes"/>
    </contour>
    <contour>
      <point x="218" y="345" type="curve"/>
      <point x="147" y="349"/>
      <point x="112" y="394"/>
      <point x="107" y="482" type="curve"/>
      <point x="272" y="482" type="line"/>
      <point x="268" y="421"/>
      <point x="240" y="387"/>
    </contour>
    <contour>
      <point x="107" y="543" type="line"/>
      <point x="111" y="614"/>
      <point x="139" y="660"/>
      <point x="194" y="660" type="curve" smooth="yes"/>
      <point x="239" y="660"/>
      <point x="272" y="630"/>
      <point x="274" y="543" type="curve"/>
    </contour>
  </outline>
</glyph>
<glyph name="tzee.eth" format="2">
  <advance width="448"/>
  <unicode hex="1344"/>
  <note>
uni1344
</note>
  <anchor x="228" y="724" name="top"/>
  <outline>
    <contour>
      <point x="154" y="0" type="line"/>
      <point x="276" y="0" type="line" smooth="yes"/>
      <point x="388" y="0"/>
      <point x="432" y="57"/>
      <point x="432" y="138" type="curve" smooth="yes"/>
      <point x="432" y="215"/>
      <point x="391" y="260"/>
      <point x="305" y="260" type="curve" smooth="yes"/>
      <point x="208" y="260" type="line"/>
    </contour>
    <contour>
      <point x="208" y="68" type="line"/>
      <point x="238" y="192" type="line"/>
      <point x="291" y="192" type="line" smooth="yes"/>
      <point x="334" y="192"/>
      <point x="351" y="171"/>
      <point x="351" y="135" type="curve" smooth="yes"/>
      <point x="351" y="96"/>
      <point x="331" y="68"/>
      <point x="271" y="68" type="curve" smooth="yes"/>
    </contour>
    <component base="tzaa.eth"/>
  </outline>
</glyph>
<glyph name="tze.eth" format="2">
  <advance width="507"/>
  <unicode hex="1345"/>
  <note>
uni1345
</note>
  <anchor x="253" y="760" name="top"/>
  <outline>
    <contour>
      <point x="106" y="275" type="line"/>
      <point x="403" y="275" type="line"/>
      <point x="403" y="344" type="line"/>
      <point x="106" y="344" type="line"/>
    </contour>
    <component base="ePhr.eth"/>
  </outline>
</glyph>
<glyph name="tzo.eth" format="2">
  <advance width="426"/>
  <unicode hex="1346"/>
  <note>
uni1346
</note>
  <anchor x="213" y="724" name="top"/>
  <outline>
    <contour>
      <point x="140" y="518" type="line"/>
      <point x="337" y="518" type="line"/>
      <point x="337" y="580" type="line"/>
      <point x="140" y="580" type="line"/>
    </contour>
    <component base="oPhr.eth"/>
  </outline>
</glyph>
<glyph name="fa.eth" format="2">
  <advance width="568"/>
  <unicode hex="1348"/>
  <note>
uni1348
</note>
  <anchor x="298" y="725" name="top"/>
  <outline>
    <contour>
      <point x="191" y="0" type="curve" smooth="yes"/>
      <point x="415" y="0" type="line"/>
      <point x="443" y="75" type="line"/>
      <point x="310" y="75" type="line"/>
      <point x="325" y="96"/>
      <point x="343" y="135"/>
      <point x="343" y="180" type="curve" smooth="yes"/>
      <point x="343" y="275"/>
      <point x="305" y="327"/>
      <point x="251" y="351" type="curve"/>
      <point x="282" y="374"/>
      <point x="316" y="401"/>
      <point x="343" y="445" type="curve" smooth="yes"/>
      <point x="378" y="502"/>
      <point x="405" y="598"/>
      <point x="406" y="725" type="curve"/>
      <point x="322" y="725" type="line"/>
      <point x="321" y="608"/>
      <point x="308" y="546"/>
      <point x="270" y="481" type="curve" smooth="yes"/>
      <point x="245" y="439"/>
      <point x="210" y="412"/>
      <point x="166" y="383" type="curve" smooth="yes"/>
      <point x="92" y="335"/>
      <point x="39" y="282"/>
      <point x="39" y="169" type="curve" smooth="yes"/>
      <point x="39" y="72"/>
      <point x="86" y="0"/>
    </contour>
    <contour>
      <point x="190" y="65" type="curve" smooth="yes"/>
      <point x="151" y="65"/>
      <point x="124" y="101"/>
      <point x="124" y="172" type="curve" smooth="yes"/>
      <point x="124" y="231"/>
      <point x="144" y="275"/>
      <point x="183" y="304" type="curve"/>
      <point x="228" y="291"/>
      <point x="258" y="256"/>
      <point x="258" y="178" type="curve" smooth="yes"/>
      <point x="258" y="113"/>
      <point x="235" y="65"/>
    </contour>
    <component base="rightdoubleflag" xOffset="328"/>
  </outline>
</glyph>
